<?xml version="1.0" encoding="UTF-8" standalone="no"?>
<svg
   xmlns:dc="http://purl.org/dc/elements/1.1/"
   xmlns:cc="http://creativecommons.org/ns#"
   xmlns:rdf="http://www.w3.org/1999/02/22-rdf-syntax-ns#"
   xmlns:svg="http://www.w3.org/2000/svg"
   xmlns="http://www.w3.org/2000/svg"
   xmlns:sodipodi="http://sodipodi.sourceforge.net/DTD/sodipodi-0.dtd"
   xmlns:inkscape="http://www.inkscape.org/namespaces/inkscape"
   version="1.1"
   x="0px"
   y="0px"
   viewBox="0 0 120 95.814605"
   enable-background="new 0 0 100 100"
   xml:space="preserve"
   id="svg10"
   sodipodi:docname="gota.svg"
   inkscape:version="1.0.2 (e86c8708, 2021-01-15)"
   width="120"
   height="95.814606"><metadata
     id="metadata16"><rdf:RDF><cc:Work
         rdf:about=""><dc:format>image/svg+xml</dc:format><dc:type
           rdf:resource="http://purl.org/dc/dcmitype/StillImage" /><dc:title /></cc:Work></rdf:RDF></metadata><defs
     id="defs14" /><sodipodi:namedview
     pagecolor="#ffffff"
     bordercolor="#666666"
     borderopacity="1"
     objecttolerance="10"
     gridtolerance="10"
     guidetolerance="10"
     inkscape:pageopacity="0"
     inkscape:pageshadow="2"
     inkscape:window-width="1680"
     inkscape:window-height="1022"
     id="namedview12"
     showgrid="false"
     inkscape:zoom="3.4893549"
     inkscape:cx="91.953615"
     inkscape:cy="40.382705"
     inkscape:window-x="0"
     inkscape:window-y="0"
     inkscape:window-maximized="1"
     inkscape:current-layer="svg10"
     inkscape:document-rotation="0" /><g
     transform="rotate(180,51.173735,570.28629)"
     id="g842"
     style="fill:#414141;fill-opacity:1"><path
       d="m 35.6342,974.36215 c -10.3085,0 -16.6342,8.90577 -16.6342,16.21052 0,15.79493 18.1725,30.45613 31,39.78953 12.8276,-9.3334 31,-23.9946 31,-39.78953 0,-7.30475 -6.3257,-16.21052 -16.6341,-16.21052 -5.7572,0 -10.6753,4.53443 -14.3659,8.84211 -3.6905,-4.30768 -8.6088,-8.84211 -14.3658,-8.84211 z"
       style="color:#000000;fill:#414141;fill-opacity:1;enable-background:accumulate"
       fill="#000000"
       stroke="none"
       marker="none"
       visibility="visible"
       display="inline"
       overflow="visible"
       id="path840" /></g><g
     id="g36"
     transform="rotate(180,8.2316066,73.642246)"
     style="fill:#414141;fill-opacity:1"><path
       d="m 80,16 c 0,-1.657 -1.343,-3 -3,-3 -1.657,0 -3,1.343 -3,3 0,9.926 -9.252,18 -20.625,18 h -6.75 C 35.252,34 26,25.925 26,16 c 0,-1.657 -1.343,-3 -3,-3 -1.657,0 -3,1.343 -3,3 0,10.51 7.545,19.442 18,22.682 v 24.947 l -5.911,23.643 c -0.401,1.608 0.576,3.237 2.183,3.639 1.583,0.398 3.232,-0.558 3.639,-2.183 L 43.343,67 h 13.315 l 5.432,21.728 c 0.407,1.625 2.055,2.581 3.639,2.183 1.607,-0.401 2.584,-2.03 2.183,-3.639 L 62,63.629 V 38.682 C 72.455,35.441 80,26.509 80,16 Z"
       id="path16"
       style="fill:#414141;fill-opacity:1" /><path
       d="M 39.5,19 C 39.5,13.201 44.201,8.5 50,8.5 55.799,8.5 60.5,13.201 60.5,19 60.5,24.799 55.799,29.5 50,29.5 44.201,29.5 39.5,24.799 39.5,19 Z"
       id="path18"
       style="fill:#414141;fill-opacity:1" /></g><g
     transform="matrix(1.3333332,0,0,1.3333332,-6.6666604,-1288.5754)"
     id="g21"
     style="fill:#4c4c4c;fill-opacity:1"><path
       d="m 61.544055,966.43213 c -1.44144,0.0269 -2.69741,0.98922 -3.09845,2.37402 -2.85361,9.34687 -3.72809,12.62084 -5.27664,14.22442 -0.993233,1.02857 -3.656906,2.30863 -7.437714,4.02841 l -14.381059,7.17339 c -1.198704,0.59797 -2.993351,0.70698 -4.522837,0.10024 -3.287103,-1.33528 -5.475174,-2.29877 -6.833205,-3.33582 -2.489231,-1.9008 -4.140785,-5.04786 -8.732405,-14.27089 -0.535823,-1.11598 -1.6527855,-1.83665 -2.8904075,-1.86493 -2.49682,-0.0584 -4.145544,2.57737 -3.00054,4.79694 4.588397,9.21653 6.5857855,13.47701 10.6316055,16.5666 3.503267,2.67519 7.771702,4.01839 15.443239,7.11459 l 0.817438,1.6398 7.229687,14.4961 0.0074,0.015 c 3.052492,6.0962 12.037214,8.8675 17.386498,6.1993 l 13.4804,-6.6325 9.60858,16.8137 c 3.11313,5.4382 11.2704,0.7685 8.15727,-4.6697 l -11.22144,-19.6037 c -0.87838,-1.5347 -2.54381,-2.4464 -4.3099,-2.3594 -0.54374,0.026 -1.07871,0.1476 -1.58104,0.3573 l -8.62472,3.6051 8.67611,-7.7315 17.85885,5.0516 c 6.09567,1.8257 8.70653,-7.406 2.55755,-9.0432 l -20.33809,-5.75394 c -0.45275,-0.12819 -0.92217,-0.18759 -1.39257,-0.17619 -1.11349,0.0263 -2.1812,0.44848 -3.01278,1.18943 l -11.20675,9.9854 -5.332941,-10.69026 -1.49782,-3.00301 c 4.222531,-1.83827 6.995631,-3.15087 9.194971,-5.42834 3.32129,-3.43943 4.027,-7.6729 6.83566,-16.87257 0.69009,-2.14819 -0.93797,-4.33765 -3.19389,-4.29523 z m -28.757226,7.62373 c -4.621348,0 -8.379976,3.75862 -8.379976,8.37998 0.0013,4.65021 3.759868,8.38 8.379976,8.38 4.650195,0 8.419135,-3.72979 8.419135,-8.38 0,-4.62136 -3.76894,-8.37998 -8.419135,-8.37998 z"
       fill="#000000"
       id="path19"
       style="fill:#4c4c4c;fill-opacity:1" /></g></svg>
