<?xml version="1.0" encoding="UTF-8" standalone="no"?>
<svg
   xmlns:dc="http://purl.org/dc/elements/1.1/"
   xmlns:cc="http://creativecommons.org/ns#"
   xmlns:rdf="http://www.w3.org/1999/02/22-rdf-syntax-ns#"
   xmlns:svg="http://www.w3.org/2000/svg"
   xmlns="http://www.w3.org/2000/svg"
   xmlns:sodipodi="http://sodipodi.sourceforge.net/DTD/sodipodi-0.dtd"
   xmlns:inkscape="http://www.inkscape.org/namespaces/inkscape"
   version="1.1"
   x="0px"
   y="0px"
   viewBox="0 0 220 165.76858"
   enable-background="new 0 0 100 100"
   xml:space="preserve"
   id="svg10"
   sodipodi:docname="open.svg"
   inkscape:version="1.0.2 (e86c8708, 2021-01-15)"
   width="220"
   height="165.76859"><metadata
     id="metadata16"><rdf:RDF><cc:Work
         rdf:about=""><dc:format>image/svg+xml</dc:format><dc:type
           rdf:resource="http://purl.org/dc/dcmitype/StillImage" /><dc:title /></cc:Work></rdf:RDF></metadata><defs
     id="defs14" /><sodipodi:namedview
     pagecolor="#ffffff"
     bordercolor="#666666"
     borderopacity="1"
     objecttolerance="10"
     gridtolerance="10"
     guidetolerance="10"
     inkscape:pageopacity="0"
     inkscape:pageshadow="2"
     inkscape:window-width="1680"
     inkscape:window-height="1022"
     id="namedview12"
     showgrid="false"
     inkscape:zoom="1.5236424"
     inkscape:cx="238.60075"
     inkscape:cy="169.26334"
     inkscape:window-x="-10"
     inkscape:window-y="0"
     inkscape:window-maximized="0"
     inkscape:current-layer="g20"
     inkscape:document-rotation="0" /><g
     id="g20"
     transform="matrix(2.444417,0,0,2.444417,0.00114601,0)"
     style="opacity:1"><path
       style="fill:#f2f2f2;fill-opacity:1;stroke:none;stroke-width:1px;stroke-linecap:butt;stroke-linejoin:miter;stroke-opacity:1"
       d="m 8.09979,34.263713 c 0,0 10.720704,-22.556958 36.822556,-22.233562 26.101853,0.323396 36.788953,22.056462 36.788953,22.056462 0,0 -13.4027,22.826499 -35.669635,22.063515 C 23.774728,55.387143 11.348775,42.573088 8.09979,34.263713 Z"
       id="path831" /><path
       d="m 86.25027,24.873 -5.241,3.026 c -1.218,-1.711 -2.54,-3.327 -3.969,-4.83 l 4.429,-4.428 c 0.977,-0.976 0.977,-2.559 0,-3.535 -0.977,-0.977 -2.559,-0.977 -3.535,0 l -4.552,4.551 c -1.577,-1.322 -3.238,-2.532 -4.979,-3.618 l 3.299,-5.714 c 0.69,-1.196 0.28,-2.725 -0.915,-3.415 -1.193,-0.689 -2.725,-0.281 -3.415,0.915 l -3.356,5.814 c -1.83,-0.872 -3.722,-1.618 -5.664,-2.232 l 1.765,-6.588 c 0.357,-1.333 -0.435,-2.705 -1.768,-3.062 -1.33,-0.353 -2.704,0.434 -3.063,1.768 l -1.778,6.636 c -1.968,-0.385 -3.975,-0.637 -6.008,-0.751 V 2.5 c 0,-1.381 -1.119,-2.5 -2.5,-2.5 -1.381,0 -2.5,1.119 -2.5,2.5 v 6.91 c -2.034,0.114 -4.04,0.366 -6.009,0.751 l -1.778,-6.636 c -0.357,-1.334 -1.731,-2.125 -3.062,-1.768 -1.334,0.357 -2.125,1.728 -1.768,3.062 l 1.766,6.587 c -1.944,0.615 -3.834,1.36 -5.665,2.232 l -3.356,-5.814 c -0.69,-1.196 -2.22,-1.607 -3.415,-0.915 -1.196,0.69 -1.605,2.219 -0.915,3.415 l 3.298,5.713 c -1.74,1.087 -3.402,2.296 -4.979,3.618 l -4.551,-4.551 c -0.976,-0.977 -2.5599996,-0.977 -3.5349996,0 -0.977,0.976 -0.977,2.559 0,3.535 l 4.4279996,4.428 c -1.427,1.503 -2.75,3.119 -3.9679996,4.83 l -5.241,-3.024 c -1.198,-0.693 -2.726,-0.281 -3.41499996,0.915 -0.69,1.196 -0.281,2.725 0.91499996,3.415 l 5.08,2.933 c -0.111,0.2 -0.235,0.391 -0.343,0.593 -0.393,0.736 -0.393,1.621 0,2.356 C 13.70027,49.522 28.64927,58.491 45.00027,58.491 c 16.35,0 31.299,-8.969 39.014,-23.405 0.394,-0.736 0.394,-1.621 0,-2.357 -0.108,-0.202 -0.232,-0.393 -0.343,-0.593 l 5.079,-2.933 c 1.196,-0.69 1.605,-2.219 0.915,-3.415 -0.691,-1.197 -2.222,-1.605 -3.415,-0.915 z m -41.25,28.618 c -14.052,0 -26.937,-7.469 -33.948,-19.584 7.011,-12.114 19.896,-19.582 33.948,-19.582 14.05,0 26.936,7.469 33.948,19.582 -7.012,12.114 -19.897,19.584 -33.948,19.584 z"
       id="path2"
       style="font-variation-settings:normal;opacity:1;vector-effect:none;fill:#4d4d4d;fill-opacity:1;stroke-width:1;stroke-linecap:butt;stroke-linejoin:miter;stroke-miterlimit:4;stroke-dasharray:none;stroke-dashoffset:0;stroke-opacity:1;stop-color:#000000;stop-opacity:1" /><path
       d="m 44.999986,22.277692 c -6.413935,0 -11.631881,5.217231 -11.631881,11.629733 0,6.413935 5.217946,11.631883 11.631881,11.631883 6.413219,0 11.630449,-5.217948 11.630449,-11.631883 0,-6.412502 -5.21723,-11.629733 -11.630449,-11.629733 z"
       id="path4"
       sodipodi:nodetypes="sssss"
       style="fill:#4c4c4c;fill-opacity:1;stroke-width:0.716161" /></g><path
     id="path2-7"
     d="m 14.632022,80.003977 c -0.963096,1.799092 -0.963096,3.963426 0,5.762518 0.263999,0.493765 0.568939,0.957706 0.840271,1.446595 L 3.0544723,94.384011 c -2.9235208,1.686644 -3.92099559,5.421865 -2.23435237,8.345389 1.68909257,2.92597 5.42919777,3.92577 8.34538517,2.23912 L 21.979595,97.568436 c 2.977296,4.182394 6.208199,8.132764 9.701275,11.806714 l -10.827999,10.828 c -2.388198,2.38575 -2.388198,6.25086 0,8.63661 2.38819,2.3882 6.255638,2.3882 8.641386,0 l 11.128782,-11.124 c 3.854842,3.23152 7.913828,6.19205 12.169552,8.84669 l -8.063706,13.96467 c -1.686644,2.92353 -0.686727,6.66352 2.234352,8.35018 2.916187,1.6842 6.663516,0.68439 8.350159,-2.23913 L 63.515555,132.43 c 4.473281,2.13153 9.098265,3.95132 13.845324,5.45219 l -4.31592,16.10355 c -0.872655,3.2584 1.062291,6.61336 4.320694,7.48601 3.25107,0.86288 6.613254,-1.05984 7.490793,-4.32069 l 4.344574,-16.2229 c 4.810605,0.9411 9.716088,1.55943 14.68559,1.8381 v 16.89128 c 0,3.37574 2.7353,6.11104 6.11104,6.11104 3.37573,0 6.11104,-2.7353 6.11104,-6.11104 v -16.89128 c 4.97193,-0.27867 9.87731,-0.897 14.69036,-1.8381 l 4.34456,16.2229 c 0.87266,3.26085 4.23251,5.19336 7.48603,4.32069 3.26085,-0.87265 5.19335,-4.22516 4.32069,-7.48601 l -4.31592,-16.09877 c 4.75195,-1.50332 9.3696,-3.32544 13.84532,-5.45697 l 8.20694,14.21294 c 1.68664,2.92352 5.42431,3.92589 8.34539,2.23436 2.92352,-1.68666 3.92577,-5.42188 2.23911,-8.3454 l -8.0637,-13.96467 c 4.25328,-2.65708 8.31472,-5.61517 12.16956,-8.84669 l 11.124,11.12877 c 2.38575,2.3882 6.25809,2.3882 8.64139,0 2.38819,-2.38574 2.38819,-6.25564 0,-8.64139 L 188.3192,109.37993 c 3.48818,-3.67396 6.72398,-7.61955 9.70127,-11.801946 l 12.80931,7.390536 c 2.92841,1.69398 6.66597,0.6844 8.35017,-2.23912 1.68664,-2.923524 0.68439,-6.658745 -2.23913,-8.345389 L 204.523,87.21309 c 0.27133,-0.488889 0.57627,-0.95283 0.84027,-1.446595 0.96066,-1.799092 0.96066,-3.965875 0,-5.762518 -1.81751,-3.295854 -8.54177,-5.040958 -12.37963,2.878868 -17.1378,29.611645 -48.63707,47.866615 -82.98599,47.866615 -34.344043,0 -65.840982,-18.25741 -82.981225,-47.866615 -4.034611,-7.435829 -10.071232,-6.588357 -12.384403,-2.878868 z"
     sodipodi:nodetypes="cccccccccccccccccccccccsssccccccccccccccccccccccccscc"
     style="fill:#404040;fill-opacity:1;stroke-width:2.44441;opacity:0" /></svg>
