<?xml version="1.0" encoding="UTF-8" standalone="no"?>
<svg
   xmlns:dc="http://purl.org/dc/elements/1.1/"
   xmlns:cc="http://creativecommons.org/ns#"
   xmlns:rdf="http://www.w3.org/1999/02/22-rdf-syntax-ns#"
   xmlns:svg="http://www.w3.org/2000/svg"
   xmlns="http://www.w3.org/2000/svg"
   xmlns:sodipodi="http://sodipodi.sourceforge.net/DTD/sodipodi-0.dtd"
   xmlns:inkscape="http://www.inkscape.org/namespaces/inkscape"
   viewBox="0 0 512 640"
   x="0px"
   y="0px"
   version="1.1"
   id="svg847"
   sodipodi:docname="source.svg"
   inkscape:version="1.0.2 (e86c8708, 2021-01-15)">
  <metadata
     id="metadata853">
    <rdf:RDF>
      <cc:Work
         rdf:about="">
        <dc:format>image/svg+xml</dc:format>
        <dc:type
           rdf:resource="http://purl.org/dc/dcmitype/StillImage" />
      </cc:Work>
    </rdf:RDF>
  </metadata>
  <defs
     id="defs851" />
  <sodipodi:namedview
     pagecolor="#ffffff"
     bordercolor="#666666"
     borderopacity="1"
     objecttolerance="10"
     gridtolerance="10"
     guidetolerance="10"
     inkscape:pageopacity="0"
     inkscape:pageshadow="2"
     inkscape:window-width="1680"
     inkscape:window-height="1022"
     id="namedview849"
     showgrid="false"
     inkscape:zoom="0.21067116"
     inkscape:cx="963.99789"
     inkscape:cy="416.07823"
     inkscape:window-x="0"
     inkscape:window-y="0"
     inkscape:window-maximized="0"
     inkscape:current-layer="svg847"
     inkscape:document-rotation="0" />
  <title
     id="title833">Angry-Emoji-Emotion-Face-Expression-Feeling_1</title>
  <circle
     style="fill:#f1f1f1;fill-opacity:1;stroke:none;stroke-width:8.33063;stroke-miterlimit:4;stroke-dasharray:none;stroke-opacity:1;stop-color:#000000"
     id="path960-7-6"
     cx="1071.5469"
     cy="808.32928"
     r="150"
     inkscape:export-xdpi="160"
     inkscape:export-ydpi="160" />
  <circle
     style="fill:#f1f1f1;fill-opacity:1;stroke:none;stroke-width:8.33063;stroke-miterlimit:4;stroke-dasharray:none;stroke-opacity:1;stop-color:#000000"
     id="path960-7-7"
     cx="256.17273"
     cy="317.00977"
     r="150"
     inkscape:export-xdpi="160"
     inkscape:export-ydpi="160" />
  <circle
     style="fill:#f1f1f1;fill-opacity:1;stroke:none;stroke-width:8.33063;stroke-miterlimit:4;stroke-dasharray:none;stroke-opacity:1;stop-color:#000000"
     id="path960-7"
     cx="999.9657"
     cy="256.3031"
     r="150"
     inkscape:export-xdpi="160"
     inkscape:export-ydpi="160" />
  <circle
     style="fill:#f1f1f1;fill-opacity:1;stroke:none;stroke-width:8.33063;stroke-miterlimit:4;stroke-dasharray:none;stroke-opacity:1;stop-color:#000000"
     id="path960-8"
     cx="1583.3593"
     cy="270.92633"
     r="150"
     inkscape:export-xdpi="160"
     inkscape:export-ydpi="160" />
  <circle
     style="fill:#f1f1f1;fill-opacity:1;stroke:none;stroke-width:8.33063;stroke-miterlimit:4;stroke-dasharray:none;stroke-opacity:1;stop-color:#000000"
     id="path960-1"
     cx="1305.5183"
     cy="-142.17929"
     r="150"
     inkscape:export-xdpi="160"
     inkscape:export-ydpi="160" />
  <circle
     style="fill:#f1f1f1;fill-opacity:1;stroke:none;stroke-width:8.33063;stroke-miterlimit:4;stroke-dasharray:none;stroke-opacity:1;stop-color:#000000"
     id="path960"
     cx="1707.3331"
     cy="-372.8183"
     r="150"
     inkscape:export-xdpi="160"
     inkscape:export-ydpi="160" />
  <g
     id="g958"
     transform="translate(0.172729,-66.847611)"
     inkscape:export-xdpi="160"
     inkscape:export-ydpi="160">
    <path
       d="m 299,420.4 c -0.35,-1.12 -9.13,-27.28 -43,-27.28 -33.87,0 -42.67,26.16 -43,27.28 v 0 a 9.89,9.89 0 0 0 -0.48,3.05 10,10 0 0 0 19.48,3.05 v 0 l -0.05,0.15 c 0.5,-1.38 5.39,-13.53 24,-13.53 18.61,0 23.53,12.15 24,13.53 v -0.15 0 a 10,10 0 0 0 19.52,-3.05 9.89,9.89 0 0 0 -0.48,-3.05 z"
       id="path837" />
    <path
       d="m 205.12,351.39 -38.51,-16.32 a 10,10 0 0 0 -12.74,4.52 31,31 0 1 0 56.86,24.11 10,10 0 0 0 -5.61,-12.31 z"
       id="path839" />
    <path
       d="m 345.39,335.07 -38.51,16.32 a 10,10 0 0 0 -5.61,12.31 31,31 0 1 0 56.86,-24.11 10,10 0 0 0 -12.74,-4.52 z"
       id="path841" />
  </g>
  <g
     id="g953"
     transform="translate(1137.4473,-1339.3091)"
     inkscape:export-xdpi="160"
     inkscape:export-ydpi="160">
    <path
       d="m 612.88587,991.686 c -0.35,-1.12 -9.13,-27.28 -43,-27.28 -33.87,0 -42.67,26.16 -43,27.28 v 0 a 9.89,9.89 0 0 0 -0.48,3.05 10,10 0 0 0 19.48,3.05 v 0 l -0.05,0.15 c 0.5,-1.38 5.39,-13.53 24,-13.53 18.61,0 23.53,12.15 24,13.53 v -0.15 0 a 10,10 0 0 0 19.52,-3.05 9.89,9.89 0 0 0 -0.48,-3.05 z"
       id="path859" />
    <path
       d="m 658.50587,956.286 a 10.00077,10.00077 0 0 0 -3.46,-19.7 c -0.16,0 -15.91,2.61 -23.63,-12.11 a 10.001676,10.001676 0 0 0 -17.71,9.3 c 9.61,18.32 27,23 38.62,23 a 35.92,35.92 0 0 0 6.18,-0.49 z"
       id="path861" />
    <path
       d="m 521.88587,920.286 a 10,10 0 0 0 -13.5,4.2 c -7.73,14.72 -23.48,12.14 -23.64,12.11 a 10.00077,10.00077 0 1 0 -3.46,19.7 35.92,35.92 0 0 0 6.18,0.5 c 11.59,0 29,-4.69 38.62,-23 a 10,10 0 0 0 -4.2,-13.51 z"
       id="path863" />
    <path
       d="m 659.79587,969.006 a 10,10 0 0 0 -7.16,3 c -4.6,4.72 -12.32,13.83 -12.32,21.93 a 19.48,19.48 0 1 0 38.95,0 c 0,-8.1 -7.72,-17.21 -12.32,-21.93 a 10,10 0 0 0 -7.15,-3 z"
       id="path865" />
    <path
       d="m 479.98587,969.006 a 10,10 0 0 0 -7.16,3 c -4.6,4.72 -12.32,13.83 -12.32,21.93 a 19.48,19.48 0 1 0 38.95,0 c 0,-8.1 -7.72,-17.21 -12.32,-21.93 a 10,10 0 0 0 -7.15,-3 z"
       id="path867" />
  </g>
  <g
     id="g946"
     transform="translate(-43.123125,-24.372085)"
     inkscape:export-xdpi="160"
     inkscape:export-ydpi="160">
    <path
       d="m 1054.2716,781.79704 h -1.19 c -5.5229,0 -10,4.47715 -10,10 0,5.52285 4.4771,10 10,10 h 1.19 c 5.5228,0 10,-4.47715 10,-10 0,-5.52285 -4.4772,-10 -10,-10 z"
       id="path925"
       sodipodi:nodetypes="sssssss"
       style="stroke:#000000;stroke-width:8.18268;stroke-miterlimit:4;stroke-dasharray:none;stroke-opacity:1" />
    <path
       d="m 1115.7416,820.33704 a 33.68,33.68 0 1 0 33.68,33.68 33.72,33.72 0 0 0 -33.68,-33.68 z"
       id="path929" />
    <path
       d="m 1176.2584,782.48556 h -1.19 c -5.5228,0 -10,4.47715 -10,10 0,5.52285 4.4772,10 10,10 h 1.19 c 5.5229,0 10,-4.47715 10,-10 0,-5.52285 -4.4771,-10 -10,-10 z"
       id="path925-3"
       sodipodi:nodetypes="sssssss"
       style="stroke:#000000;stroke-width:8.18268;stroke-miterlimit:4;stroke-dasharray:none;stroke-opacity:1" />
  </g>
  <g
     id="g929"
     transform="translate(8.4812529,-19.823219)"
     inkscape:export-xdpi="160"
     inkscape:export-ydpi="160">
    <path
       d="m 1619.768,282.50455 h -89.78 a 10,10 0 0 0 -10,10 54.89,54.89 0 0 0 109.78,0 10,10 0 0 0 -10,-10 z m -15.52,28.83 h -58.74 a 34.79,34.79 0 0 1 -4,-8.83 h 66.84 a 34.79,34.79 0 0 1 -4.1,8.83 z"
       id="path1019" />
    <path
       d="m 1643.268,234.10455 a 27.58,27.58 0 0 0 -27.56,27.55 10,10 0 0 0 20,0 7.56,7.56 0 0 1 15.11,0 10,10 0 0 0 20,0 27.58,27.58 0 0 0 -27.55,-27.55 z"
       id="path1021" />
    <path
       d="m 1534.048,261.65455 a 27.56,27.56 0 0 0 -55.11,0 10,10 0 0 0 20,0 7.56,7.56 0 0 1 15.11,0 10,10 0 0 0 20,0 z"
       id="path1023" />
  </g>
  <g
     id="g941"
     transform="translate(79.750803,-28.984049)"
     inkscape:export-xdpi="160"
     inkscape:export-ydpi="160">
    <path
       d="m 847.97489,213.87215 a 44,44 0 1 0 44,44 44.05,44.05 0 0 0 -44,-44 z m 0,68 a 24,24 0 1 1 24,-24 24,24 0 0 1 -24,24.01 z"
       id="path955" />
    <path
       d="m 847.97489,245.25215 a 12.63,12.63 0 1 0 12.62,12.62 12.64,12.64 0 0 0 -12.62,-12.62 z"
       id="path957" />
    <path
       d="m 992.45489,213.87215 a 44,44 0 1 0 44.00001,44 44.05,44.05 0 0 0 -44.00001,-44 z m 0,68 a 24,24 0 1 1 24.00001,-24 24,24 0 0 1 -24.00001,24.01 z"
       id="path959" />
    <path
       d="m 992.45489,245.25215 a 12.63,12.63 0 1 0 12.62991,12.62 12.63,12.63 0 0 0 -12.62991,-12.62 z"
       id="path961" />
    <path
       d="m 920.21489,288.53246 c -21.2483,0.0268 -38.46795,21.01762 -38.49,46.91928 v 20.24758 c 0,6.73235 5.13605,15.37898 10,12.18999 16.13151,-10.57639 29.68102,-15.74897 57,0 4.99269,2.8782 10,-5.45764 10,-12.18999 v -20.28415 c -0.0386,-25.89689 -17.26558,-46.86932 -38.51,-46.88271 z"
       id="path963"
       sodipodi:nodetypes="ccsssscc"
       style="stroke-width:1.10408" />
  </g>
  <g
     id="g934"
     transform="translate(16.144593,-49.925076)"
     inkscape:export-xdpi="160"
     inkscape:export-ydpi="160">
    <path
       d="m 1237.64,-116.80888 a 10,10 0 0 0 -6,-9.16 l -25.23,-11.06 a 10,10 0 0 0 -8,18.31 l 4.34,1.91 -4.34,1.9 a 10,10 0 0 0 8,18.319999 l 25.25,-11.049999 a 10,10 0 0 0 5.98,-9.17 z"
       id="path894"
       inkscape:export-xdpi="248.33754"
       inkscape:export-ydpi="248.33754" />
    <path
       d="m 1385.22,-131.88888 a 10,10 0 0 0 -13.17,-5.14 l -25.23,11.06 a 10,10 0 0 0 0,18.32 l 25.23,11.059999 a 10,10 0 0 0 8,-18.319999 l -4.34,-1.9 4.34,-1.91 a 10,10 0 0 0 5.17,-13.17 z"
       id="path896"
       inkscape:export-xdpi="248.33754"
       inkscape:export-ydpi="248.33754" />
    <path
       d="m 1342.64,-85.298881 c -8.7,0 -16.72,5.21 -22,14.29 -1.74,3 -3.62,4.33 -4.71,4.33 -1.09,0 -3,-1.34 -4.71,-4.33 -5.28,-9.08 -13.3,-14.29 -22,-14.29 -8.7,0 -16.72,5.21 -22,14.29 -1.74,3 -3.62,4.33 -4.71,4.33 -1.09,0 -3,-1.34 -4.71,-4.33 -5.28,-9.08 -13.3,-14.29 -22,-14.29 -8.7,0 -16.72,5.21 -22,14.29 a 10,10 0 0 0 17.29,10.05 c 1.74,-3 3.62,-4.34 4.71,-4.34 1.09,0 3,1.34 4.71,4.34 5.28,9.08 13.3,14.28 22,14.28 8.7,0 16.72,-5.2 22,-14.28 1.74,-3 3.62,-4.34 4.71,-4.34 1.09,0 3,1.34 4.71,4.34 5.29,9.08 13.29,14.32 22,14.32 8.71,0 16.72,-5.2 22,-14.28 1.74,-3 3.62,-4.34 4.71,-4.34 1.09,0 3,1.34 4.71,4.34 a 10,10 0 1 0 17.29,-10.05 c -5.28,-9.12 -13.3,-14.33 -22,-14.33 z"
       id="path898"
       inkscape:export-xdpi="248.33754"
       inkscape:export-ydpi="248.33754" />
  </g>
</svg>
