# Blender 3.6.0 Alpha
# www.blender.org
mtllib dodeca.mtl.mtl
o dodeca
v -1.300444 -0.411952 -0.508520
v -0.538958 -0.721017 -1.144152
v -1.122191 -0.822129 0.429235
v -1.246736 0.621998 -0.422163
v -0.958316 -0.041683 1.095145
v 0.014620 -0.121917 1.450632
v -1.035289 0.850833 0.568951
v -0.250537 -1.384701 0.373161
v 1.035289 -0.850838 -0.568953
v 0.109922 -1.322211 -0.599243
v 1.246736 -0.622003 0.422163
v 1.300447 0.411947 0.508520
v 0.452051 -0.951949 1.004418
v -0.014620 0.121916 -1.450632
v 0.250539 1.384701 -0.373156
v -0.452051 0.951949 -1.004419
v 0.538957 0.721021 1.144147
v -0.109921 1.322217 0.599245
v 1.122191 0.822124 -0.429234
v 0.958316 0.041677 -1.095144
vn 0.0161 0.3522 -0.9358
vn -0.6142 0.0973 -0.7831
vn -0.0243 -0.2201 -0.9752
vn -0.5791 -0.6651 -0.4715
vn -0.8739 0.4760 -0.0984
vn -0.0863 -0.2555 0.9629
vn -0.3223 -0.5744 0.7525
vn -0.6798 -0.5532 0.4816
vn -0.2513 -0.9021 0.3508
vn -0.0270 -0.2061 0.9782
vn 0.2240 0.9732 0.0524
vn -0.4483 0.8872 -0.1092
vn -0.7332 0.4169 -0.5372
vn -0.9054 0.2438 -0.3475
vn -0.8410 0.3679 0.3966
vn -0.6935 0.6890 0.2107
vn -0.1078 0.9532 0.2825
vn -0.3641 0.7155 -0.5962
vn -0.3144 0.7898 -0.5266
vn -0.5363 -0.8060 -0.2506
vn -0.8236 -0.4680 -0.3205
vn -0.0528 -0.9035 -0.4252
vn -0.1239 -0.9922 0.0121
vn -0.2577 -0.9641 0.0641
vn -0.5200 0.5423 0.6600
vn -0.5359 0.6244 0.5683
vn -0.7392 0.5367 -0.4069
vn -0.7907 0.1527 -0.5928
vn -0.5328 -0.3833 0.7545
vn -0.5442 -0.7142 0.4401
vn -0.9870 -0.1604 -0.0062
vn -0.9621 -0.2263 0.1524
vn -0.7474 -0.2509 -0.6151
vn -0.8450 0.2899 -0.4495
vn -0.1538 0.2850 -0.9461
vn -0.1387 0.0276 -0.9900
vn -0.4267 -0.3050 -0.8514
vn -0.2679 0.4720 0.8399
vn -0.5183 0.8072 0.2826
vn -0.6884 0.7051 0.1701
vn -0.1832 -0.3440 0.9209
vn 0.3720 0.2043 0.9054
vn -0.5979 0.1729 0.7827
vn 0.2523 0.5219 0.8148
vn 0.2552 0.4677 0.8462
vn -0.0947 0.8022 0.5896
vn -0.4146 0.0993 0.9046
vn -0.9225 -0.2690 0.2769
vn -0.4447 -0.8957 0.0032
vn 0.2474 -0.8515 0.4624
vn -0.7600 0.3786 0.5283
vn -0.9043 0.3886 -0.1765
vn -0.9027 0.3952 -0.1698
vn -0.8356 -0.4589 0.3020
vn -0.8265 -0.4455 0.3442
s 0
usemtl None
f 13//1 6//2 17//3 12//4 11//5
f 8//6 13//7 6//8 5//9 3//10
f 10//11 8//12 13//13 11//14 9//15
f 15//12 16//16 4//17 7//18 18//19
f 10//20 8//21 3//22 1//23 2//24
f 20//25 9//26 11//27 12//28 19//29
f 18//20 15//30 19//31 12//32 17//33
f 14//2 2//34 1//35 4//36 16//37
f 2//38 10//39 9//40 20//41 14//42
f 17//38 18//43 7//44 5//45 6//46
f 16//7 14//47 20//48 19//49 15//50
f 1//51 3//52 5//53 7//54 4//55
