# Blender 3.6.0 Alpha
# www.blender.org
o icosa
v 1.352777 -0.009200 -0.307806
v 1.357230 0.041651 -0.284653
v 1.367740 0.034941 -0.230007
v 1.369782 -0.020056 -0.219387
v 1.360535 -0.047337 -0.267470
v 1.356915 0.007745 -0.302759
v 1.358046 -0.022710 -0.296878
v 1.368130 -0.004042 -0.284047
v 1.363663 0.041430 -0.267674
v 1.358542 0.026323 -0.294300
v 1.370086 0.018297 -0.273876
v 1.371798 0.017860 -0.225372
v 1.367502 0.038978 -0.247709
v 1.374703 0.015350 -0.249869
v 1.370078 -0.030392 -0.234314
v 1.372544 -0.002233 -0.221493
v 1.375600 -0.008811 -0.245204
v 1.360880 -0.036643 -0.282141
v 1.366700 -0.040359 -0.251880
v 1.371538 -0.020796 -0.266327
v 0.870454 0.208447 1.060026
v 0.868411 0.263444 1.049407
v 0.825377 0.285038 1.078101
v 0.800821 0.243388 1.106454
v 0.828681 0.196052 1.095284
v 0.873216 0.226270 1.057921
v 0.859619 0.203205 1.073622
v 0.859083 0.227558 1.078254
v 0.857043 0.272576 1.060227
v 0.872470 0.246363 1.054042
v 0.858185 0.251719 1.073589
v 0.818188 0.273601 1.090234
v 0.841320 0.280465 1.070710
v 0.839280 0.261206 1.086194
v 0.810348 0.227929 1.106474
v 0.809217 0.258384 1.100593
v 0.828493 0.242908 1.098650
v 0.844357 0.198677 1.086503
v 0.820526 0.210635 1.102393
v 0.840732 0.222113 1.093743
v 0.435510 0.539835 -1.201543
v 0.431058 0.488985 -1.224696
v 0.378776 0.483300 -1.244084
v 0.350916 0.530636 -1.232914
v 0.385980 0.565577 -1.206622
v 0.436822 0.524507 -1.211190
v 0.421395 0.550721 -1.205004
v 0.416636 0.533632 -1.222329
v 0.415778 0.486581 -1.234208
v 0.435195 0.505930 -1.219648
v 0.414680 0.511293 -1.232501
v 0.369249 0.498758 -1.244104
v 0.396677 0.484504 -1.241292
v 0.391712 0.508795 -1.241018
v 0.361537 0.544211 -1.227202
v 0.359071 0.516052 -1.240023
v 0.379473 0.529591 -1.236111
v 0.403299 0.560125 -1.206860
v 0.374347 0.556976 -1.217596
v 0.394877 0.544941 -1.224561
v 0.675717 1.210778 0.047462
v 0.665208 1.217488 -0.007184
v 0.615678 1.243230 -0.012263
v 0.595575 1.252429 0.039243
v 0.632683 1.232373 0.076155
v 0.675480 1.214815 0.029760
v 0.664348 1.219910 0.058282
v 0.658858 1.231665 0.037151
v 0.651093 1.228373 -0.010645
v 0.671641 1.217267 0.009795
v 0.654241 1.234613 0.013145
v 0.609166 1.249736 0.003389
v 0.632997 1.237778 -0.012501
v 0.632482 1.245921 0.010914
v 0.607641 1.249382 0.052467
v 0.601821 1.253097 0.022206
v 0.623651 1.249963 0.033541
v 0.648626 1.227799 0.068765
v 0.621198 1.242054 0.065952
v 0.639952 1.241152 0.049757
v 0.750599 -1.081937 0.436819
v 0.759846 -1.054657 0.484902
v 0.718073 -1.067053 0.520159
v 0.683009 -1.101994 0.493866
v 0.703111 -1.111193 0.442360
v 0.756764 -1.074960 0.452408
v 0.737347 -1.094309 0.437849
v 0.740605 -1.091012 0.462207
v 0.749011 -1.059899 0.498497
v 0.760142 -1.064993 0.469975
v 0.744667 -1.079028 0.483330
v 0.707452 -1.080628 0.514446
v 0.733749 -1.064427 0.511378
v 0.726316 -1.084473 0.498819
v 0.689521 -1.108500 0.478215
v 0.694642 -1.093393 0.504841
v 0.710912 -1.099823 0.487269
v 0.719997 -1.104997 0.439873
v 0.696865 -1.111861 0.459397
v 0.719743 -1.103865 0.464642
v 0.442060 -0.944522 -0.915019
v 0.404954 -0.924466 -0.951930
v 0.429508 -0.882815 -0.980284
v 0.481790 -0.877129 -0.960895
v 0.489548 -0.915266 -0.920559
v 0.429995 -0.941474 -0.928242
v 0.458947 -0.938326 -0.917505
v 0.449705 -0.931456 -0.939465
v 0.412142 -0.913028 -0.964064
v 0.416438 -0.934147 -0.941728
v 0.433404 -0.922645 -0.955681
v 0.447410 -0.881611 -0.977491
v 0.421113 -0.897811 -0.974423
v 0.444191 -0.904347 -0.968137
v 0.487059 -0.890640 -0.949967
v 0.466511 -0.879533 -0.970407
v 0.467159 -0.901850 -0.959619
v 0.476296 -0.927638 -0.919529
v 0.489893 -0.904573 -0.935230
v 0.470567 -0.918604 -0.941899
v -0.632682 -1.232373 -0.076155
v -0.595575 -1.252429 -0.039243
v -0.615678 -1.243230 0.012263
v -0.665208 -1.217488 0.007184
v -0.675717 -1.210778 -0.047462
v -0.621197 -1.242054 -0.065952
v -0.648625 -1.227799 -0.068765
v -0.639952 -1.241152 -0.049757
v -0.601821 -1.253097 -0.022206
v -0.607641 -1.249382 -0.052467
v -0.623650 -1.249963 -0.033541
v -0.632996 -1.237778 0.012501
v -0.609165 -1.249736 -0.003389
v -0.632482 -1.245921 -0.010914
v -0.671640 -1.217267 -0.009795
v -0.651092 -1.228373 0.010645
v -0.654241 -1.234613 -0.013145
v -0.664348 -1.219910 -0.058282
v -0.675480 -1.214816 -0.029760
v -0.658858 -1.231665 -0.037151
v -0.683009 1.101994 -0.493866
v -0.718073 1.067053 -0.520159
v -0.759846 1.054657 -0.484902
v -0.750599 1.081937 -0.436819
v -0.703111 1.111193 -0.442360
v -0.694642 1.093393 -0.504841
v -0.689521 1.108500 -0.478215
v -0.710912 1.099823 -0.487269
v -0.733749 1.064427 -0.511378
v -0.707452 1.080628 -0.514446
v -0.726316 1.084473 -0.498819
v -0.760142 1.064993 -0.469975
v -0.749011 1.059899 -0.498497
v -0.744667 1.079028 -0.483330
v -0.737347 1.094309 -0.437849
v -0.756764 1.074960 -0.452408
v -0.740605 1.091012 -0.462207
v -0.696865 1.111861 -0.459397
v -0.719997 1.104997 -0.439873
v -0.719743 1.103865 -0.464642
v -0.828680 -0.196052 -1.095284
v -0.800820 -0.243388 -1.106454
v -0.825376 -0.285039 -1.078101
v -0.868411 -0.263444 -1.049407
v -0.870453 -0.208447 -1.060026
v -0.820525 -0.210635 -1.102393
v -0.844356 -0.198677 -1.086503
v -0.840730 -0.222113 -1.093743
v -0.809216 -0.258384 -1.100593
v -0.810347 -0.227929 -1.106474
v -0.828492 -0.242908 -1.098650
v -0.841319 -0.280465 -1.070710
v -0.818187 -0.273601 -1.090234
v -0.839279 -0.261206 -1.086194
v -0.872469 -0.246363 -1.054042
v -0.857042 -0.272576 -1.060227
v -0.858185 -0.251719 -1.073589
v -0.859618 -0.203205 -1.073622
v -0.873215 -0.226270 -1.057921
v -0.859082 -0.227558 -1.078254
v -1.367740 -0.034941 0.230007
v -1.357230 -0.041651 0.284653
v -1.352777 0.009200 0.307806
v -1.360535 0.047337 0.267470
v -1.369782 0.020056 0.219387
v -1.367502 -0.038978 0.247709
v -1.371798 -0.017860 0.225372
v -1.374703 -0.015350 0.249869
v -1.358542 -0.026323 0.294300
v -1.363663 -0.041430 0.267674
v -1.370086 -0.018298 0.273876
v -1.358046 0.022710 0.296878
v -1.356915 -0.007745 0.302759
v -1.368130 0.004042 0.284047
v -1.366700 0.040359 0.251880
v -1.360880 0.036643 0.282141
v -1.371538 0.020796 0.266327
v -1.372544 0.002233 0.221493
v -1.370078 0.030392 0.234314
v -1.375600 0.008811 0.245204
v -0.429508 0.882815 0.980285
v -0.404954 0.924466 0.951931
v -0.442060 0.944522 0.915020
v -0.489548 0.915266 0.920560
v -0.481790 0.877129 0.960896
v -0.421113 0.897811 0.974424
v -0.447410 0.881611 0.977492
v -0.444191 0.904347 0.968137
v -0.416438 0.934147 0.941728
v -0.412142 0.913028 0.964065
v -0.433404 0.922645 0.955682
v -0.458947 0.938326 0.917506
v -0.429995 0.941474 0.928243
v -0.449705 0.931456 0.939466
v -0.489893 0.904573 0.935231
v -0.476296 0.927637 0.919530
v -0.470567 0.918604 0.941900
v -0.466511 0.879533 0.970408
v -0.487059 0.890640 0.949968
v -0.467159 0.901850 0.959620
v -0.350914 -0.530636 1.232914
v -0.378774 -0.483300 1.244084
v -0.431056 -0.488985 1.224696
v -0.435509 -0.539835 1.201543
v -0.385979 -0.565577 1.206622
v -0.359070 -0.516052 1.240023
v -0.361535 -0.544211 1.227202
v -0.379472 -0.529591 1.236111
v -0.396676 -0.484504 1.241292
v -0.369248 -0.498759 1.244105
v -0.391710 -0.508795 1.241018
v -0.435194 -0.505930 1.219649
v -0.415777 -0.486581 1.234208
v -0.414679 -0.511293 1.232501
v -0.421393 -0.550721 1.205004
v -0.436821 -0.524508 1.211190
v -0.416635 -0.533632 1.222329
v -0.374346 -0.556977 1.217596
v -0.403298 -0.560125 1.206860
v -0.394876 -0.544941 1.224561
vn 0.8375 -0.3783 0.3944
vn 0.9371 -0.2093 0.2794
vn 0.8555 -0.1719 0.4883
vn 0.8342 0.4019 0.3776
vn 0.9158 0.3646 0.1686
vn 0.8028 0.5566 0.2139
vn 0.6984 -0.6357 -0.3290
vn 0.8406 -0.4939 -0.2223
vn 0.7410 -0.6629 -0.1073
vn 0.6091 -0.0146 -0.7929
vn 0.7597 -0.0960 -0.6432
vn 0.6174 -0.2378 -0.7499
vn 0.4016 -0.5076 0.7623
vn 0.4197 -0.3013 0.8562
vn 0.2270 -0.4200 0.8787
vn -0.3852 -0.6272 -0.6769
vn -0.1843 -0.7316 -0.6563
vn -0.3537 -0.7819 -0.5133
vn -0.4016 0.5076 -0.7623
vn -0.2270 0.4200 -0.8787
vn -0.4197 0.3013 -0.8562
vn -0.2029 0.9409 0.2712
vn -0.0334 0.9912 0.1281
vn -0.2455 0.9681 0.0495
vn -0.0636 0.0739 0.9952
vn 0.1290 0.1926 0.9727
vn -0.0719 0.2971 0.9521
vn 0.3852 0.6272 0.6769
vn 0.3537 0.7819 0.5133
vn 0.1843 0.7316 0.6563
vn -0.8342 -0.4019 -0.3775
vn -0.8028 -0.5566 -0.2139
vn -0.9158 -0.3646 -0.1686
vn 0.1763 0.8952 -0.4093
vn 0.1388 0.7845 -0.6044
vn -0.0358 0.8721 -0.4879
vn -0.1763 -0.8952 0.4093
vn 0.0358 -0.8721 0.4879
vn -0.1388 -0.7845 0.6044
vn 0.0636 -0.0739 -0.9952
vn 0.0719 -0.2971 -0.9521
vn -0.1290 -0.1926 -0.9728
vn 0.2029 -0.9409 -0.2712
vn 0.2455 -0.9681 -0.0495
vn 0.0334 -0.9912 -0.1281
vn -0.6931 -0.6266 0.3563
vn -0.6556 -0.5159 0.5514
vn -0.8061 -0.4346 0.4016
vn -0.6091 0.0146 0.7929
vn -0.6174 0.2378 0.7498
vn -0.7597 0.0960 0.6432
vn -0.8375 0.3783 -0.3944
vn -0.8555 0.1719 -0.4883
vn -0.9371 0.2093 -0.2794
vn -0.6984 0.6357 0.3290
vn -0.7410 0.6629 0.1073
vn -0.8406 0.4939 0.2223
vn 0.8076 0.0827 -0.5839
vn 0.9247 -0.0388 -0.3787
vn 0.8194 -0.2359 -0.5224
vn 0.8238 0.2678 -0.4996
vn 0.9435 0.1756 -0.2811
vn 0.8061 0.4346 -0.4016
vn 0.8774 0.4258 -0.2211
vn 0.9156 0.4014 -0.0222
vn 0.9878 0.1473 -0.0507
vn 0.9606 0.1805 0.2115
vn 0.9680 -0.0197 0.2502
vn 0.9964 -0.0846 -0.0059
vn 0.9422 -0.3143 0.1160
vn 0.9085 -0.4136 -0.0590
vn 0.9574 -0.1996 -0.2086
vn 0.8477 -0.3747 -0.3756
vn 0.8816 0.0198 0.4717
vn 0.7262 0.0391 0.6864
vn 0.7393 -0.2214 0.6359
vn 0.8741 0.2200 0.4330
vn 0.7176 0.2709 0.6416
vn 0.7127 0.4943 0.4977
vn 0.5561 0.5729 0.6022
vn 0.5362 0.3620 0.7625
vn 0.3141 0.5011 0.8064
vn 0.2247 0.3495 0.9096
vn 0.4327 0.1864 0.8821
vn 0.2366 0.0308 0.9711
vn 0.3380 -0.1415 0.9305
vn 0.5501 -0.0132 0.8350
vn 0.5873 -0.2666 0.7642
vn 0.6556 0.5159 -0.5514
vn 0.6642 0.3540 -0.6584
vn 0.4447 0.4451 -0.7772
vn 0.5028 0.6283 -0.5937
vn 0.6480 0.1689 -0.7426
vn 0.4260 0.2308 -0.8748
vn 0.4449 -0.0335 -0.8950
vn 0.2546 -0.0542 -0.9655
vn 0.2056 0.2068 -0.9565
vn -0.0323 0.0950 -0.9950
vn -0.1337 0.2673 -0.9543
vn 0.0881 0.4064 -0.9094
vn -0.1080 0.5619 -0.8202
vn 0.0197 0.6890 -0.7245
vn 0.2359 0.5537 -0.7986
vn 0.3225 0.7220 -0.6122
vn 0.7958 0.6050 0.0259
vn 0.6133 0.7835 0.0994
vn 0.6794 0.6583 0.3243
vn 0.7576 0.6294 -0.1730
vn 0.5690 0.8118 -0.1309
vn 0.6931 0.6266 -0.3563
vn 0.5426 0.7456 -0.3869
vn 0.3623 0.8393 -0.4054
vn 0.3602 0.9203 -0.1523
vn 0.1130 0.9644 -0.2391
vn 0.0398 0.9979 -0.0517
vn 0.2755 0.9591 0.0648
vn 0.1007 0.9590 0.2649
vn 0.2358 0.8860 0.3993
vn 0.4319 0.8746 0.2204
vn 0.5227 0.7369 0.4287
vn 0.8030 -0.5927 0.0629
vn 0.6274 -0.7594 0.1725
vn 0.5998 -0.7951 -0.0894
vn 0.8366 -0.4934 0.2380
vn 0.6664 -0.6444 0.3752
vn 0.7202 -0.4401 0.5363
vn 0.5681 -0.4852 0.6647
vn 0.4903 -0.6966 0.5238
vn 0.2930 -0.6547 0.6968
vn 0.1654 -0.7819 0.6011
vn 0.3425 -0.8439 0.4129
vn 0.1118 -0.9399 0.3225
vn 0.1850 -0.9734 0.1350
vn 0.4272 -0.8827 0.1958
vn 0.4270 -0.9016 -0.0692
vn 0.0789 -0.9057 -0.4165
vn 0.2859 -0.7925 -0.5387
vn 0.3818 -0.8728 -0.3042
vn -0.0562 -0.8327 -0.5509
vn 0.1295 -0.7080 -0.6943
vn -0.1011 -0.6118 -0.7846
vn -0.0117 -0.4601 -0.8878
vn 0.2330 -0.5324 -0.8138
vn 0.2634 -0.2907 -0.9199
vn 0.4537 -0.2700 -0.8493
vn 0.4534 -0.5084 -0.7321
vn 0.6686 -0.3862 -0.6355
vn 0.6969 -0.5250 -0.4886
vn 0.4861 -0.6692 -0.5620
vn 0.5546 -0.7663 -0.3244
vn -0.2358 -0.8860 -0.3993
vn -0.4319 -0.8746 -0.2204
vn -0.5227 -0.7369 -0.4287
vn -0.1007 -0.9590 -0.2649
vn -0.2755 -0.9591 -0.0648
vn -0.0398 -0.9979 0.0517
vn -0.1130 -0.9644 0.2391
vn -0.3602 -0.9203 0.1523
vn -0.3623 -0.8393 0.4054
vn -0.5426 -0.7456 0.3869
vn -0.5690 -0.8118 0.1309
vn -0.7576 -0.6294 0.1730
vn -0.7958 -0.6050 -0.0259
vn -0.6133 -0.7835 -0.0994
vn -0.6794 -0.6583 -0.3243
vn -0.1654 0.7819 -0.6011
vn -0.3425 0.8439 -0.4130
vn -0.1118 0.9399 -0.3225
vn -0.2930 0.6547 -0.6968
vn -0.4903 0.6966 -0.5238
vn -0.5681 0.4852 -0.6647
vn -0.7202 0.4401 -0.5363
vn -0.6664 0.6444 -0.3752
vn -0.8366 0.4934 -0.2380
vn -0.8030 0.5927 -0.0629
vn -0.6274 0.7594 -0.1725
vn -0.5998 0.7951 0.0894
vn -0.4270 0.9016 0.0692
vn -0.4272 0.8827 -0.1958
vn -0.1850 0.9734 -0.1350
vn -0.3380 0.1415 -0.9305
vn -0.5501 0.0132 -0.8350
vn -0.5873 0.2666 -0.7642
vn -0.2366 -0.0308 -0.9711
vn -0.4327 -0.1864 -0.8821
vn -0.2247 -0.3495 -0.9096
vn -0.3141 -0.5011 -0.8064
vn -0.5362 -0.3620 -0.7625
vn -0.5561 -0.5729 -0.6022
vn -0.7127 -0.4943 -0.4977
vn -0.7176 -0.2709 -0.6416
vn -0.8741 -0.2200 -0.4330
vn -0.8816 -0.0198 -0.4717
vn -0.7262 -0.0391 -0.6864
vn -0.7393 0.2214 -0.6359
vn -0.9156 -0.4014 0.0222
vn -0.9878 -0.1473 0.0507
vn -0.9606 -0.1805 -0.2115
vn -0.8774 -0.4258 0.2211
vn -0.9435 -0.1756 0.2811
vn -0.8238 -0.2678 0.4996
vn -0.8076 -0.0827 0.5839
vn -0.9247 0.0388 0.3787
vn -0.8194 0.2359 0.5224
vn -0.8477 0.3747 0.3756
vn -0.9574 0.1996 0.2086
vn -0.9085 0.4136 0.0590
vn -0.9422 0.3143 -0.1160
vn -0.9964 0.0846 0.0059
vn -0.9680 0.0197 -0.2502
vn 0.0117 0.4602 0.8878
vn -0.2330 0.5324 0.8138
vn -0.2634 0.2907 0.9199
vn 0.1011 0.6118 0.7846
vn -0.1295 0.7080 0.6943
vn 0.0562 0.8327 0.5509
vn -0.0789 0.9057 0.4165
vn -0.2859 0.7925 0.5387
vn -0.3818 0.8728 0.3042
vn -0.5546 0.7663 0.3244
vn -0.4861 0.6692 0.5620
vn -0.6969 0.5250 0.4886
vn -0.6686 0.3862 0.6355
vn -0.4534 0.5084 0.7321
vn -0.4537 0.2700 0.8493
vn 0.1337 -0.2673 0.9543
vn -0.0881 -0.4064 0.9094
vn 0.1080 -0.5619 0.8202
vn 0.0323 -0.0950 0.9950
vn -0.2056 -0.2068 0.9565
vn -0.2546 0.0542 0.9655
vn -0.4449 0.0335 0.8950
vn -0.4260 -0.2308 0.8748
vn -0.6480 -0.1690 0.7426
vn -0.6642 -0.3540 0.6584
vn -0.4447 -0.4451 0.7772
vn -0.5028 -0.6283 0.5937
vn -0.3225 -0.7220 0.6122
vn -0.2359 -0.5537 0.7986
vn -0.0197 -0.6890 0.7245
s 1
f 82//1 4//2 21//3
f 22//4 3//5 61//6
f 105//7 5//8 81//9
f 42//10 1//11 104//12
f 83//13 25//14 221//15
f 163//16 102//17 121//18
f 142//19 44//20 161//21
f 203//22 64//23 145//24
f 222//25 24//26 201//27
f 23//28 65//29 202//30
f 164//31 125//32 181//33
f 63//34 45//35 141//36
f 123//37 84//38 225//39
f 43//40 103//41 162//42
f 101//43 85//44 122//45
f 124//46 224//47 182//48
f 223//49 205//50 183//51
f 143//52 165//53 185//54
f 204//55 144//56 184//57
f 1//11 6//58 8//59 7//60
f 6//58 10//61 11//62 8//59
f 2//63 9//64 11//62 10//61
f 9//64 13//65 14//66 11//62
f 3//5 12//67 14//66 13//65
f 12//67 16//68 17//69 14//66
f 4//2 15//70 17//69 16//68
f 15//70 19//71 20//72 17//69
f 5//8 18//73 20//72 19//71
f 18//73 7//60 8//59 20//72
f 8//59 11//62 14//66 17//69 20//72
f 21//3 26//74 28//75 27//76
f 26//74 30//77 31//78 28//75
f 22//4 29//79 31//78 30//77
f 29//79 33//80 34//81 31//78
f 23//28 32//82 34//81 33//80
f 32//82 36//83 37//84 34//81
f 24//26 35//85 37//84 36//83
f 35//85 39//86 40//87 37//84
f 25//14 38//88 40//87 39//86
f 38//88 27//76 28//75 40//87
f 28//75 31//78 34//81 37//84 40//87
f 41//89 46//90 48//91 47//92
f 46//90 50//93 51//94 48//91
f 42//10 49//95 51//94 50//93
f 49//95 53//96 54//97 51//94
f 43//40 52//98 54//97 53//96
f 52//98 56//99 57//100 54//97
f 44//20 55//101 57//100 56//99
f 55//101 59//102 60//103 57//100
f 45//35 58//104 60//103 59//102
f 58//104 47//92 48//91 60//103
f 48//91 51//94 54//97 57//100 60//103
f 61//6 66//105 68//106 67//107
f 66//105 70//108 71//109 68//106
f 62//110 69//111 71//109 70//108
f 69//111 73//112 74//113 71//109
f 63//34 72//114 74//113 73//112
f 72//114 76//115 77//116 74//113
f 64//23 75//117 77//116 76//115
f 75//117 79//118 80//119 77//116
f 65//29 78//120 80//119 79//118
f 78//120 67//107 68//106 80//119
f 68//106 71//109 74//113 77//116 80//119
f 81//9 86//121 88//122 87//123
f 86//121 90//124 91//125 88//122
f 82//1 89//126 91//125 90//124
f 89//126 93//127 94//128 91//125
f 83//13 92//129 94//128 93//127
f 92//129 96//130 97//131 94//128
f 84//38 95//132 97//131 96//130
f 95//132 99//133 100//134 97//131
f 85//44 98//135 100//134 99//133
f 98//135 87//123 88//122 100//134
f 88//122 91//125 94//128 97//131 100//134
f 101//43 106//136 108//137 107//138
f 106//136 110//139 111//140 108//137
f 102//17 109//141 111//140 110//139
f 109//141 113//142 114//143 111//140
f 103//41 112//144 114//143 113//142
f 112//144 116//145 117//146 114//143
f 104//12 115//147 117//146 116//145
f 115//147 119//148 120//149 117//146
f 105//7 118//150 120//149 119//148
f 118//150 107//138 108//137 120//149
f 108//137 111//140 114//143 117//146 120//149
f 121//18 126//151 128//152 127//153
f 126//151 130//154 131//155 128//152
f 122//45 129//156 131//155 130//154
f 129//156 133//157 134//158 131//155
f 123//37 132//159 134//158 133//157
f 132//159 136//160 137//161 134//158
f 124//46 135//162 137//161 136//160
f 135//162 139//163 140//164 137//161
f 125//32 138//165 140//164 139//163
f 138//165 127//153 128//152 140//164
f 128//152 131//155 134//158 137//161 140//164
f 141//36 146//166 148//167 147//168
f 146//166 150//169 151//170 148//167
f 142//19 149//171 151//170 150//169
f 149//171 153//172 154//173 151//170
f 143//52 152//174 154//173 153//172
f 152//174 156//175 157//176 154//173
f 144//56 155//177 157//176 156//175
f 155//177 159//178 160//179 157//176
f 145//24 158//180 160//179 159//178
f 158//180 147//168 148//167 160//179
f 148//167 151//170 154//173 157//176 160//179
f 161//21 166//181 168//182 167//183
f 166//181 170//184 171//185 168//182
f 162//42 169//186 171//185 170//184
f 169//186 173//187 174//188 171//185
f 163//16 172//189 174//188 173//187
f 172//189 176//190 177//191 174//188
f 164//31 175//192 177//191 176//190
f 175//192 179//193 180//194 177//191
f 165//53 178//195 180//194 179//193
f 178//195 167//183 168//182 180//194
f 168//182 171//185 174//188 177//191 180//194
f 181//33 186//196 188//197 187//198
f 186//196 190//199 191//200 188//197
f 182//48 189//201 191//200 190//199
f 189//201 193//202 194//203 191//200
f 183//51 192//204 194//203 193//202
f 192//204 196//205 197//206 194//203
f 184//57 195//207 197//206 196//205
f 195//207 199//208 200//209 197//206
f 185//54 198//210 200//209 199//208
f 198//210 187//198 188//197 200//209
f 188//197 191//200 194//203 197//206 200//209
f 201//27 206//211 208//212 207//213
f 206//211 210//214 211//215 208//212
f 202//30 209//216 211//215 210//214
f 209//216 213//217 214//218 211//215
f 203//22 212//219 214//218 213//217
f 212//219 216//220 217//221 214//218
f 204//55 215//222 217//221 216//220
f 215//222 219//223 220//224 217//221
f 205//50 218//225 220//224 219//223
f 218//225 207//213 208//212 220//224
f 208//212 211//215 214//218 217//221 220//224
f 221//15 226//226 228//227 227//228
f 226//226 230//229 231//230 228//227
f 222//25 229//231 231//230 230//229
f 229//231 233//232 234//233 231//230
f 223//49 232//234 234//233 233//232
f 232//234 236//235 237//236 234//233
f 224//47 235//237 237//236 236//235
f 235//237 239//238 240//239 237//236
f 225//39 238//240 240//239 239//238
f 238//240 227//228 228//227 240//239
f 228//227 231//230 234//233 237//236 240//239
f 101//43 122//45 130//154 106//136
f 106//136 130//154 126//151 110//139
f 110//139 126//151 121//18 102//17
f 41//89 2//63 10//61 46//90
f 46//90 10//61 6//58 50//93
f 50//93 6//58 1//11 42//10
f 42//10 104//12 116//145 49//95
f 49//95 116//145 112//144 53//96
f 53//96 112//144 103//41 43//40
f 4//2 82//1 90//124 15//70
f 15//70 90//124 86//121 19//71
f 19//71 86//121 81//9 5//8
f 61//6 3//5 13//65 66//105
f 66//105 13//65 9//64 70//108
f 70//108 9//64 2//63 62//110
f 62//110 41//89 47//92 69//111
f 69//111 47//92 58//104 73//112
f 73//112 58//104 45//35 63//34
f 82//1 21//3 27//76 89//126
f 89//126 27//76 38//88 93//127
f 93//127 38//88 25//14 83//13
f 84//38 123//37 133//157 95//132
f 95//132 133//157 129//156 99//133
f 99//133 129//156 122//45 85//44
f 43//40 162//42 170//184 52//98
f 52//98 170//184 166//181 56//99
f 56//99 166//181 161//21 44//20
f 44//20 142//19 150//169 55//101
f 55//101 150//169 146//166 59//102
f 59//102 146//166 141//36 45//35
f 22//4 61//6 67//107 29//79
f 29//79 67//107 78//120 33//80
f 33//80 78//120 65//29 23//28
f 23//28 202//30 210//214 32//82
f 32//82 210//214 206//211 36//83
f 36//83 206//211 201//27 24//26
f 24//26 222//25 230//229 35//85
f 35//85 230//229 226//226 39//86
f 39//86 226//226 221//15 25//14
f 162//42 103//41 113//142 169//186
f 169//186 113//142 109//141 173//187
f 173//187 109//141 102//17 163//16
f 163//16 121//18 127//153 172//189
f 172//189 127//153 138//165 176//190
f 176//190 138//165 125//32 164//31
f 202//30 65//29 79//118 209//216
f 209//216 79//118 75//117 213//217
f 213//217 75//117 64//23 203//22
f 203//22 145//24 159//178 212//219
f 212//219 159//178 155//177 216//220
f 216//220 155//177 144//56 204//55
f 123//37 225//39 239//238 132//159
f 132//159 239//238 235//237 136//160
f 136//160 235//237 224//47 124//46
f 124//46 182//48 190//199 135//162
f 135//162 190//199 186//196 139//163
f 139//163 186//196 181//33 125//32
f 142//19 161//21 167//183 149//171
f 149//171 167//183 178//195 153//172
f 153//172 178//195 165//53 143//52
f 143//52 185//54 199//208 152//174
f 152//174 199//208 195//207 156//175
f 156//175 195//207 184//57 144//56
f 222//25 201//27 207//213 229//231
f 229//231 207//213 218//225 233//232
f 233//232 218//225 205//50 223//49
f 223//49 183//51 193//202 232//234
f 232//234 193//202 189//201 236//235
f 236//235 189//201 182//48 224//47
f 5//8 105//7 119//148 18//73
f 18//73 119//148 115//147 7//60
f 7//60 115//147 104//12 1//11
f 105//7 81//9 87//123 118//150
f 118//150 87//123 98//135 107//138
f 107//138 98//135 85//44 101//43
f 21//3 4//2 16//68 26//74
f 26//74 16//68 12//67 30//77
f 30//77 12//67 3//5 22//4
f 63//34 141//36 147//168 72//114
f 72//114 147//168 158//180 76//115
f 76//115 158//180 145//24 64//23
f 83//13 221//15 227//228 92//129
f 92//129 227//228 238//240 96//130
f 96//130 238//240 225//39 84//38
f 164//31 181//33 187//198 175//192
f 175//192 187//198 198//210 179//193
f 179//193 198//210 185//54 165//53
f 204//55 184//57 196//205 215//222
f 215//222 196//205 192//204 219//223
f 219//223 192//204 183//51 205//50
f 62//110 2//63 41//89
