# Blender 3.6.0 Alpha
# www.blender.org
o tetra
v -0.318035 -1.574611 0.141857
v -0.305157 -1.579693 0.110103
v -0.284320 -1.581412 0.137723
v -0.321041 -1.580031 0.129318
v -0.307162 -1.581177 0.147715
v -0.310259 -1.592767 0.134861
v -0.294013 -1.586365 0.115291
v -0.316470 -1.581835 0.118045
v -0.306279 -1.594338 0.125046
v -0.295193 -1.583591 0.146248
v -0.286615 -1.586976 0.125096
v -0.299838 -1.594869 0.133583
v 0.318035 0.598908 1.463159
v 0.305157 0.629437 1.453052
v 0.284320 0.605709 1.467293
v 0.321041 0.612535 1.462198
v 0.307162 0.596730 1.471684
v 0.310259 0.613477 1.476056
v 0.294013 0.627903 1.461364
v 0.316469 0.623373 1.458610
v 0.306279 0.622913 1.472932
v 0.295193 0.599144 1.473151
v 0.286615 0.619479 1.466420
v 0.299838 0.615579 1.477333
v -1.271827 0.759611 -0.637304
v -1.279786 0.730802 -0.654817
v -1.292663 0.735883 -0.623062
v -1.274393 0.754692 -0.650143
v -1.282971 0.758077 -0.628992
v -1.290975 0.754760 -0.644293
v -1.291098 0.728660 -0.646875
v -1.277219 0.744465 -0.656361
v -1.293435 0.745856 -0.649706
v -1.290368 0.749653 -0.623936
v -1.295670 0.730464 -0.635601
v -1.297415 0.747426 -0.639891
v 1.292663 0.214372 -0.940092
v 1.271827 0.216092 -0.967712
v 1.279786 0.244901 -0.950199
v 1.290368 0.208809 -0.952718
v 1.295670 0.227998 -0.941053
v 1.297415 0.223998 -0.958086
v 1.274393 0.229754 -0.969256
v 1.282971 0.209419 -0.962524
v 1.290975 0.224529 -0.966623
v 1.291098 0.238837 -0.944641
v 1.277219 0.239982 -0.963039
v 1.293435 0.233434 -0.961210
vn -0.3399 -0.2463 -0.9076
vn -0.0010 -0.3147 -0.9492
vn -0.2104 -0.5532 -0.8060
vn 0.2104 0.9702 0.1200
vn 0.3399 0.9191 -0.1992
vn 0.0010 0.9875 -0.1576
vn 0.6819 -0.6269 0.3769
vn 0.8914 -0.3883 0.2337
vn 0.7619 -0.3373 0.5529
vn -0.7619 -0.3356 0.5539
vn -0.8560 -0.5080 0.0958
vn -0.4944 -0.8071 0.3228
vn -0.3588 -0.5490 0.7549
vn -0.6095 -0.6052 -0.5120
vn -0.2258 -0.9130 -0.3396
vn 0.1950 -0.7675 -0.6106
vn 0.5938 -0.8005 -0.0820
vn 0.2088 -0.9489 0.2365
vn 0.2865 -0.6792 0.6757
vn 0.8560 0.1488 0.4951
vn 0.4944 0.0850 0.8650
vn 0.3588 -0.4174 0.8349
vn 0.6095 0.7331 0.3016
vn 0.2258 0.7218 0.6542
vn -0.1950 0.8954 0.4003
vn -0.5938 0.4413 0.6729
vn -0.2088 0.2268 0.9513
vn -0.6819 -0.0460 0.7300
vn -0.2865 -0.2872 0.9140
vn -0.0770 0.7898 -0.6085
vn -0.5220 0.7835 -0.3371
vn -0.3843 0.9111 0.1492
vn -0.2294 0.2384 -0.9437
vn -0.6880 0.1826 -0.7024
vn -0.7266 -0.3278 -0.6039
vn -0.9731 -0.2305 0.0039
vn -0.9566 0.2886 -0.0400
vn -0.8914 -0.0287 0.4523
vn -0.7831 0.4569 0.4218
vn 0.7831 -0.5848 -0.2114
vn 0.9566 -0.0974 -0.2746
vn 0.9731 0.1026 0.2065
vn 0.3843 -0.5519 -0.7401
vn 0.5220 -0.0615 -0.8507
vn 0.0770 0.1766 -0.9813
vn 0.2294 0.7280 -0.6461
vn 0.6880 0.5395 -0.4854
vn 0.7266 0.6870 0.0130
s 1
f 26//1 38//2 2//3
f 14//4 39//5 25//6
f 3//7 37//8 13//9
f 1//10 4//11 6//12 5//13
f 4//11 8//14 9//15 6//12
f 2//3 7//16 9//15 8//14
f 7//16 11//17 12//18 9//15
f 3//7 10//19 12//18 11//17
f 10//19 5//13 6//12 12//18
f 6//12 9//15 12//18
f 13//9 16//20 18//21 17//22
f 16//20 20//23 21//24 18//21
f 14//4 19//25 21//24 20//23
f 19//25 23//26 24//27 21//24
f 15//28 22//29 24//27 23//26
f 22//29 17//22 18//21 24//27
f 18//21 21//24 24//27
f 25//6 28//30 30//31 29//32
f 28//30 32//33 33//34 30//31
f 26//1 31//35 33//34 32//33
f 31//35 35//36 36//37 33//34
f 27//38 34//39 36//37 35//36
f 34//39 29//32 30//31 36//37
f 30//31 33//34 36//37
f 37//8 40//40 42//41 41//42
f 40//40 44//43 45//44 42//41
f 38//2 43//45 45//44 44//43
f 43//45 47//46 48//47 45//44
f 39//5 46//48 48//47 47//46
f 46//48 41//42 42//41 48//47
f 42//41 45//44 48//47
f 3//7 13//9 17//22 10//19
f 10//19 17//22 22//29 5//13
f 5//13 22//29 15//28 1//10
f 2//3 38//2 44//43 7//16
f 7//16 44//43 40//40 11//17
f 11//17 40//40 37//8 3//7
f 38//2 26//1 32//33 43//45
f 43//45 32//33 28//30 47//46
f 47//46 28//30 25//6 39//5
f 26//1 2//3 8//14 31//35
f 31//35 8//14 4//11 35//36
f 35//36 4//11 1//10 27//38
f 14//4 25//6 29//32 19//25
f 19//25 29//32 34//39 23//26
f 23//26 34//39 27//38 15//28
f 39//5 14//4 20//23 46//48
f 46//48 20//23 16//20 41//42
f 41//42 16//20 13//9 37//8
f 1//10 15//28 27//38
