<?xml version="1.0" encoding="UTF-8" standalone="no"?>
<!DOCTYPE svg PUBLIC "-//W3C//DTD SVG 1.1//EN" "http://www.w3.org/Graphics/SVG/1.1/DTD/svg11.dtd">
<svg width="100%" height="100%" viewBox="0 0 1080 1080" version="1.1" xmlns="http://www.w3.org/2000/svg" xmlns:xlink="http://www.w3.org/1999/xlink" xml:space="preserve" xmlns:serif="http://www.serif.com/" style="fill-rule:evenodd;clip-rule:evenodd;stroke-linejoin:round;stroke-miterlimit:2;">
    <path d="M370,905C356.349,908.382 334.333,903.833 328,901C321.668,898.167 314,892 311,889C304,880 301,866 303,851C304,839 309,827 321,802C338,767 341,757 344,726C345,720 343,695 341,686C339,675 334,658 332,650C330,647 328,641 327,639C326,636 322,627 319,619C290,558 287,550 283,521C282,515 282,496 283,488C284,479 285,476 290,460C294,445 298,434 301,428C305,419 309,399 309,386C310,378 308,356 305,333C304,317 304,304 307,294C318.627,262.994 353.061,258.188 382,265C386,265 394,267 399,268C404,268 414,270 422,271C441,275 468,276 489,275C507,274 533,271 542,270C591,262 632,262 665,269C689,274 719,286 736,296C743.101,301.325 750.656,306.016 758,311C759.989,312.35 761.72,314.24 764,315C766,317 774,324 780,330C807,356 822,384 827,414C828,425 828,428 827,437C826,448 823,458 818,470C815,476 808,488 792,511C773,538 768,557 773,579C775,588 781,609 785,618C797.979,646.554 805.164,681.957 798,713C787.982,749.734 764.363,779.085 732,799C699,819 658,829 600,832C564,834 559,834 545,836C529,837 529,837 515,840C506,842 494,846 488,848C477,853 454,865 441,873C411,892 388.833,900.333 370,905ZM386,866C395,864 410,857 428,848C445,839 458,834 474,830C503,822 512,821 590,819C625,819 637,818 660,814C685,809 715,797 733,783C737,780 745,774 750,769C762,756 767,749 776,727C778,724 780,712 782,705C782,701 782,679 781,675C779,661 775,648 770,636C768,629 767,628 757,607C754,599 742,571 741,566C738,550 739,540 745,528C748,523 769,493 773,489C786,472 796,454 801,437C803,427 803,408 800,397C797,385 792,375 786,364C778,352 777,350 767,339C742,314 706,293 670,284C627,274 590,277 501,297C455.209,306.158 455.134,304.867 409.39,314.927C395.245,318.038 379.895,324.21 373,338C369,348 363,363 359,373C353,392 332,435 329,441C321.63,455.003 314.099,469.709 309,484.75C294.312,528.075 314.341,573.004 332,612C348,647 354,664 361,690C365,707 367,738 365,758C364,771 359,790 352,811C350,815 348.476,824.288 347,831C341.833,854.5 346.969,866.934 363,868C367,869 379,868 386,866ZM575,802C498,796 485,796 460,792C447.592,790.015 433.733,787.034 425,778C415.333,768 409,755 402,732C400,725 396,713 394,706C389,690 380,662 377,655C373,645 368,631 365,624C347.783,584.326 324.131,536.851 346,494C351.735,482.762 383,442 385,440C387,437 392,431 396,427C400,422 406,416 409,412C423,395 445.333,372.333 467,357C488.667,341.667 517,328 539,320C559,313 578,307 592,305C614,301 629,300 646,303C686,308 719,325 743,354C756,370 763,387 764,404C764,416 763,424 759,434C755,445 735,471 731,475C719,488 706,503 701,510C694,522 691,537 694,551C695,555 703,573 707,578C708,580 709,582 710,584C713,587 717,593 727,609C742,631 748,643 753,659C755,663 757,669 757,671C758,672 758,681 759,690C759,705 759,707 757,715C748.194,749.424 719.557,774.892 687.681,788.951C670.745,796.42 656.398,798.7 638,801C630,802 589,803 575,802ZM587,792C611.983,794.201 656.219,789.162 662,786C691,778 706,770 721,754C743,732 751,702 743,672C737,648 726,630 698,597C673,568 664,555 660,544C657,535 656,523 659,515C664,501 666,498 700,467C707,461 728,436 732,427C735,418 735,416 736,407C736,394 735,387 731,378C719,352 694,332 662,323C626,314 591,320 548,341C529.733,350.742 530.329,351.359 513,363C510.038,364.989 504.75,367.499 503,371C499,373 474,397 468,404C459,414 433,440 427,444C407,462 388,481 380,492C374.44,494.974 362.391,517.91 363,525C362,527 362,535 361,542C361,579.31 380.286,615.985 394,649C396,655 401,666 403,674C417.483,711.818 429.711,751.538 469,769C491,779 554.833,789.167 587,792ZM598,777C596,777 590,777 585,776C565,774 532,766 513,758C494,751 475,739 466,729C453,715 443,698 432,670C414,624 404,591 403,570C402,554 407,536 415,527C417,525 420,522 422,520C423,518 452,498 456,496C463,492 495,478 504,472C519.883,465.869 529.253,445.373 536.873,432.407C548.757,412.184 558.617,389.537 578,375C598.773,358.381 635.52,346.654 660,363C666,365 677,376 680,382C684,392 684,403 680,412C678.03,418.125 660.027,436.03 655,439C641.965,448.776 619.727,459.684 606.168,468.597C595.257,475.769 583.213,483.82 582,498C581.641,502.199 583.865,509.551 585.25,513.375C587.09,518.455 589.431,523.836 593,528C624.489,572.984 676.865,597.506 709,642C714,650 721,664 724,673C727.856,686.497 727.944,704.816 723,718C712,748 683,769 642,776C633,777 605,778 598,777ZM632,767C651,765 659,763 672,757C695,746 709,730 713,709C718,689 712,666 696,645C685,631 664,612 644,598C628.811,587.874 628.826,588.106 612,578C611,578 595,569 576,557C550,542 526,534 506,533C492.873,531.687 484.446,534.684 472,538C469.266,538.729 465.126,539.874 463,542C457,544 446,553 443,558C434,570 431,593 436,615C443,650 455,683 468,703C483,724 498,736 525,749C542,757 572,765 591,767C597,768 603,768 603,768C604,770 620,769 632,767ZM610,729C585.151,726.839 561.917,715.893 546.281,696.141C543.735,692.924 541.766,689.223 540.258,685.409C538.63,681.291 537.388,676.95 536.952,672.544C535.077,653.614 547.343,641.647 565,637C594.391,629.652 631.773,643.088 652,665C655,668 659,674 661,678C665.018,687.376 665.645,698.71 661,708C654,721 640,728 620,729L610,729Z" style="fill:rgb(6,6,6);fill-rule:nonzero;"/>
</svg>
