<?xml version="1.0" encoding="UTF-8" standalone="no"?>
<!DOCTYPE svg PUBLIC "-//W3C//DTD SVG 1.1//EN" "http://www.w3.org/Graphics/SVG/1.1/DTD/svg11.dtd">
<svg width="100%" height="100%" viewBox="0 0 1080 1080" version="1.1" xmlns="http://www.w3.org/2000/svg" xmlns:xlink="http://www.w3.org/1999/xlink" xml:space="preserve" xmlns:serif="http://www.serif.com/" style="fill-rule:evenodd;clip-rule:evenodd;stroke-linejoin:round;stroke-miterlimit:2;">
    <path d="M572,889C565,886.833 555,882 550,878C544,873 536,865 528,856C524,851 516.781,843.893 504,830C496,821 487,811 484,809C471.503,796.503 457.486,785.486 445,773C429,760 403,740 359,709C318,680 300.499,668.317 283,642C254.212,598.705 239,545 237,541C226,507 222,490 223,473C224,455 227,447 236,428C238,423 263,376 274,357C298,315 318,290 348,266C382,238 413,226 441,229C455,231 460,232 481,242C487.304,244.101 497.122,251.561 502,254C520,266 545,286 563,306C572,315 588,333 589,337C590,338 594,343 598,349C602,354 607,361 609,364C620.759,379.678 644.971,403.9 671,412C691.383,418.343 726,430 740,439C769,457 796,479 817,512C826.071,525.391 833.878,540.406 838.875,555.875C840.847,561.981 842.033,568.356 842.734,574.734C847.192,615.241 810.059,642.901 783,666C749,695 725,719 705,746C698,756 686,775 682,782C681,784 679,787 678,789C675,793 666,812 658,827C648.942,844.42 637.169,864.675 620.792,877.806C612.467,884.481 600.329,890.514 592,891C583.47,891.498 578.4,890.981 572,889ZM599,857C617,850 629,837 653,799C668,776 669,775 680,757C702,725 725,699 766,662C805,626 817,611 822,590C831.395,546.155 790,505.333 757,478C749.644,471.908 718.006,454.463 686,452C661.684,450.129 640,444 625,433C614,425 597,403 586,382C567,347 549,321 528,300C492,266 454,249 422,254C410,256 401,259 392,263C378.917,268.233 373.815,272.132 360,282C332,303 311,330 293,368C271,411 262,438 259,469C258,481 258,504 260,516C269,563 270,570 276,589C280,600 288,619 290,622C293.073,625.073 294.57,629.397 297,633C302.534,641.205 308.106,649.119 315.219,656.078C336.779,677.173 349.7,688.132 374,706C435,751 475,783 493,800C493,800 498,804 503,809C508,813 516,820 520,824C540,840 547,846 560,852C574,859 587,861 599,857ZM563,814C543.06,809.727 525.633,798.116 509,787C484.322,770.507 466.639,756.921 443,739C389.925,698.765 330.496,657.13 306.105,592.119C295.846,564.776 296.008,534.798 295.625,506.125C294.705,437.335 313.985,364.61 365.03,315.816C385.284,296.454 415.101,279.697 444.018,287.652C490.211,300.359 525.995,336.134 549,377C566.649,408.352 578.362,448.569 610,470C642.336,491.904 683.558,487.416 720,496C743.646,501.57 763.643,517.48 777.971,536.623C781.344,541.131 787.117,552.119 788.5,557.625C798.307,596.673 766.339,629.395 742,655C731.082,666.486 719.703,677.533 708.933,689.158C698.697,700.205 688.507,711.32 679,723C664.428,740.903 651.202,759.871 636.734,777.859C619.594,799.172 592.632,822.466 563,814ZM587,791C609.549,785.363 628.11,763.494 642,747C647,741 654,733 658,728C661,724 667,717 670,713C673,710 680,701 686,695C692,688 699,679 703,675C706,671 713,664 717,660C721,655 729,647 733,641C738,635 743,630 743,630C746,628 757,610 760,604C771.164,579.44 767.219,556.219 748,537C732.812,522.824 711.773,518.474 692.042,515.031C656.446,508.818 615.569,505.835 589,478C577,466 567,450 548,411C527,370 516,353 498,336C462,301 419,298 380,327C372,333 368,336 360,346C340,370 327,401 319,449C313,478 313,537 319,566C323,591 325,597 332,613C335,620 342,631 347,640C353,647 371,668 376,672C378,674 382,678 386,681C398,692 441,727 461,741C475,750 502,768 509,772C526,782 546,790 556,792C565,794 580,793 587,791ZM546,764C524,759 501,749 469,727C446,712 435,703 415,685C366,643 346,608 340,554C334,492 342,428 362,389C371,372 381.096,361.379 394,351C409.333,338.667 434.667,332.501 454,339C473.833,345.667 494,362 513,391C519.735,404.469 527.066,417.632 534,431C545.103,452.405 554.981,474.885 570,494C589,518 610,530 647,539C656,541 666,544 671,544C681,546 695,550 700,553C708,557 709,558 715,563C735,582 728,610 689,658C680,668 676,673 671,680C644,713 619,740 606,749C587,763 567,768 546,764ZM576,746C601.674,737.784 620.99,717.752 637.734,697.625C646.963,686.532 656.534,675.686 665,664C672.649,653.441 679.463,642.281 686,631C688.068,627.431 689.363,623.458 690.744,619.571C693.763,611.068 695.056,606.322 694.381,597.218C693.662,587.535 685.619,580.263 678.395,574.975C662.268,563.169 642.001,559.422 623.75,552.5C599.799,543.417 577.665,528.469 562,508C556.999,501.466 552.332,494.644 548.25,487.5C541.649,475.948 536.084,463.833 530,452C524.001,440.333 518.418,428.442 512,417C495.526,387.632 468.419,350.423 429.625,356.344C424.167,357.177 418.779,358.647 413.625,360.625C374.613,375.598 363.563,421.578 356.9,458.167C355.281,467.059 354.047,476.023 353,485C346.531,540.439 355.193,601.556 391.137,646.155C412.769,672.995 440.586,693.536 468,714C487.268,728.383 509.595,738.855 533.106,744.006C546.97,747.043 561.932,750.02 576,746ZM519,680C443.768,670.596 410.813,586.553 407.231,520.861C406.041,499.045 410.149,476.41 422.24,457.876C426.227,451.766 432.919,444.05 441.187,444.158C469.233,444.524 481.41,475.231 492.405,495.913C498.485,507.349 504.184,519.003 510.802,530.136C517.419,541.27 524.529,552.123 532.071,562.652C546.376,582.618 565.525,600.716 574.329,624.326C586.407,656.719 548.624,684.557 519,680Z" style="fill:rgb(6,6,6);fill-rule:nonzero;"/>
</svg>
