<?xml version="1.0" encoding="UTF-8" standalone="no"?>
<!DOCTYPE svg PUBLIC "-//W3C//DTD SVG 1.1//EN" "http://www.w3.org/Graphics/SVG/1.1/DTD/svg11.dtd">
<svg width="100%" height="100%" viewBox="0 0 1080 1080" version="1.1" xmlns="http://www.w3.org/2000/svg" xmlns:xlink="http://www.w3.org/1999/xlink" xml:space="preserve" xmlns:serif="http://www.serif.com/" style="fill-rule:evenodd;clip-rule:evenodd;stroke-linejoin:round;stroke-miterlimit:2;">
    <path d="M607,907C596,904 584,893 558,864C540,843 532,835 518,825C501,813 494,809 471,799C463,796 441,789 425,784C378,771 354,756 338,730C332,719 329,711 318,678C310,654 299,629 293,618C282,598 277,591 250,551C234,527 226,514 221,499C215,484 214,473 214,459C215,444 217,438 223,425C229,412 237,400 249,389C271,366 291,352 361,310C394,290 481,223 528,223C565,223 599.68,231 643,288C672.925,327.375 692.821,371.665 722.736,405.975C768.795,458.801 806.789,482.663 829,536C835.006,550.423 837,569 838,582C840,595 838,615 836,622C829,643 824,652 810,669C797,686 781,702 751,731C728,752 703,779 700,782C689,796 677,816 661,850C655,864 647,879 644,883C633,903 621,910 607,907ZM608,873C624.333,872.833 639,857 648,839C650,835 670,802 674,796C687,775 694,767 747,715C786,677 802,655 811,625C814,604 813,589 810,574C803.787,529.488 761.69,494.138 727,471C664,435 654.353,388 651,369C648,352 645,342 638,329C621,297 595,270 568,256C533,239 503,241 460,265C453,269 404,298 394,304C305,356 289,367 266,389C239,416 228,440 229,468C230,487 236,503 250,527C255,535 265.263,551.525 274,563C310.167,610.5 332,672 335,680C341,697 351,716 356,724C374,747 394,759 443,773C472,782 489,788 507,797C527,808 543,820 566,842C591,869 604.52,873.036 608,873ZM619,809C612,812 601.5,811 593,809C584.5,807 554,790 552,789C550,787 500,765 472,756C434,744 422,740 405,730C396,724 385,714 378,706C374,700 360,676 350,655C343,637 329,609 322,598C316,588 312,581 289,547C268,516 260,501 256,482C246,438 273,399 340,358C349,352 366,342 380,334C395,325 431,306 450,296C481,281 493,277 511,275C524,274 538.333,276.833 549,282C559.615,287.142 570.56,298.894 575,306C583.671,319.877 590,339 588,369C585,407 587,421 597,442C604,457 630,481 657,497C661,499 689,516 692,517C719,532 733,543 747,558C757,570 766,590 768,607C774,644 757,677 705,726C679,751 667,762 652,780C634,799 626,806 619,809ZM614,773C621.987,771.527 636,761 644,756C666,739 699,709 712,695C733,669 742,646 740,623C736,592 718,566 680,539C677,537 669,531 662,526C650,518 634,507 622,499C605,487 588,471 579,461C576,456 568,441 566,436C560,420 558,409 557,372C556,341 555,337 548,323C543,313 529,302 517,300C495,297 470,304 424,326C414,331 407,334 384,347C381,348 371,354 362,360C302,396 277,423 273,457C271,473 274,489 283,507C290,521 291,523 311,553C337,593 344,605 363,644C375,671 381,680 389,691C408,715 428,726 484,742C504,749 537,759 550,763C565,768 592.695,776.928 614,773ZM562,733C506,727 452,711 427,692C416,684 403,670 396,659C393,654 383,635 374,617C355,579 357,583 336,548C312,508 306,493 304,476C302,457 305,446 318,427C326,415 348,395 372,380C398,363 430,349 453,343C464,341 484,341 490,343C497,347 498,347 503,352C512,360 516,372 523,404C528,427 536,449 544,460C560,482 569,491 611,522C641,544 653,553 668,570C706,610 709,650 679,686C670,697 647,714 632,721C611,731 585,735 562,733ZM584,714C598.587,712.523 612.799,709.958 624,703C646,689.333 661.5,678.333 668,660C674.5,641.667 675,614 661,591C646,568 631,554 579,515C560,501 556,498 546,488C529,471 519,456 510,435C507,427 504,419 504,417C499,401 489,383 482,377C478,373 467,368 461,368C452,367 438,368 428,372C411,377 381,394 367,406C357,414.571 345,425 338,437C331,449 328,458 328,471C328,488 332,503 347,531C351,539 364,566 377,590C401,638 401,638 409,649C426,675 447,690 481,701C496,706 516,710 532,713C546,714 568.655,715.554 584,714ZM529,690C489,686 454,671 434,647C416,626 402,596 381,538C362,483 365,457 395,429C402,423 416,415 424,413C437,410 452,413 462,422C466,426 478,441 480,446C482,449 489,460 498,471C512,489 529,503 568,530C609,560 630,583 639,609C641,617 641,636 638,643C629,666 606,682 572,689C562,690 542,691 529,690ZM571,674C597,667 616,651 621,632C625,614 618,593 599,573C586,558 574,548 541,526C509,505 493,493 480,481C470,472 454,452 434,454C424,455 408.1,458 400,485C398,493 398.037,500.03 398,508C397.93,523.277 402.313,545 412,576C431,636 458,663 510,674C523,677 524,677 544,677C558,676 562,676 571,674ZM524,652C509,650 494,646 485,640C469,630 459,620 452,605C435,570 441,534 463,528C476,525 497,530 522,542C572,568 597,600 585,627C581,637 566,647 553,650C537,653 532,653 524,652Z" style="fill:rgb(6,6,6);fill-rule:nonzero;"/>
</svg>
