<?xml version="1.0" encoding="UTF-8" standalone="no"?>
<!DOCTYPE svg PUBLIC "-//W3C//DTD SVG 1.1//EN" "http://www.w3.org/Graphics/SVG/1.1/DTD/svg11.dtd">
<svg width="100%" height="100%" viewBox="0 0 1080 1080" version="1.1" xmlns="http://www.w3.org/2000/svg" xmlns:xlink="http://www.w3.org/1999/xlink" xml:space="preserve" xmlns:serif="http://www.serif.com/" style="fill-rule:evenodd;clip-rule:evenodd;stroke-linejoin:round;stroke-miterlimit:2;">
    <path d="M470,848C456,847 421,847 392,847C333,848 335,848 319,840C312,837 309,835 304,829C296,821 289,808 286,796C284,787 282,758 282,730C282,684 276,629 268,599C268,596 266,587 264,580C256,535 257,508 268,470C270,464 272,453 274,446C276,438 279,429 280,426C281,422 284,413 286,404C297,360 300,348 305,333C320,284 337,259 365,246C386,237 417,237 446,247C465,253 471,256 515,277C555,296 555,296 587,310C591,312 596,314 599,315C601,316 607,319 612,321C623,325 647,336 657,341C666,345 696,362 719,375C724,378 734,384 740,387C796,419 808,428 818,445C829,464 830,487 822,532C820,548 811,591 808,601C808,604 806,611 804,616C798,643 787,669 774,688C762,705 742,727 725,743C692,771 660,796 641,809C604,834 568,846 524,848L470,848ZM556,833C593,827 618,815 656,787C661,783 666,779 668,778C680,768 711,742 723,732C734,722 750,704 758,694C765,684 774,669 778,661C791,631 798,606 805,563C812,524 813,505 811,489C807,456 792,437 744,407C691,372 643,346 608,332C574,319 545,306 501,285C469,270 450,262 435,258C428,256 409,253 402,253C389,253 374,257 362,264C339,278 320,312 306,364C304,371 303,377 302,379C301,380 299,391 296,402C292,414 288,433 284,444C267,510 265,529 274,581C276,589 278,598 279,602C283,619 288,656 293,693C298,743 302,763 310,779C321,803 343,815 380,820C384,821 390,822 392,822C399,824 459,831 480,833C487,834 494,834 497,834C506,835 547,834 556,833ZM512,816C476,814 412,800 383,789C355,777 342,768 331,750C324,737 321,732 318,721C313,702 311,696 307,677C306,666 303,652 302,648C301,643 298,629 296,617C294,605 291,593 291,589C283,559 282,519 288,491C294,460 318,371 325,355C325,353 327,348 329,344C333,333 342,316 348,308C368,281 394,272 429,279C440,281 465,290 484,298C523,315 534,320 552,328C563,332 572,336 573,336C573,336 602,348 618,355C660,373 703,399 742,431C760,445 772,458 779,471C784,480 788,495 790,505C792,522 791,555 787,580C785,592 778,619 776,626C775,628 773,635 771,639C759,672 735,704 700,735C659,769 623,794 596,804C573,814 545,818 512,816ZM564,802C589,797 607,789 633,773C639,769 646,765 647,764C648,763 655,758 663,752C726,705 756,666 769,613C781,565 782,521 771,492C762,465 738,440 692,408C658,385 618,365 565,345C559,342 551,339 549,338C546,337 537,333 527,329C517,325 505,320 499,317C455,299 433,293 413,293C372,293 348,318 326,383C315,414 300,474 297,496C294,512 294,516 294,533C294,553 296,569 302,597C304,609 307,624 308,631C317,674 326,705 335,723C343,739 357,755 372,764C392,776 430,790 467,796C474,798 483,799 486,800C490,801 502,802 512,803C521,804 556,803 564,802ZM504,783C476,780 435,769 412,759C404,756 387,746 381,742C367,731 356,718 348,703C344,696 336,678 333,668C328,650 317,601 312,576C308,550 307,522 310,500C316,467 328,421 339,393C352,359 368,336 386,326C398,319 406,317 422,318C447,318 466,323 539,351C545,353 552,356 556,358C560,359 565,361 567,362C569,363 576,366 582,368C616,381 643,395 672,414C710,440 737,468 749,492C754,504 755,506 757,514C762,537 763,567 757,597C752,630 737,662 715,687C691,715 647,749 611,767C595,775 576,781 560,783C548,785 518,785 504,783ZM559,771C594,765 632,747 672,714C717,679 739,642 748,593C750,579 751,551 749,537C743,499 726,471 689,441C664,419 635,401 605,388C579,376 510,352 479,342C445,332 421,330 402,337C385,343 372,355 360,374C349,392 335,430 327,464C315,519 315,547 329,607C339,654 349,682 363,702C385,734 422,754 484,767C507,772 538,773 559,771ZM503,749C488,748 478,746 463,741C411,727 380,702 361,659C354,641 345,613 340,588C331,543 332,516 341,471C344,457 352,432 356,422C366,400 373,388 385,376C393,368 402,363 414,359C424,356 441,355 459,357C484,361 546,380 592,399C646,421 696,461 717,499C727,518 732,535 733,557C734,577 733,591 728,607C723,629 716,643 703,662C677,697 622,734 577,746C556,751 527,752 503,749ZM551,734C574,732 590,727 611,718C645,704 676,679 695,653C706,638 716,616 720,597C722,585 723,559 721,548C714,508 691,474 649,442C628,426 602,413 572,402C566,400 559,397 556,396C546,392 505,380 489,377C465,371 458,371 443,371C427,372 419,374 408,379C377,395 356,434 346,499C342,529 346,573 357,611C371,657 385,681 410,700C444,727 502,741 551,734ZM500,699C462,695 436,684 415,663C394,642 379,607 371,562C369,551 369,546 369,525C369,502 369,500 371,487C375,471 378,462 383,449C389,437 394,430 403,421C412,413 423,407 435,404C442,402 445,402 463,402C487,402 495,403 527,411C571,423 604,437 631,456C645,467 667,489 675,501C690,524 697,545 697,570C697,611 677,645 640,667C621,679 587,690 555,695C536,698 509,700 500,699Z" style="fill:rgb(5,5,5);fill-rule:nonzero;"/>
</svg>
