<?xml version="1.0" encoding="UTF-8" standalone="no"?>
<!DOCTYPE svg PUBLIC "-//W3C//DTD SVG 1.1//EN" "http://www.w3.org/Graphics/SVG/1.1/DTD/svg11.dtd">
<svg width="100%" height="100%" viewBox="0 0 1080 1080" version="1.1" xmlns="http://www.w3.org/2000/svg" xmlns:xlink="http://www.w3.org/1999/xlink" xml:space="preserve" xmlns:serif="http://www.serif.com/" style="fill-rule:evenodd;clip-rule:evenodd;stroke-linejoin:round;stroke-miterlimit:2;">
    <path d="M625,890C614,887 607,879 598,857C594,847 585,832 581,825C554.823,788.352 509.684,792.329 471,802C460,805 448,807 445,807C419.18,809.347 406.776,774.776 393,761C376,743 351,730 318,722C307,719 296,716 289,711C281,707 272,697 268,689C258,667 262,646 283,615C285,612 292,598 295,592C296,589 298,583 300,577C305.207,550.967 301.133,524.114 300,498C299.604,488.878 299.765,477.94 302,469C307,450 316,439 333,432C344,428 360,426 391,424C417,422 426,421 437,418C449,415 457.101,409.865 464,402C472.333,392.5 471,394 487,361C491,353 498,346 506,342C509,341 519,337 529,335C579,321 587,316 608,285C620,268 623.048,262.377 635,258C661.625,248.25 689.938,268.001 695.75,274.5C708.229,288.454 714.964,322.216 711,346C708,361 708,375 711,384C713,391 716,397 723,410C734.47,427.842 735.984,448.112 733,469C731,489 732,514 735,530C742,565 757,605 771,626C780,638 788,647 805,658C821,668 827,674 831,682C835.136,689.238 840.034,702.869 840,711C839.795,759.647 780.167,797.333 736,808C727.588,810.032 714.026,813.856 708,819C701.167,824.833 700,830 691,851C683,867 664,884 646,889C641,890 628,891 625,890ZM653,874C666,867 672,857 676,833C681,808 685.365,798.128 699,792C713.833,785.333 735.275,787.462 748,785C759.091,782.854 765,780 788,765C806,752 813,745 819,734C825.928,717.834 823.84,697.927 811.125,685.125C806.241,680.208 800.589,676.098 795,672C766,651 752,630 737,582C724,544 720,524 718,498C714,450 713,444 696,407C692,398 686,379 685,371C683,361 684,355 687,339C691.507,318.718 688.589,293.169 667.25,280.375C652.969,271.812 633,281 621,295C600,320 592,325 548,341C532,347 520,353 512,360C506,365 500,373 488,394C483,403 478,409 474,414C459,428 446,432 396,435C374,436 350,440 344,443C334,447 329,450 324,455C314,464 309,476 307,498C307,509 307,507 308,533C309,554 308,565 305,579C303,589 297,603 292,613C275,642 270,656 273,672C275,680 278,685 283,692C291,700 303,706 319,711C343,718 359,724 376,734C388,741 398,749 413,764C430,780 434,784 442,786C451,789 460,790 480,787C499,784 524,784 534,786C564.111,791.018 584.553,810.995 599,837C599,838 602,843 606,850C616,869 623,877 633,878C640,879 646,878 653,874ZM386,353C378.098,353 369,347 365,342C360,337 354.526,326.046 352,317C346.833,298.5 348.297,283.676 352,273C362,244.167 389,253 406,276C412,283 417,295 420,306C422,314 423.186,322.965 418,336C412.095,350.844 397.833,353 386,353ZM395,334C415.535,326.104 404.754,288.451 387,275C369.149,261.475 362.849,280.51 362,289C360.167,307.333 371.865,342.895 395,334ZM633,862C625,859 621,854 604,828C585,798 570,786 542,779C527,775 514,774 487,775C462,776 454,776 443,771C437,768 422,758 420,755C417,752 396,736 390,732C370,720 357,714 329,704C308.234,696.123 278.44,684.186 282.562,656.572C283.54,650.019 284.831,643.468 286.913,637.178C288.997,630.882 291.923,624.875 295,619C299,612 303,603 304,601C305,598 307,594 307,593C308,591 310,584 311,577C318.871,545.517 306.335,510.063 320,480C331,456 352,447 407,444C443,442 455,440 466,434C480,428 486,422 503,394C507.173,386.906 511.819,380.041 517.125,373.75C531.845,356.295 555.346,348.885 576,342C589.448,337.254 611.229,330.127 622,323C632.759,315.88 643.796,312.789 649,316C656.833,320.833 655.846,329.286 657,334C659.847,345.624 662.097,357.39 665,369C667,375 676,397 680,407C697.226,446.374 696.813,446.47 704,486C705,497 707,509 707,513C709,528 722,578 730,603C737,624 746,642 756,656C764,667 767,670 783,685C790.763,692.306 799.802,699.797 803.109,710.453C809.122,729.824 789.075,745.743 774.75,754.5C768.638,758.236 762.651,762.34 756,765C749,768 739,769 726,768C703.219,766.481 684.638,773.051 673,794C668,801 664,816 661,830C660,835 659,842 657,846C653,859 643,865 633,862ZM640,836C644,832 646,828 652,812C660,789 670,773 684,763C696,752 709,748 729,746C745,745 753,742 761,737C768,731 771,728 772,721C774,712 771,706 758,688C751,678 740,659 735,650C725,628 719,612 708,567C697,526 696,522 691,484C688,462 685,452 674,424C671,417 658,388 654,382C637,350 627,344 600,348C578,350 553,360 538,371C526,379 518,389 502,415C491,434 481,443 464,447C453,450 448,451 421,452C352,455 322.645,479.138 321,507C319.61,530.552 320.333,551.333 319,566C318.195,574.858 315.667,586.333 313,595C310.541,602.99 308.139,606.009 303,618C294.323,636.801 283.67,660.823 301.375,677.625C304.628,680.712 310.876,685.167 315,687C325,692 329,693 337,697C366,707 391,722 429,748C441.011,756.408 456.339,763.956 471.469,764.313C486.274,764.661 502.435,761.145 517,766C520,766 527,768 533,768C548,771 564,777 577,786C584,790 599,805 610,818C625,838 633,842 640,836ZM682.203,697.609C664.367,756.339 566.058,709.519 552,703C495.798,676.939 463.688,683.449 418.125,669.75C399.536,664.161 369.058,655.033 361.021,632.271C354.348,613.372 377.092,580.398 378,570C379.96,547.555 373.554,519.356 388,508C408.347,492.006 431.517,495.321 456,498C478.617,500.474 499.069,506.306 521,498C535.085,492.665 543.571,478.083 551.19,466.408C561.394,450.772 560.024,449.475 572.414,434.695C583.654,421.286 603.589,417.435 614.959,431.055C640.719,461.914 628.16,517.77 636.947,565.029C647.96,624.257 692.938,662.262 682.203,697.609Z" style="fill:rgb(5,5,5);fill-rule:nonzero;"/>
</svg>
