<?xml version="1.0" encoding="UTF-8" standalone="no"?>
<!DOCTYPE svg PUBLIC "-//W3C//DTD SVG 1.1//EN" "http://www.w3.org/Graphics/SVG/1.1/DTD/svg11.dtd">
<svg width="100%" height="100%" viewBox="0 0 1080 1080" version="1.1" xmlns="http://www.w3.org/2000/svg" xmlns:xlink="http://www.w3.org/1999/xlink" xml:space="preserve" xmlns:serif="http://www.serif.com/" style="fill-rule:evenodd;clip-rule:evenodd;stroke-linejoin:round;stroke-miterlimit:2;">
    <path d="M551,882C531,872.833 507,836 502,830C493,819 482,803 471,785C465,774 458,764 453,761C442,755 430,755 403,761C394,763 385,764 381,764C369,765 356.5,760.667 351,754C348.376,750.82 347,748 347,740C348,731 351,726 360,706C368,689 371,675 371,661C371,644 368,633 360,619C357,613 354,608 353,606C352,605 349,600 345,596C332,580 327,573 327,556C327,542 335.833,523.667 360,505C373.35,494.688 393,484 400,474C410,462 417,444 420,427C423,411 421,387 416,370C414,361 411,346 411,340C411,329 417,319 434,301C449,287 457,281 466,276C481,268 494,261 519,261C563,261 584,272 591,286C594,293 594,300 592,320C590,344 591,353 597,365C602,374 607,380 616,384C626,389 635,391 655,389C681,387 695,391 703,402C709,411 709,417 701,445C692,480 698,501 720,512C727,516 741,520 762,525C772,527 794,533 801,535C815,540 835,549 843,555C862,571 869,593 862,619C857,640 853,650 847,659C842,666 836,669 827,670C819,671 800,670 787,667C782,666 771,664 763,662C723,654 702,657 684,672C679,676 673,684 670,690C668,695 668,705 670,710C673,719 682,728 699,738C721,750 730,757 741,768C758,785 766,801 765,818C765,826 765,827 762,834C758,843 752,849 743,854C735,859 727,861 709,865C695,867 691,867 670,867C634,867 624,868 598,877C579,883 574,884 564,884C558,884 554.986,883.827 551,882ZM580,873C588,872 600,868 607,866C609,865 617,863 623,862C632,860 637,860 662,859C678,859 694,859 698,858C706,857 722,852 728,849C736,845 743,838 746,830C749,824 750,823 750,815C750,803 747,794 740,783C729,767 717,757 690,742C676,735 670,731 665,726C654,713 654,696 666,679C672,670 678,664 688,658C699,651 705,650 720,649C733,649 749,651 764,655C781,659 804,660 816,657C834,651 845,636 850,612C855,591 850,575 837,562C829,555 822,551 809,545C794,539 767,531 743,527C718,522 708,518 699,509C688,497 686,481 690,452C694,424 693,416 683,410C676,405 672,405 650,404C628,404 621,404 613,401C601,397 587,385 582,374C577,363 576,357 576,335C576,323 576,311 575,308C572,288 557,278 529,275C513,273 493,276 482,282C463,291 440,319 434,340C431,346 431,359 433,381C435,407 433,424 426,445C419,465 410.591,480.543 398,491C379.071,506.721 352.802,529.454 348,537C341,548 343,563 348,573C350,577 355,586 359,593C375,620 381,637 381,660C381,674 380,681 373,703C366,727 366,739 373,746C380,752 389,753 411,750C441,746 453,748 463,757C469,762 472,767 477,775C488,797 499.155,812.275 512,828C527.052,846.426 543.667,867.5 552,871C560.997,874.779 568,875 580,873ZM234,831C228,829 223,826 218,822C207,809 204,790 212,774C220,757 252,742 274,745C289,747 298,754 300,762C300,768 297,777 289,791C274,815 262,826 247,831C241,832 239,832 234,831ZM252,810C260,804 265,796 266,786C266,779 264,775 259,773C252,769 239,772 232,778C227,783 225,787 225,795C225,802 226,806 232,810C235,813 236,813 242,813C247,813 248,813 252,810ZM273,391C259,388 249,376 248,361C248,356 248,352 250,345C256,327 265,310 279,296C305,268 333,266 358,289C364,295 367,299 370,305C373,312 374,314 374,319C374,330 370,336 353,352C318,384 293,396 273,391ZM293,379C314,374 345,348 352,329C354,324 354,314 352,309C350,304 343,294 338,291C321,280 299,285 282,303C271,316 264,329 260,344C259,351 259,353 260,358C262,369 270,377 279,379C285,380 286,380 293,379ZM562,863C554,860 550,857 536,843C507,815 497,802 485,776C475,755 471,750 463,745C454,740 446,738 423,740C397,742 389,740 385,733C379,724 379,716 386,691C390,674 392,661 390,650C388,633 382,613 370,589C362,572 360,563 360,554C361,541 364,536 380,520C410,492 415.667,483.833 425,471C430.973,462.788 445.667,434.667 446,380C446.106,362.677 447,345 456,329C461,319 467,311 476,301C492,285 514,280 535,286C545,289 552,294 556,300C562,309 562,312 563,340C563,364 563,366 565,373C568,382 571,386 578,394C586,403 595,409 607,413C616,416 623,417 642,418C651,418 661,420 663,420C670,422 674,426 677,431C679,435 680,437 680,461C680,489 680,493 686,505C690,514 698,522 706,526C713,529 725,532 740,534C763,537 774,539 793,546C827,558 842,576 841,601C839,624 826,642 807,648C795,651 766,649 741,642C733,640 715,639 707,641C693,644 675,656 664,668C658,675 650,688 648,695C647,698 647,704 647,708C647,717 649,724 656,732C663,739 668,742 684,750C708,762 719,770 728,784C733,792 734,795 735,805C737,821 730,835 713,843C699,850 696,850 663,851C631,852 629,852 604,859C585,864 571,865 562,863ZM589,854C592,853 601,852 608,850C631,845 642,843 662,842C682,842 694,840 701,836C724,825 728,803 712,781C707,774 695,765 684,761C665,752 658,748 650,740C636,726 632,703 644,680C653.309,662.158 679,641 697,634C708,629 718,629 736,633C772,642 782,643 795,641C810,638 819,631 825,619C835,600 832,582 818,568C808,558 781,546 762,544C759,543 745,541 736,540C706,538 702,537 692,529C686,524 681,516 677,506C672,494 671,490 670,471C668,448 667,444 661,438C656,435 651,433 637,431C606,426 597,424 585,417C570,408 557,394 552,379C550,373 550,371 550,358C551,327 551,320 549,314C546,307 540,301 533,297C528,295 526,295 517,295C508,295 507,295 500,298C490,303 483,310 476,320C469,329 467,333 464,343C460,352 459,359 458,379C458,399 455.289,411.214 452,427C443.667,467 425.667,495 404,516C393.371,526.302 379.333,536.333 376,547C371.804,560.427 375,575 383,596C388,609 397,636 398,645C400,657 399,674 395,689C389,713 391,724 404,730C407,731 410,731 429,731C445,731 451,731 456,732C474,737 483,743 491,766C502,796 509,806 537,832C548,843 555,849 562,852C568,854 576,856 580,855C581,855 585,855 589,854ZM285,364C283,363 280,362 279,360C268,350 273,327 290,311C302,298 321,296 330,306C339,317 336,334 321,349C309,361 294,367 285,364ZM569,802C560.412,799.987 546.065,789.808 543,782C536,764.167 549,753 563,753C571,753 578,756 587,765C603,781 605,795 592,802C587,804 577.105,803.9 569,802Z" style="fill:rgb(5,5,5);fill-rule:nonzero;"/>
    <path d="M514.5,450C543.077,443.3 554.118,481.635 579.72,503.013C615.576,532.952 647.649,548.934 635,585C619.929,627.973 588.159,691.082 528.5,691C472.35,690.923 424.136,612.148 448,562C469.956,515.862 468.557,460.772 514.5,450Z"/>
</svg>
