<?xml version="1.0" encoding="UTF-8" standalone="no"?>
<!DOCTYPE svg PUBLIC "-//W3C//DTD SVG 1.1//EN" "http://www.w3.org/Graphics/SVG/1.1/DTD/svg11.dtd">
<svg width="100%" height="100%" viewBox="0 0 1600 1600" version="1.1" xmlns="http://www.w3.org/2000/svg" xmlns:xlink="http://www.w3.org/1999/xlink" xml:space="preserve" xmlns:serif="http://www.serif.com/" style="fill-rule:evenodd;clip-rule:evenodd;">
    <g>
        <g transform="matrix(1,0,0,0.5,0,400)">
            <rect x="0.004" y="-800" width="1600" height="3200" style="fill:rgb(0,196,255);stroke:black;stroke-width:0.89px;"/>
        </g>
        <g>
            <path d="M498.889,1085.14L504.667,1089.69L510.889,1091.61L508.889,1095.48L504.667,1095.87L502.4,1093.12L500.929,1096.27L497.116,1098.7L492.302,1097.81L489.076,1095.46L484.418,1094.34L478.827,1090.04L474.289,1085.95L468.164,1077.6L471.831,1079.14L478.071,1084.12L483.964,1086.83L486.258,1083.38L487.702,1078.29L491.796,1075.26L494.96,1076.12L496.667,1079.54L498.889,1085.14Z" style="fill:rgb(254,254,228);fill-rule:nonzero;"/>
            <path d="M539.778,1065.06L543.333,1068.26L542,1070.77L536,1072.94L534,1070.41L530.222,1073.67L528,1070.41L533.333,1066.12L537.111,1067.91L539.778,1065.06Z" style="fill:rgb(254,254,228);fill-rule:nonzero;"/>
            <path d="M1112.36,1055.37L1105.53,1055.82L1105.42,1052.17L1106.08,1049.37L1106.38,1048L1109.24,1050.12L1113.44,1050.96L1113.6,1052.26L1112.36,1055.37Z" style="fill:rgb(254,254,228);fill-rule:nonzero;"/>
            <path d="M1446.21,998.902L1450.51,1000.93L1452.93,1000.12L1456.4,998.991L1459.06,999.382L1459.38,1006.42L1457.85,1008.49L1457.4,1013.37L1455.84,1011.71L1452.76,1015.96L1451.84,1015.63L1449.1,1015.44L1446.36,1010.23L1445.76,1006.26L1443.19,1001.08L1443.31,998.378L1446.21,998.902Z" style="fill:rgb(254,254,228);fill-rule:nonzero;"/>
            <path d="M1568.98,999.64L1569.99,1002.08L1573.15,999.689L1574.44,1002.18L1574.44,1004.68L1572.78,1007.45L1569.88,1011.9L1567.6,1014.35L1569.24,1017.3L1565.82,1017.38L1562.01,1019.71L1560.82,1023.79L1558.3,1030.2L1554.8,1033.07L1552.59,1034.91L1548.49,1034.77L1545.62,1032.64L1540.79,1032.19L1540.04,1029.84L1542.43,1025.14L1548.02,1018.97L1550.88,1017.81L1554.08,1015.47L1557.89,1012.28L1560.56,1009.13L1562.53,1004.66L1564.22,1003.16L1564.88,999.858L1568,997.151L1568.98,999.64Z" style="fill:rgb(254,254,228);fill-rule:nonzero;"/>
            <path d="M1576.05,972.56L1579.28,978.396L1579.37,974.6L1581.37,976.116L1582.04,980.333L1585.61,982.164L1588.62,982.613L1591.16,980.471L1593.41,981.116L1592.33,986.133L1590.98,989.462L1587.59,989.351L1586.4,991.093L1586.81,993.578L1586.16,994.658L1584.48,997.8L1582.28,1001.83L1578.84,1004.19L1578.08,1002.64L1576.23,1001.78L1578.79,996.947L1577.33,993.747L1572.55,991.436L1572.68,989.356L1575.89,987.36L1576.64,982.991L1576.43,979.356L1574.63,975.627L1574.75,974.653L1572.63,972.373L1569.13,967.533L1567.27,963.693L1568.92,963.276L1571.34,966.276L1574.8,967.684L1576.05,972.56Z" style="fill:rgb(254,254,228);fill-rule:nonzero;"/>
            <path d="M1542.76,901.04L1541.07,902.191L1538.62,900.898L1535.44,898.742L1532.58,896.209L1529.64,892.858L1529.02,891.253L1530.93,891.32L1533.42,892.929L1535.38,894.547L1536.8,895.876L1540.44,898.836L1542.76,901.04Z" style="fill:rgb(254,254,228);fill-rule:nonzero;"/>
            <path d="M1592.77,878.271L1594.3,879.613L1593.57,882.053L1590.81,882.698L1588.36,882.116L1587.93,880.067L1589.65,878.462L1591.67,879.04L1592.77,878.271Z" style="fill:rgb(254,254,228);fill-rule:nonzero;"/>
            <path d="M1597.17,875.764L1594.33,876.747L1593.76,875.013L1595.99,874.062L1597.4,873.809L1600,872.364L1600,874.622L1597.17,875.764Z" style="fill:rgb(254,254,228);fill-rule:nonzero;"/>
            <path d="M0.369,874.378L0,874.622L0,872.364L0.92,872.151L0.369,874.378Z" style="fill:rgb(254,254,228);fill-rule:nonzero;"/>
            <path d="M1545.98,874.209L1544.51,874.822L1543.02,872.796L1543.19,871.556L1545.98,874.209Z" style="fill:rgb(254,254,228);fill-rule:nonzero;"/>
            <path d="M1542.7,867.138L1543.42,870.853L1542.23,870.276L1541.3,870.524L1540.67,869.253L1540.57,865.72L1542.7,867.138Z" style="fill:rgb(254,254,228);fill-rule:nonzero;"/>
            <path d="M1022.48,860.818L1023.19,866.333L1024.34,868.484L1023.9,870.693L1023.11,872.053L1021.6,869.347L1020.77,870.716L1021.61,874.142L1021.22,876.107L1020,877.182L1019.72,881.129L1017.96,886.596L1015.77,893.107L1013.03,902.156L1011.32,908.871L1009.32,914.529L1005.7,915.689L1001.82,917.769L999.262,916.516L995.733,914.756L994.507,912.178L994.213,907.862L992.649,904.009L992.24,900.547L993.036,897.098L995.084,896.271L995.093,894.689L997.218,891.093L997.618,888.084L996.587,885.858L995.747,882.898L995.391,878.596L996.942,875.991L997.542,873.053L999.756,872.88L1002.24,871.933L1003.88,871.098L1005.83,871.036L1008.36,868.409L1012.02,865.573L1013.36,863.267L1012.75,861.311L1014.64,861.862L1017.09,858.684L1017.17,855.947L1018.64,853.916L1020.2,855.867L1021.37,857.8L1022.48,860.818Z" style="fill:rgb(254,254,228);fill-rule:nonzero;"/>
            <path d="M1438.05,861.769L1439.65,865.364L1442.51,863.636L1443.98,865.573L1446.11,867.373L1445.65,869.413L1446.6,873.378L1447.28,875.689L1448.4,876.258L1449.6,880.24L1449.17,882.658L1450.61,885.84L1455.43,888.302L1458.57,890.542L1461.55,892.604L1460.96,893.751L1463.51,896.738L1465.24,901.92L1467.01,900.862L1468.81,902.942L1469.9,902.204L1470.67,907.32L1473.82,910.302L1475.88,912.164L1479.36,916.129L1480.6,920.089L1480.72,922.916L1480.41,926.004L1482.53,930.271L1482.28,934.747L1481.51,937.107L1480.31,941.68L1480.4,944.644L1479.52,948.369L1477.56,953.142L1474.26,955.738L1472.64,959.867L1471.16,962.516L1469.84,967.182L1468.12,969.907L1467,974.018L1466.43,977.84L1466.65,979.604L1464.11,981.556L1459.13,981.76L1455.03,984.071L1452.99,986.271L1450.3,988.72L1446.62,986.2L1443.9,985.191L1444.59,982.249L1442.16,983.316L1438.27,987.422L1434.42,985.88L1431.9,984.982L1429.36,984.582L1425.06,982.942L1422.19,979.48L1421.36,975.253L1420.33,972.462L1418.15,970.24L1413.87,969.578L1415.33,966.933L1414.26,962.92L1412.08,966.662L1408.13,967.662L1410.45,964.658L1411.13,961.547L1412.84,958.924L1412.49,954.991L1408.88,959.529L1406.1,961.36L1404.4,965.649L1400.92,963.427L1401.06,960.573L1398.28,956.702L1395.94,954.716L1396.77,953.493L1391.07,950.307L1387.95,950.16L1383.67,947.618L1375.72,948.107L1369.96,949.978L1364.9,951.729L1360.66,951.382L1355.95,954.084L1352.1,955.302L1351.24,958.093L1349.6,960.262L1345.83,960.391L1343.04,960.867L1339.11,959.893L1335.91,960.476L1332.86,960.72L1330.22,963.587L1328.92,963.347L1326.69,964.871L1324.56,966.596L1321.32,966.378L1318.33,966.378L1313.62,962.924L1311.23,961.907L1311.33,958.836L1313.53,958.107L1314.29,956.902L1314.13,954.991L1314.68,951.324L1314.18,948.222L1311.83,942.978L1311.1,940.04L1311.29,937.12L1309.52,933.809L1309.4,932.32L1307.44,930.311L1306.88,926.378L1304.34,922.431L1303.73,920.316L1305.68,922.458L1304.18,917.867L1306.39,919.298L1307.7,921.213L1307.63,918.68L1305.43,914.809L1305,913.267L1303.97,911.804L1304.45,908.987L1305.36,907.791L1305.97,905.373L1305.5,902.556L1307.33,899.102L1307.67,902.756L1309.55,899.458L1313.16,897.858L1315.32,895.827L1318.72,894.08L1320.74,893.707L1321.96,894.293L1325.47,892.52L1328.16,891.996L1328.84,890.96L1330.01,890.529L1332.47,890.644L1337.14,889.258L1339.56,887.164L1340.69,884.649L1343.3,882.276L1343.5,880.409L1343.61,877.876L1346.72,873.929L1348.6,877.942L1350.48,877.009L1348.9,874.818L1350.3,872.569L1352.26,873.573L1352.8,870.053L1355.23,867.787L1356.3,865.969L1358.53,865.191L1358.6,863.911L1360.56,864.44L1360.64,863.289L1362.59,862.636L1364.74,862.018L1368.02,864.12L1370.49,866.84L1373.27,866.871L1376.09,867.302L1375.16,864.782L1377.28,861.107L1379.28,859.911L1378.6,858.773L1380.52,856.164L1383.21,854.564L1385.49,855.102L1389.22,854.244L1389.14,851.924L1385.89,850.431L1388.25,849.778L1391.2,850.893L1393.56,852.76L1397.3,853.92L1398.57,853.458L1401.32,854.858L1403.92,853.556L1405.59,853.951L1406.63,853.08L1408.68,855.329L1407.49,857.764L1405.8,859.609L1404.28,859.764L1404.79,861.587L1403.48,863.876L1401.91,866.129L1402.22,867.431L1405.76,869.973L1409.18,871.458L1411.47,873.049L1414.68,875.796L1415.93,875.791L1418.26,876.982L1418.94,878.418L1423.18,880L1426.11,878.404L1426.98,875.907L1427.88,873.853L1428.44,871.32L1429.79,867.649L1429.17,865.422L1429.49,864.089L1428.98,861.467L1429.56,858.031L1430.41,857.102L1429.72,855.582L1430.8,853.169L1431.64,850.68L1431.75,849.387L1433.4,847.689L1434.65,849.902L1434.96,852.751L1436.07,853.302L1436.26,855.209L1437.88,857.524L1438.21,860.107L1438.05,861.769Z" style="fill:rgb(254,254,228);fill-rule:nonzero;"/>
            <path d="M1520.53,846.853L1521.77,848.404L1518.67,848.378L1516.98,845.596L1519.63,846.689L1520.53,846.853Z" style="fill:rgb(254,254,228);fill-rule:nonzero;"/>
            <path d="M1336.52,845.756L1334.64,845.84L1328.75,842.68L1332.89,841.791L1335.23,843.164L1336.78,844.538L1336.52,845.756Z" style="fill:rgb(254,254,228);fill-rule:nonzero;"/>
            <path d="M1514.9,844.098L1513.17,844.2L1510.44,843.742L1509.51,843.049L1509.79,841.258L1512.72,841.964L1514.17,842.911L1514.9,844.098Z" style="fill:rgb(254,254,228);fill-rule:nonzero;"/>
            <path d="M1518.58,842.867L1517.91,843.698L1514.61,839.796L1513.69,837.107L1515.2,837.107L1516.8,840.707L1518.58,842.867Z" style="fill:rgb(254,254,228);fill-rule:nonzero;"/>
            <path d="M1353.05,845.302L1349.24,846.298L1348.71,845.756L1349.11,844.222L1351.02,841.471L1355.42,839.684L1355.94,838.622L1359.76,837.613L1362.87,837.458L1364.25,836.898L1365.94,837.453L1364.3,838.671L1359.67,840.644L1355.95,841.933L1353.05,845.302Z" style="fill:rgb(254,254,228);fill-rule:nonzero;"/>
            <path d="M1324,836.102L1325.6,837.298L1328.35,836.933L1329.45,838.844L1324.31,839.747L1321.24,840.351L1318.84,840.316L1320.37,837.724L1322.81,837.689L1324,836.102Z" style="fill:rgb(254,254,228);fill-rule:nonzero;"/>
            <path d="M1346.24,836.093L1345.59,838.591L1338.91,839.867L1333,839.311L1332.98,837.671L1336.51,836.738L1339.3,838.084L1342.25,837.742L1346.24,836.093Z" style="fill:rgb(254,254,228);fill-rule:nonzero;"/>
            <path d="M1510.56,837.187L1510.74,838.089L1507.26,836.182L1504.83,834.573L1503.16,833.08L1503.82,832.622L1505.87,833.698L1509.51,835.76L1510.56,837.187Z" style="fill:rgb(254,254,228);fill-rule:nonzero;"/>
            <path d="M1500.17,832.747L1499.28,833.004L1497.34,831.982L1495.52,830.142L1495.75,829.396L1498.4,831.289L1500.17,832.747Z" style="fill:rgb(254,254,228);fill-rule:nonzero;"/>
            <path d="M1282.77,830.196L1291.28,830.64L1292.27,828.796L1300.51,830.947L1302.13,833.849L1308.8,834.671L1314.25,837.338L1309.18,839.049L1304.29,837.24L1300.27,837.36L1295.65,837.027L1291.49,836.222L1286.35,834.511L1283.08,834.067L1281.24,834.627L1273.13,832.778L1272.36,830.853L1268.29,830.52L1271.34,826.249L1276.73,826.516L1280.32,828.262L1282.16,828.6L1282.77,830.196Z" style="fill:rgb(254,254,228);fill-rule:nonzero;"/>
            <path d="M1398.78,827.671L1396.49,830.72L1396.06,827.351L1396.84,825.747L1397.78,824.236L1398.79,825.547L1398.78,827.671Z" style="fill:rgb(254,254,228);fill-rule:nonzero;"/>
            <path d="M1492.8,830.382L1491.56,830.831L1489.63,829.111L1487.68,826.271L1486.73,822.871L1487.35,822.44L1487.82,823.769L1489.17,824.782L1491.32,827.613L1493.42,829.129L1492.8,830.382Z" style="fill:rgb(254,254,228);fill-rule:nonzero;"/>
            <path d="M1475.48,824.382L1473.15,824.751L1472.45,826.004L1470.02,827.089L1467.74,828.138L1465.38,828.133L1461.73,826.831L1459.2,825.587L1459.56,824.204L1463.55,824.858L1465.98,824.507L1466.65,822.364L1467.29,822.253L1467.72,824.627L1470.25,824.284L1471.51,822.76L1473.99,821.164L1473.5,818.542L1476.16,818.458L1477.06,819.187L1476.97,821.662L1475.48,824.382Z" style="fill:rgb(254,254,228);fill-rule:nonzero;"/>
            <path d="M1365.55,815.382L1363.89,816.862L1360.82,816.04L1359.95,814.129L1364.45,813.916L1365.55,815.382Z" style="fill:rgb(254,254,228);fill-rule:nonzero;"/>
            <path d="M1379.87,813.76L1381.49,817.16L1377.74,815.324L1374.02,814.956L1371.52,815.249L1368.44,815.089L1369.49,812.644L1374.98,812.458L1379.87,813.76Z" style="fill:rgb(254,254,228);fill-rule:nonzero;"/>
            <path d="M1480.62,820.022L1479.23,821.209L1478.4,818.578L1477.36,816.858L1475.35,815.396L1472.82,813.493L1469.61,812.187L1470.84,811.116L1473.24,812.36L1474.76,813.338L1476.62,814.409L1478.4,816.276L1480.09,817.702L1480.62,820.022Z" style="fill:rgb(254,254,228);fill-rule:nonzero;"/>
            <path d="M1396.19,805.12L1397.44,812.311L1402.04,814.978L1405.75,810.258L1410.85,807.573L1414.8,807.569L1418.6,809.116L1421.9,810.711L1426.67,811.56L1434.38,814.627L1442.6,817.173L1445.66,819.458L1448.13,821.698L1448.81,824.329L1456.21,827.089L1457.29,829.462L1453.2,829.942L1454.19,832.929L1458.16,835.871L1461.04,840.64L1463.59,840.484L1463.41,842.48L1466.84,843.244L1465.51,844.098L1470.23,846L1469.74,847.307L1466.79,847.618L1465.7,846.444L1461.88,845.942L1457.39,845.258L1453.93,842.382L1451.41,839.911L1449.1,835.973L1443.31,834.013L1439.54,835.289L1436.83,836.773L1437.4,840.089L1433.9,841.636L1431.41,840.884L1426.82,840.698L1422.86,837.004L1418.35,836.102L1417.25,837.382L1411.62,837.52L1413.51,833.867L1416.31,832.622L1415.15,827.756L1413.01,824.004L1404.4,820.231L1400.73,819.858L1394.06,815.738L1392.75,817.902L1391.04,818.298L1390.03,816.662L1390.02,814.729L1386.62,812.542L1391.41,810.938L1394.58,811.027L1394.2,809.849L1387.7,809.84L1385.94,807.187L1381.97,806.369L1380.09,804.169L1386.08,803.089L1388.36,801.644L1395.49,803.467L1396.19,805.12Z" style="fill:rgb(254,254,228);fill-rule:nonzero;"/>
            <path d="M1356.63,793.689L1353.05,798.098L1349.72,798.951L1345.44,798.084L1338.03,798.307L1334.15,798.947L1333.52,802.311L1337.49,806.262L1339.89,804.249L1348.18,802.738L1347.81,804.782L1345.88,804.138L1343.95,806.742L1340.04,808.462L1344.24,814.169L1343.43,815.698L1347.43,820.84L1347.39,823.773L1345.02,825.084L1343.27,823.516L1345.42,819.862L1341.06,821.587L1339.95,820.356L1340.53,818.631L1337.32,816.018L1337.65,811.684L1334.69,813.036L1335.07,818.227L1335.25,824.609L1332.43,825.253L1330.52,823.947L1331.8,819.84L1331.11,815.538L1329.24,815.507L1327.86,812.458L1329.69,809.547L1330.32,806.013L1332.56,799.316L1333.49,797.484L1337.27,794.182L1340.74,795.493L1346.35,796.111L1351.46,795.924L1355.85,792.698L1356.63,793.689Z" style="fill:rgb(254,254,228);fill-rule:nonzero;"/>
            <path d="M1371.95,794.969L1371.72,798.853L1369.42,798.418L1368.75,801.12L1370.58,803.467L1369.33,804L1367.54,801.187L1366.22,795.502L1367.12,791.951L1368.59,790.329L1368.91,792.76L1371.53,793.151L1371.95,794.969Z" style="fill:rgb(254,254,228);fill-rule:nonzero;"/>
            <path d="M1270.3,826.053L1265.38,826.147L1261.64,822.418L1255.93,818.773L1254.03,816.071L1250.66,812.449L1248.46,809.111L1245.08,802.889L1241.17,799.187L1239.87,795.364L1238.23,791.893L1234.22,789.093L1231.9,785.284L1228.55,782.791L1223.92,777.88L1223.52,775.609L1226.39,775.787L1233.27,776.653L1237.2,781.013L1240.64,784.036L1243.08,785.884L1247.29,790.671L1251.81,790.738L1255.55,793.782L1258.12,797.507L1261.5,799.533L1259.72,803.164L1262.27,804.707L1263.87,804.822L1264.62,807.92L1266.17,810.404L1269.43,810.8L1271.6,813.613L1270.48,819.156L1270.3,826.053Z" style="fill:rgb(254,254,228);fill-rule:nonzero;"/>
            <path d="M1323.89,791.876L1328.88,795.991L1323.61,796.516L1322.12,799.547L1322.32,803.573L1318.04,806.613L1317.93,811.044L1316.21,817.849L1315.56,816.262L1310.51,818.271L1308.75,815.547L1305.58,815.293L1303.36,813.871L1298.08,815.467L1296.46,813.311L1293.55,813.556L1289.88,813.044L1289.2,807.08L1286.99,805.844L1284.85,802.044L1284.24,798.156L1284.75,794.036L1287.39,791.084L1290.65,792.604L1294.08,791.773L1294.98,788.009L1296.88,787.169L1302.2,786.204L1305.39,782.68L1307.57,779.862L1309.33,778.196L1313.12,775.751L1316.54,772.644L1318.78,769.147L1320.58,769.133L1322.86,771.4L1323.06,773.342L1325.99,774.587L1329.7,775.929L1329.38,777.68L1326.4,777.898L1327.19,780.076L1323.92,781.591L1321.39,785.618L1324.66,789.827L1323.89,791.876Z" style="fill:rgb(254,254,228);fill-rule:nonzero;"/>
            <path d="M1361.68,762.467L1362.13,765.449L1362.39,767.964L1360.88,772.058L1359.25,767.493L1357.17,769.769L1358.59,773.062L1357.32,775.156L1352.09,772.564L1350.84,769.324L1352.2,767.196L1349.38,765.071L1347.98,766.933L1345.89,766.764L1342.6,769.262L1341.87,767.951L1343.61,764.173L1346.41,762.911L1348.84,761.213L1350.4,763.249L1353.78,762.018L1354.51,760.013L1357.65,759.893L1357.39,756.409L1360.99,758.547L1361.36,760.813L1361.68,762.467Z" style="fill:rgb(254,254,228);fill-rule:nonzero;"/>
            <path d="M1160.97,772.404L1157.1,773.427L1154.99,769.871L1154.2,763.427L1156.21,756.124L1159.28,758.627L1161.35,761.796L1163.5,766.467L1162.83,771.129L1160.97,772.404Z" style="fill:rgb(254,254,228);fill-rule:nonzero;"/>
            <path d="M529.178,754.831L525.467,755.329L524.667,754.92L525.956,753.68L525.867,751.893L528.422,751.307L529.356,751.462L529.178,754.831Z" style="fill:rgb(254,254,228);fill-rule:nonzero;"/>
            <path d="M1351.03,754.067L1349.44,755.556L1348.04,758.404L1346.65,759.733L1343.91,756.622L1344.83,755.413L1345.94,754.151L1346.43,751.342L1348.88,751.076L1348.17,754.124L1351.46,749.751L1351.03,754.067Z" style="fill:rgb(254,254,228);fill-rule:nonzero;"/>
            <path d="M1326.69,758.413L1320.77,762.68L1322.95,759.533L1326.16,756.756L1328.83,753.631L1331.16,749.133L1331.96,752.827L1329.02,755.311L1326.69,758.413Z" style="fill:rgb(254,254,228);fill-rule:nonzero;"/>
            <path d="M1341.71,746.764L1344.37,748.169L1347.2,748.16L1347.12,750.058L1345.06,751.982L1342.24,753.338L1342.08,751.236L1342.39,748.924L1341.71,746.764Z" style="fill:rgb(254,254,228);fill-rule:nonzero;"/>
            <path d="M1357.79,745.533L1359.04,750.6L1355.61,749.4L1355.7,750.916L1356.79,753.707L1354.68,754.72L1354.49,751.542L1353.15,751.307L1352.46,748.564L1355.07,748.924L1355.01,747.209L1352.3,743.733L1356.56,743.836L1357.79,745.533Z" style="fill:rgb(254,254,228);fill-rule:nonzero;"/>
            <path d="M1340.12,741.4L1338.94,745.338L1337.04,743.071L1334.77,739.591L1338.58,739.756L1340.12,741.4Z" style="fill:rgb(254,254,228);fill-rule:nonzero;"/>
            <path d="M1339.2,716.293L1341.95,717.627L1343.32,716.409L1343.72,717.6L1343,719.538L1344.52,722.876L1343.34,726.733L1340.72,728.267L1340.02,731.982L1341.02,735.644L1343.37,736.151L1345.34,735.604L1350.89,738.147L1350.47,740.636L1351.92,741.729L1351.45,743.831L1347.99,741.591L1346.35,739.196L1345.2,740.871L1342.38,738.138L1338.34,738.809L1336.13,737.8L1336.35,735.907L1337.74,734.742L1336.41,733.676L1335.84,735.333L1333.64,732.693L1332.98,730.689L1332.82,726.262L1334.6,727.782L1335.07,720.524L1336.52,716.289L1339.2,716.293Z" style="fill:rgb(254,254,228);fill-rule:nonzero;"/>
            <path d="M508.484,717.587L507.347,718.764L504,718.733L501.404,718.898L501.147,716.902L501.773,716.213L505.413,716.24L507.684,716.653L508.484,717.587Z" style="fill:rgb(254,254,228);fill-rule:nonzero;"/>
            <path d="M458.209,719.267L456.862,720.049L454.373,719.293L451.831,717.596L452.364,716.52L454.236,716.2L455.244,716.351L458.236,716.773L460.6,717.898L461.333,719.178L458.209,719.267Z" style="fill:rgb(254,254,228);fill-rule:nonzero;"/>
            <path d="M477.422,709.853L481.28,710.6L481.836,709.791L485.302,709.818L487.938,711.031L489.107,710.911L489.916,712.587L492.347,712.493L492.204,713.893L494.182,714.062L496.364,715.787L494.716,717.693L492.6,716.671L490.56,716.867L489.098,716.649L488.298,717.502L486.591,717.791L485.916,716.653L484.444,717.329L482.667,720.524L481.52,719.782L481.298,718.44L478.347,717.644L476.249,717.969L473.533,717.631L471.458,718.507L469.076,717.044L469.467,715.538L473.556,716.187L476.911,716.564L478.511,715.524L476.48,713.484L476.516,711.684L473.711,710.951L474.711,709.644L477.422,709.853Z" style="fill:rgb(254,254,228);fill-rule:nonzero;"/>
            <path d="M1290.4,715.476L1286.56,717.724L1282.91,716.271L1282.78,712.231L1284.97,710.093L1289.83,708.769L1292.39,708.88L1293.38,710.684L1291.43,712.76L1290.4,715.476Z" style="fill:rgb(254,254,228);fill-rule:nonzero;"/>
            <path d="M108.702,713.573L108.053,714.36L106.947,713.684L107.076,712.369L106.342,710.653L106.56,710.129L107.333,709.356L107.027,708.427L107.284,707.987L107.622,708.071L109.324,708.871L110.111,709.28L110.836,709.916L111.969,711.569L111.862,711.831L110.124,712.836L108.702,713.573Z" style="fill:rgb(254,254,228);fill-rule:nonzero;"/>
            <path d="M106.316,706.196L104.827,706.538L104.058,705.538L103.547,705.151L103.507,704.853L103.942,704.449L105.524,704.898L106.684,705.627L106.316,706.196Z" style="fill:rgb(254,254,228);fill-rule:nonzero;"/>
            <path d="M103.298,703.662L103.16,704.173L100.778,704.036L101.111,703.458L103.298,703.662Z" style="fill:rgb(254,254,228);fill-rule:nonzero;"/>
            <path d="M99.32,702.969L99.08,703.244L98.76,703.182L97.213,703.018L96.649,701.933L96.476,701.742L97.667,701.084L98.036,701.387L99.32,702.969Z" style="fill:rgb(254,254,228);fill-rule:nonzero;"/>
            <path d="M91.8,699.813L91.271,700.289L89.773,699.413L90.004,699.067L90.684,698.596L91.707,698.698L91.8,699.813Z" style="fill:rgb(254,254,228);fill-rule:nonzero;"/>
            <path d="M445.867,696.049L447.64,697.813L451.791,697.267L453.364,698.4L457.129,701.364L459.893,703.52L461.356,703.449L464.009,704.422L463.684,705.764L466.96,705.96L470.32,707.898L469.791,709.013L466.836,709.613L463.844,709.844L460.782,709.471L454.422,709.933L457.4,707.293L455.587,706.058L452.724,705.742L451.187,704.364L450.133,701.653L447.622,701.836L443.48,700.556L442.142,699.551L436.351,698.804L434.8,697.871L436.467,696.667L432.107,696.422L428.916,698.916L427.071,698.982L426.436,700.156L424.236,700.68L422.333,700.227L424.68,698.742L425.644,697.009L427.653,695.938L429.92,695L433.289,694.533L434.364,694.004L438.204,694.351L441.693,694.404L445.867,696.049Z" style="fill:rgb(254,254,228);fill-rule:nonzero;"/>
            <path d="M455.4,691.236L454.311,691.48L453.182,688.676L451.52,687.262L452.484,684.156L453.822,684.351L455.378,688.413L455.4,691.236Z" style="fill:rgb(254,254,228);fill-rule:nonzero;"/>
            <path d="M1338.56,695.924L1336.65,699.867L1334.31,695.809L1333.8,692.227L1336.42,687.449L1339.98,683.738L1342,685.196L1341.24,688.151L1338.56,695.924Z" style="fill:rgb(254,254,228);fill-rule:nonzero;"/>
            <path d="M454.133,677.387L449.289,678.182L448.978,676.342L451.067,675.942L454,676.093L454.133,677.387Z" style="fill:rgb(254,254,228);fill-rule:nonzero;"/>
            <path d="M457.778,677.338L457.009,680.858L456.196,680.227L456.267,677.636L454.276,675.671L454.267,675.093L457.778,677.338Z" style="fill:rgb(254,254,228);fill-rule:nonzero;"/>
            <path d="M1398.39,638.351L1398.96,640.187L1396.46,643.413L1394.64,641.707L1392.36,642.942L1391.18,646.04L1388.28,644.538L1388.32,642.013L1390.77,638.827L1393.3,639.444L1395.13,637.187L1398.39,638.351Z" style="fill:rgb(254,254,228);fill-rule:nonzero;"/>
            <path d="M953.671,630.093L950.671,632.418L950.996,633.436L951.133,633.876L946.578,636.071L944.4,635.369L943.364,633.196L945.476,632.996L945.787,632.964L946.431,631.653L949.631,631.729L953.671,630.093Z" style="fill:rgb(254,254,228);fill-rule:nonzero;"/>
            <path d="M905.333,629.916L907.764,631.756L911.222,631.444L914.529,631.831L914.422,632.778L916.844,632.124L916.289,633.729L909.889,634.191L909.933,633.293L904.511,632.236L905.333,629.916Z" style="fill:rgb(254,254,228);fill-rule:nonzero;"/>
            <path d="M868.978,615.862L867.378,620.289L868.044,622.022L867.111,624.876L863.711,622.787L861.453,622.182L855.249,619.342L855.871,616.453L861.071,616.969L865.604,616.351L868.978,615.862Z" style="fill:rgb(254,254,228);fill-rule:nonzero;"/>
            <path d="M840.933,598.644L843.6,602.813L842.978,610.471L840.956,610.111L839.142,612.018L837.458,610.502L837.28,603.529L836.267,600.178L838.711,600.471L840.933,598.644Z" style="fill:rgb(254,254,228);fill-rule:nonzero;"/>
            <path d="M1426.56,621.978L1424.89,626.404L1425.66,629.16L1423.35,633.009L1417.67,635.556L1409.86,635.889L1403.52,642.009L1400.54,639.96L1400.35,635.938L1392.62,637.129L1387.36,639.658L1382.16,639.76L1386.67,643.684L1383.7,652.622L1380.83,654.804L1378.68,652.791L1379.77,648.076L1376.96,646.542L1375.15,642.907L1379.35,641.267L1381.68,637.898L1386.15,635.111L1389.41,631.4L1398.26,629.769L1403.01,630.889L1407.66,621.067L1410.63,623.729L1417.15,618.142L1419.67,615.947L1422.47,608.969L1421.7,602.444L1423.58,598.733L1428.31,597.644L1430.73,605.773L1430.6,610.449L1426.48,616.182L1426.56,621.978Z" style="fill:rgb(254,254,228);fill-rule:nonzero;"/>
            <path d="M842.489,593.036L841.022,597.636L839.004,596.427L837.973,592.409L838.871,590.173L841.733,587.858L842.489,593.036Z" style="fill:rgb(254,254,228);fill-rule:nonzero;"/>
            <path d="M1439.6,580.716L1442.72,582.031L1445.87,579.404L1446.86,586.324L1440.27,587.991L1436.37,593.978L1429.38,589.867L1426.96,596.422L1422.02,596.511L1421.41,590.56L1423.61,585.889L1428.36,585.547L1429.65,576.991L1430.97,572.08L1436.19,578.627L1439.6,580.716Z" style="fill:rgb(254,254,228);fill-rule:nonzero;"/>
            <path d="M517.044,565.684L520.271,566.547L524.391,566.373L522.204,569.009L520.56,569.422L514.92,566.693L513.809,564.538L515.489,562.529L517.044,565.684Z" style="fill:rgb(254,254,228);fill-rule:nonzero;"/>
            <path d="M525.307,548.764L523.142,548.884L517.382,546.747L513.249,543.507L514.787,542.929L520.631,544.658L525.173,547.511L525.307,548.764Z" style="fill:rgb(254,254,228);fill-rule:nonzero;"/>
            <path d="M251.067,552.778L248.831,553.711L241.533,550.658L240.2,548.253L236.222,545.867L235.422,543.907L230.849,542.667L229.133,538.884L229.52,537.258L234.182,538.787L236.911,539.849L241.089,540.587L242.6,542.978L244.796,546.24L249.231,549.053L251.067,552.778Z" style="fill:rgb(254,254,228);fill-rule:nonzero;"/>
            <path d="M550.516,537.849L547.573,543.929L550.476,541.591L553.462,543.076L551.902,545.476L555.844,547.347L557.893,545.68L562.324,547.782L560.951,552.733L564.062,551.582L564.627,555.138L566.009,559.253L564.138,565.004L562.129,565.244L559.204,564.018L560.169,558.667L558.933,557.827L553.773,563.511L551.124,563.284L554.262,560.209L549.996,558.613L545.222,559.009L536.596,558.809L535.916,556.853L538.68,554.507L536.747,552.693L540.48,548.622L545.071,537.631L547.827,533.609L551.684,531.151L553.747,531.467L552.889,533.396L550.516,537.849Z" style="fill:rgb(254,254,228);fill-rule:nonzero;"/>
            <path d="M210.178,513.427L214.444,512.822L213.116,521.316L216.982,527.2L215.209,527.187L212.533,523.849L210.889,520.462L208.644,518.151L207.822,514.853L208.089,512.444L210.178,513.427Z" style="fill:rgb(254,254,228);fill-rule:nonzero;"/>
            <path d="M1438.44,537.418L1442.91,549.64L1436.33,547.391L1433.6,557.098L1437.92,563.822L1437.8,568.333L1434.44,564.444L1431.52,569.431L1430.7,564.022L1431.19,557.64L1430.68,550.431L1431.72,545.284L1431.91,535.982L1429.31,528.973L1429.7,518.964L1433.81,515.524L1432.04,512.027L1434.02,510.951L1435.18,515.956L1436.72,523.111L1436.6,530.253L1438.44,537.418Z" style="fill:rgb(254,254,228);fill-rule:nonzero;"/>
            <path d="M769.827,526.622L761.947,530.884L755.658,529.8L759.262,522.2L756.938,514.631L762.987,508.662L766.347,505.053L770.071,504.733L774.836,509.507L772.453,514.729L773.187,520.071L769.827,526.622Z" style="fill:rgb(254,254,228);fill-rule:nonzero;"/>
            <path d="M856.4,501.316L853.733,507.622L849.084,503.236L848.462,499.973L854.982,497.347L856.4,501.316Z" style="fill:rgb(254,254,228);fill-rule:nonzero;"/>
            <path d="M119.973,489.227L115.533,492.333L113.262,490.236L112.573,486.391L116.609,483.436L118.982,482.164L121.933,482.733L123.818,485.316L119.973,489.227Z" style="fill:rgb(254,254,228);fill-rule:nonzero;"/>
            <path d="M786.644,476.529L781.893,485.631L786.422,484.493L791.293,484.533L790.133,491.236L786.138,498.436L790.733,498.942L795.044,508.969L798.089,510.204L800.822,518.796L802.089,521.72L807.476,523.116L806.933,527.782L804.671,529.893L806.444,533.596L802.444,537.293L796.498,537.231L788.933,539.156L786.862,537.778L783.924,541.053L779.809,540.258L776.689,542.907L774.324,541.524L780.844,534.156L784.822,532.622L777.849,531.431L776.591,528.569L781.236,526.324L778.8,522.382L779.644,517.524L786.258,518.204L786.911,513.844L783.867,509.044L778.471,507.693L777.409,505.596L779.027,502.116L777.564,499.942L775.173,503.658L774.911,496.036L772.667,491.924L774.28,483.418L777.733,476.573L781.284,477.244L786.644,476.529Z" style="fill:rgb(254,254,228);fill-rule:nonzero;"/>
            <path d="M64.093,465.44L61.364,466.818L58.453,465.164L55.756,462.738L60.142,461.204L63.671,462.013L64.093,465.44Z" style="fill:rgb(254,254,228);fill-rule:nonzero;"/>
            <path d="M447.707,444.787L445.964,449.751L444,448.956L442.836,446.147L443.044,445.484L444.76,442.622L446.578,442.831L447.707,444.787Z" style="fill:rgb(254,254,228);fill-rule:nonzero;"/>
            <path d="M436.009,439.489L430.804,444.787L427.667,444.569L426.693,441.978L430,437.511L436.102,437.6L436.009,439.489Z" style="fill:rgb(254,254,228);fill-rule:nonzero;"/>
            <path d="M36.747,428.902L39.493,430.818L42.262,429.787L45.853,432.422L50.271,433.738L49.902,434.813L46.538,436.898L43.151,434.764L41.462,432.964L37.542,433.542L36.484,432.667L36.747,428.902Z" style="fill:rgb(254,254,228);fill-rule:nonzero;"/>
            <path d="M421.507,409.387L422.329,414.084L424.604,412.444L427.187,415.227L432.053,418.822L437.147,422.058L437.542,426.911L440.813,426.129L443.987,429.476L440.04,432.618L433.124,430.218L430.627,425.676L426.222,431.036L419.898,436.16L418.369,430.364L412.347,431.324L416.209,426.342L416.778,418.24L418.293,408.502L421.507,409.387Z" style="fill:rgb(254,254,228);fill-rule:nonzero;"/>
            <path d="M735.516,400.64L734.489,407.747L739.511,415.044L733.733,422.996L720.916,429.947L717.084,431.773L711.231,430.298L698.831,427.116L703.209,422.604L693.533,417.529L701.404,415.489L701.213,412.369L691.884,409.884L694.884,402.778L701.622,401.151L708.551,408.578L715.302,402.622L720.893,405.733L728.142,399.849L735.516,400.64Z" style="fill:rgb(254,254,228);fill-rule:nonzero;"/>
            <path d="M462.818,392.818L457.836,393.391L456.729,387.747L458.613,381.129L462.689,379.476L466.156,382.782L466.209,387.818L465.707,389.422L462.818,392.818Z" style="fill:rgb(254,254,228);fill-rule:nonzero;"/>
            <path d="M22.16,399.209L25.156,401.969L24.124,393.813L36.191,395.507L44.889,405.916L40.484,410.636L33.2,411.742L33.089,421.996L31.311,424.133L27.147,423.827L23.76,420.24L17.849,417.191L16.858,412.604L12.342,410.862L7.289,412.244L4.876,408.493L5.84,404.44L0.516,407.027L2.52,412.102L0,416.596L0,371.218L10.889,380.52L22.542,392.164L22.16,399.209Z" style="fill:rgb(254,254,228);fill-rule:nonzero;"/>
            <path d="M374.898,369.431L372.133,373.769L366.147,370.027L362.524,371.382L356.458,365.769L360.369,361.822L363.476,356.204L368.191,359.893L370.858,362.209L372.191,364.627L374.898,369.431Z" style="fill:rgb(254,254,228);fill-rule:nonzero;"/>
            <path d="M1600,347.044L1595.12,347.738L1594.33,343.409L1600,337.627L1600,347.044Z" style="fill:rgb(254,254,228);fill-rule:nonzero;"/>
            <path d="M5.804,346.218L0,347.044L0,337.627L0.569,337.036L4.338,337.062L10.764,341.067L10.382,342.942L5.804,346.218Z" style="fill:rgb(254,254,228);fill-rule:nonzero;"/>
            <path d="M397.569,364.524L397.547,377.209L403.489,367.542L408.8,375.507L407.476,384.404L411.778,392.244L416.418,383.827L419.658,373.44L419.902,359.609L426.218,360.604L432.791,362.489L438.756,368.756L439.022,374.884L435.716,381.32L438.849,387.644L438.284,393.253L429.582,401.129L423.4,402.844L418.804,399.502L417.476,405.053L413.196,414.138L411.898,418.729L406.742,425.702L400.382,426.373L396.871,430.636L396.578,437.062L391.409,438.28L385.969,446.062L381.147,456.538L379.427,463.662L379.178,473.836L385.711,475.271L387.711,483.191L389.791,489.467L396.009,487.84L404.271,491.382L408.711,494.453L411.893,498.236L417.462,500.413L422.169,503.72L429.511,504.173L434.342,504.929L433.618,511.591L435,519.151L438.218,527.36L444.831,534.173L448.253,531.849L450.658,524.422L448.338,512.662L445.2,508.64L452.316,505.022L457.351,499.516L459.818,493.956L459.453,488.516L456.436,481.467L451.036,475.076L456.28,465.942L454.342,457.822L452.858,443.253L455.951,441.044L463.573,443.644L468.142,444.578L471.822,442.062L475.96,445.302L481.436,450.76L482.782,454.356L490.711,455.044L490.578,462.667L492.053,473.769L496.111,475.111L499.333,480.12L505.769,475.4L510.022,465.782L512.964,461.636L516.422,469.551L522.213,480.498L527.129,490.436L525.338,495.524L531.249,500.004L535.244,504.493L542.333,506.502L545.187,508.956L546.947,515.391L550.409,516.382L552.196,519.196L552.52,527.44L549.293,530.151L546.102,532.662L538.778,535.191L533.187,540.947L525.671,542.071L516.169,540.613L509.498,540.564L504.893,541.044L501.173,545.996L495.507,549.013L489.093,557.871L483.982,563.92L487.756,562.853L494.889,554.187L504.213,548.573L510.862,547.893L514.796,551.218L510.6,555.711L512.004,562.809L513.458,567.684L519.231,570.884L526.573,569.96L531.031,562.711L531.338,567.404L534.209,569.729L528.711,573.889L518.867,577.627L514.458,580.142L509.493,584.591L506.12,584.138L505.947,578.907L513.667,573.72L506.551,573.929L501.613,574.693L502.378,576.751L497.636,579.778L493.067,581.916L488.373,583.738L485.822,587.738L485.267,588.738L485.222,591.938L486.689,595.111L488.533,595.262L488.067,593.08L489.4,594.409L489.044,596.111L486.044,597.076L483.911,596.956L480.622,597.991L478.689,598.289L476.107,598.578L472.4,600.289L478.929,599.173L480.244,600.293L474.022,602.053L471.191,602.067L471.324,601.347L469.969,602.969L471.28,603.236L470.32,607.413L467.084,611.831L466.756,610.364L465.778,610.067L464.32,608.627L465.244,611.716L466.298,612.738L466.413,614.88L464.991,617.076L462.489,621.56L462.084,621.333L463.458,617.52L461.187,615.364L460.667,610.627L459.809,613.098L460.76,616.698L457.956,615.849L460.88,617.627L461.071,622.956L462.347,623.342L462.809,625.258L463.436,630.756L460.609,634.796L456.009,636.396L453.089,639.551L450.871,639.893L448.618,641.853L447.987,643.636L443.107,647.076L440.6,649.578L438.507,652.676L437.822,656.36L438.604,659.933L440.089,664.311L442.062,667.902L442.089,670.084L444.191,675.893L444.053,679.24L443.862,681.164L442.751,684.173L441.422,684.791L439.236,684.2L438.533,682.04L436.844,680.902L434.489,676.64L432.422,672.822L431.756,670.858L432.667,667.507L431.422,664.72L427.956,660.444L426.222,659.658L421.738,661.987L420.942,661.729L418.787,659.333L416,658.062L410.978,658.711L407.031,658.142L403.644,658.498L401.756,659.218L402.604,660.662L402.533,662.738L403.476,663.747L402.631,664.413L400.982,663.667L399.311,664.631L396.089,664.471L392.769,661.773L388.893,662.413L385.662,661.227L382.898,661.587L379.156,662.782L375.111,666.551L370.693,668.738L368.267,671.138L367.244,673.396L367.2,676.84L367.422,679.222L368.267,680.902L368.271,680.916L368.258,680.924L366.542,685.227L365.764,688.747L365.44,695.24L365.013,697.596L365.782,700.209L367.16,702.547L368.049,706.24L370.996,709.764L372.036,712.458L373.773,714.773L378.493,716.013L380.329,717.978L384.227,716.667L387.618,716.196L390.947,715.351L393.742,714.547L396.569,712.627L397.627,709.876L397.996,705.893L398.76,704.502L401.773,703.258L406.471,702.147L410.409,702.316L413.102,701.911L414.169,702.924L414.018,705.218L411.631,708.04L410.573,710.92L411.391,711.742L410.729,713.778L409.613,717.436L408.484,716.231L407.556,716.311L407.573,717L408.413,717.018L408.342,718.289L407.622,720.311L408.009,721.031L407.542,722.698L407.822,723.142L407.311,725.489L406.436,726.716L405.636,726.862L404.751,728.467L406.2,729.307L406.587,728.613L407.889,729.204L408.351,729.382L409.324,728.569L410.596,728.507L411.009,728.884L411.698,728.653L413.764,729.071L415.818,728.951L417.249,728.44L417.769,727.924L419.187,728.16L420.249,728.471L421.413,728.369L422.293,727.964L424.324,728.609L425.031,728.707L426.387,729.573L427.671,730.604L429.289,731.311L430.458,732.578L430.076,733.018L429.849,734.044L430.302,735.724L429.28,737.284L428.8,739.124L428.658,741.142L428.898,742.316L429.009,744.369L428.329,744.813L427.911,746.76L428.218,747.956L427.311,749.12L427.516,750.342L428.196,751.084L429.324,753.538L431.04,755.36L433.129,757.284L434.724,758.898L434.631,759.853L436.404,760.053L436.827,759.689L438.049,760.796L440.236,760.467L442.124,759.333L444.822,758.427L446.342,757.08L448.796,757.342L448.631,757.787L451.107,757.942L453.084,758.72L454.538,760.071L456.209,761.32L458.502,761.458L461.84,758.316L463.667,757.84L463.711,756.347L464.533,752.533L467.08,750.431L469.88,750.347L470.236,749.404L473.711,749.778L477.209,747.489L478.942,746.471L481.093,744.284L482.667,744.564L483.836,745.76L482.969,747.289L482.844,748.36L480.236,748.893L481.684,750.947L481.631,753.316L479.671,755.933L481.351,759.511L483.267,759.218L484.267,755.96L482.889,754.369L482.662,750.947L488.2,749.111L487.582,746.969L489.142,745.538L490.738,748.724L493.853,748.8L496.742,751.324L496.916,752.822L500.907,752.862L505.653,752.396L508.2,754.422L511.6,754.982L514.093,753.569L514.142,752.431L519.649,752.156L524.973,752.093L521.2,753.431L522.72,755.564L526.271,755.902L529.64,758.12L530.351,761.724L532.667,761.618L534.409,762.68L537.324,764.333L540.076,767.253L540.2,769.56L541.876,769.667L544.258,771.849L546.013,773.404L551.338,774.298L551.813,773.493L555.409,773.173L560.187,774.369L561.698,774.867L564.969,775.92L569.676,779.684L570.409,781.511L571.924,781.302L573.022,783.764L575.516,791.551L577.893,792.28L578.013,795.351L574.671,799.009L576.053,800.347L583.911,801.044L584.071,805.502L587.444,802.587L593.036,804.182L600.418,806.898L602.587,809.502L601.858,811.964L607.027,810.596L615.676,812.947L622.316,812.773L628.889,816.462L634.564,821.453L637.987,822.738L641.787,822.916L643.4,824.324L644.907,830.018L645.644,832.724L643.876,840.147L641.613,843.089L635.347,849.378L632.516,854.507L629.227,858.453L628.116,858.547L626.876,861.902L627.191,870.516L625.951,877.658L625.48,880.733L624.076,882.573L623.284,888.858L618.778,895.04L618.022,899.969L614.427,902.053L613.387,904.938L608.556,904.929L601.564,906.787L598.436,908.942L593.458,910.364L588.227,914.249L584.467,919.129L583.818,922.831L584.556,925.582L583.729,930.653L582.72,933.12L579.613,935.911L574.68,944.956L570.773,949.089L567.751,951.538L565.724,956.564L562.782,959.609L560.862,962.982L555.84,965.987L552.56,964.907L550.156,965.484L546.044,963.16L543.031,963.338L540.324,960.364L540.022,963.173L545.662,967.809L545.058,971.578L547.836,973.978L547.609,976.68L543.338,983.871L536.747,986.916L527.836,988.102L522.951,987.529L523.884,990.947L522.973,995.28L523.796,998.222L521.129,1000.29L516.573,1001.1L512.302,998.96L510.587,1000.49L511.204,1006.4L514.209,1008.2L516.64,1006.32L517.964,1009.44L513.871,1011.31L510.302,1015.1L509.649,1021.32L508.6,1024.67L504.4,1024.69L500.916,1027.92L499.64,1032.72L504.013,1037.46L508.262,1038.78L506.733,1044.7L501.484,1048.48L498.596,1056.47L494.538,1059.2L492.72,1062.47L494.156,1069.85L497.111,1074.03L495.24,1073.66L491.284,1073.61L489.142,1075.4L485.133,1078.05L484.418,1085.01L482.533,1085.18L477.52,1082.74L472.431,1077.58L466.902,1073.4L465.511,1068.83L466.769,1064.66L464.533,1059.99L463.964,1048.32L465.853,1041.91L470.547,1036.84L463.804,1034.95L468.036,1029.28L469.547,1018.84L474.489,1021.03L476.809,1008.35L473.827,1006.75L472.44,1014.31L469.636,1013.45L471.031,1004.83L472.547,993.938L474.587,989.996L473.311,984.436L472.942,978.102L474.813,977.924L477.542,969.013L480.613,960.364L482.498,952.453L481.471,944.627L482.8,940.373L482.267,934.067L484.867,927.907L485.667,918.289L487.093,908.129L488.484,897.369L488.16,889.6L487.236,882.978L482.778,880.293L482.391,878.378L473.578,873.716L465.609,868.667L462.182,865.827L460.342,862.04L461.071,860.724L457.307,854.742L452.924,846.378L448.724,837.409L446.907,835.36L445.511,832.058L442.058,829.138L438.889,827.329L440.329,825.329L438.173,821.076L439.556,817.951L443.102,815.142L445.467,811.813L444.502,809.876L442.804,811.938L440.142,809.991L441.044,808.733L440.293,804.698L441.853,804.031L442.671,801.262L444.351,798.4L444.04,796.587L446.476,795.631L449.533,793.862L448.929,792.484L450.587,792.151L450.391,789.92L451.431,788.307L453.636,788.009L455.511,785.213L457.209,782.876L455.573,781.818L456.409,779.231L455.409,775.147L456.36,773.978L455.658,770.196L453.858,767.809L452.378,766.516L451.427,764.093L452.524,762.898L451.4,762.587L450.569,761.102L448.356,759.853L446.409,760.142L445.511,761.707L443.716,762.831L442.742,762.987L442.307,763.924L444.427,766.36L443.213,766.929L442.573,767.596L440.507,767.822L439.733,765.147L439.156,765.907L437.693,765.644L436.796,763.84L434.973,763.542L433.818,763.018L431.911,763.022L431.773,763.996L431.262,763.32L428.853,762.32L427.951,761.378L428.462,760.596L428.298,759.6L427.067,758.524L425.32,757.64L423.787,757.067L423.498,755.742L422.329,754.933L422.618,756.249L421.729,757.324L420.716,756.076L419.284,755.631L418.68,754.72L418.702,753.347L419.293,751.92L418.036,751.284L419.053,750.404L417.52,748.978L415.44,747.151L414.462,745.618L412.591,744.191L410.36,742.129L410.858,741.422L411.591,742.111L411.924,741.787L411.16,740.364L409.809,739.964L409.316,741.04L406.742,740.973L405.142,740.533L403.302,739.622L400.836,739.342L399.573,738.364L397.293,737.56L394.524,737.48L392.489,736.573L390.098,734.676L385.071,729.724L382.778,728.222L379.147,727.018L376.667,727.356L373.098,729.093L370.858,729.547L367.716,728.329L364.387,727.453L360.231,725.324L356.902,724.676L351.867,722.516L348.151,720.289L347.027,719.044L344.542,718.764L339.996,717.284L338.147,715.142L333.369,712.476L331.142,709.498L330.084,707.196L331.564,706.729L331.107,705.373L332.129,704.142L332.151,702.493L330.653,700.347L330.253,698.436L328.76,696.004L324.844,691.196L320.378,687.391L318.213,684.342L314.4,682.329L313.582,681.124L314.258,678.067L311.996,676.907L309.369,674.484L308.262,670.987L305.871,670.582L303.289,667.924L301.209,665.453L301.013,663.867L298.622,660.013L297.049,656.067L297.116,654.076L293.902,652.009L292.418,652.236L289.884,650.796L289.169,652.92L289.907,655.409L290.338,659.284L291.862,661.4L295.16,664.911L295.893,666.111L296.569,666.471L297.156,668.213L297.947,668.142L298.836,671.391L300.187,672.667L301.133,674.436L303.924,676.973L305.4,681.582L306.72,683.738L307.956,686.04L308.2,688.613L310.342,688.773L312.124,690.987L313.738,693.151L313.631,694.018L311.76,695.796L310.973,695.769L309.8,692.831L306.889,690.067L303.684,687.711L301.413,686.462L301.56,682.876L300.884,680.2L298.769,678.667L295.711,676.449L295.124,677.089L294.004,675.796L291.262,674.587L288.644,671.676L288.969,671.302L290.8,671.582L292.449,669.707L292.613,667.427L289.191,663.809L286.582,662.396L284.947,659.191L283.298,655.813L281.24,651.653L279.431,646.938L278.684,644.236L275.804,641.178L273.729,640.538L273.244,639L270.751,638.733L269.16,637.276L265.031,636.747L263.898,635.871L263.36,632.902L259.044,627.404L255.347,619.684L255.502,618.382L253.542,616.524L250.102,611.76L249.489,607.076L247.12,603.907L248.093,599.044L247.938,593.947L246.52,589.338L248.258,583.591L249.338,572.258L248.533,563.64L247.129,558.04L245.836,554.951L246.373,553.649L252.8,555.916L255.169,562.138L256.267,560.409L255.556,554.987L254.044,549.476L253.449,549.453L244.844,542.733L241.667,539.738L233.618,536.836L231.142,530.547L231.778,526.111L226.089,523.009L225.311,517.027L219.933,511.547L219.84,507.6L217.396,504.684L213.48,502.196L212.222,495.276L206.493,488.711L204.098,480.871L199.831,480.324L192.764,480.12L187.556,477.68L178.364,468.716L174.111,467.058L166.338,463.893L160.182,464.649L151.444,460.529L146.16,456.667L141.227,458.596L142.142,464.836L139.684,465.404L134.542,467.24L130.631,470.204L125.707,472.049L125.071,466.898L127.067,458.116L131.791,455.302L130.573,452.996L124.907,458.107L121.876,464.089L115.471,470.36L118.724,474.56L114.524,480.676L109.747,484.178L105.298,486.707L104.196,490.338L97.258,494.52L95.853,498.276L90.653,501.653L87.6,501.044L83.453,503.236L78.942,505.889L75.249,508.471L67.618,510.662L66.924,509.373L71.787,505.773L76.133,503.369L80.871,499.062L86.382,498.164L88.578,494.889L94.738,490.036L95.729,488.4L99.009,485.489L99.778,479.142L102.036,474.093L96.911,476.693L95.48,475.222L93.071,478.324L90.169,473.982L88.973,477.058L87.311,472.782L82.867,476.222L80.138,476.213L79.756,471.084L80.56,467.876L77.698,464.729L71.92,466.431L68.169,462.249L65.129,460.089L65.107,454.933L61.684,450.991L63.404,445.587L67.027,440.24L68.613,435.24L72.209,434.52L75.258,436.084L78.844,431.316L82.071,432.173L85.453,429.071L84.631,424.44L82.142,422.596L85.431,418.596L82.702,418.72L77.987,420.973L76.631,423.253L73.129,420.987L66.84,422.142L60.333,419.658L58.467,415.449L52.844,409.249L59.089,404.702L69,399.289L72.653,399.289L72.049,404.822L81.431,404.396L77.822,397.516L72.356,393.182L69.196,387.422L64.933,382.391L58.827,378.609L61.311,372.222L69.196,371.813L74.804,366.133L75.867,359.92L80.404,353.72L84.733,352.196L93.16,346.231L97.244,347.142L104.084,339.831L110.809,342.733L114.027,348.88L116,346.262L123.511,347.076L123.244,350.169L130.044,352.436L134.578,351.102L143.942,355.284L152.489,356.516L155.911,358.209L161.827,356.084L168.564,359.996L173.396,361.796L181.689,364.867L188.684,370.898L193.316,372.036L197.218,366.84L202.6,362.871L209.204,364.436L215.862,358.796L223.133,355.547L226.187,360.938L229.502,357.911L230.498,351.716L233.569,353.138L241.084,364.742L247,356.004L247.6,365.769L253.062,363.689L254.742,359.947L260.124,360.693L266.92,366.044L277.32,370.636L283.44,372.738L287.791,371.938L293.787,378.129L287.533,384.049L295.569,386.578L307.564,385.196L311.351,383.129L316.089,390.138L320.924,384.227L316.387,379.173L319.258,375.031L324.667,374.471L328.222,373.244L331.809,376.164L336.276,382.689L341.24,381.738L349.093,387.058L355.991,385.196L362.476,385.476L361.96,378.067L365.916,375.947L372.8,380.04L372.773,391.156L375.604,381.822L379.178,382.142L381.187,369.916L376.427,362.129L371.24,356.907L371.596,342.089L376.849,331.902L382.711,334.182L387.209,340.373L393.244,355.587L389.302,361.951L397.569,364.524Z" style="fill:rgb(254,254,228);fill-rule:nonzero;"/>
            <path d="M292.591,314.124L290.373,321.191L300.262,316.653L306.444,324.2L311.467,316.56L315.524,321.489L319.164,335.724L321.396,329.818L318.24,314.596L322.151,312.356L326.564,314.809L331.547,320.893L334.333,335.062L335.711,344.858L343.178,351.529L351.196,357.769L350.716,363.431L343.418,364.449L346.253,369.28L344.756,373.818L336.711,371.889L329.067,368.533L323.898,369.293L315.556,373.489L302.369,375.64L296.387,376.467L293.978,370.689L287.911,367.28L283.964,368.68L278.489,358.6L281.444,357.209L288.307,354.982L294.573,355.573L300.373,353.28L291.778,350.169L282.28,351.236L275.978,350.956L273.636,346.004L283.942,340.511L277.084,340.707L269.324,337.022L273.053,326.284L276.151,320.4L288.049,311.138L292.591,314.124Z" style="fill:rgb(254,254,228);fill-rule:nonzero;"/>
            <path d="M335.556,309.507L331.644,319.591L324.711,308.884L326.222,306.689L332.178,306.058L335.556,309.507Z" style="fill:rgb(254,254,228);fill-rule:nonzero;"/>
            <path d="M460.711,314.4L461.107,318.6L456.382,318.147L451.591,317.831L446.729,319.862L445.44,318.947L440.551,310.858L440.738,305.218L442.876,304.156L453.049,305.867L460.711,314.4Z" style="fill:rgb(254,254,228);fill-rule:nonzero;"/>
            <path d="M415.28,313.573L418.782,322.96L422.889,310.751L434.151,304.302L441.778,320.236L441.116,329.858L449.907,325.64L454.111,319.742L463.973,327.222L470.093,334.084L470.671,340.204L478.924,337.049L483.556,345.853L494.284,351.169L498.156,356.489L502.36,368.458L494.2,374.222L504.667,382.107L511.724,384.698L518.111,395.338L525.102,396.084L523.72,403.911L515.92,416.396L510.449,411.867L503.462,401.396L497.711,402.778L497.151,409.031L501.822,415.244L507.858,420.062L509.689,422.8L512.582,432.8L511.049,439.844L505.444,437.209L494.298,429.271L500.578,437.804L505.209,443.636L505.929,446.951L493.88,443.156L484.342,437.542L478.956,432.747L480.507,429.933L473.876,424.738L467.404,419.742L467.471,422.738L454.622,424.369L450.862,420.84L453.791,413.116L462.142,412.924L471.289,411.56L469.804,407.711L471.356,402.244L477.107,391.258L475.884,386.124L474.169,382.084L467.364,376.236L458.36,372.071L461.204,368.933L456.502,361.053L452.582,360.333L449.08,355.902L446.702,359.738L438.644,361.4L422.467,358.507L413.067,354.68L405.858,352.684L402.164,347.991L406.809,341.769L400.498,341.702L399.089,327.351L402.502,314L407.076,307.662L418.551,303.458L415.28,313.573Z" style="fill:rgb(254,254,228);fill-rule:nonzero;"/>
            <path d="M353.973,302.818L359.271,306.169L367.2,304.156L368.356,308.724L364.204,316.107L370.933,322.573L370.133,335.6L362.844,341.009L358.564,339.858L355.489,334.493L344.444,323.316L344.533,318.542L353.609,320.4L348.711,310.44L353.973,302.818Z" style="fill:rgb(254,254,228);fill-rule:nonzero;"/>
            <path d="M1438.24,312.724L1431.5,312.836L1422.39,311.107L1421.61,310.284L1425.83,304.076L1431.39,302.596L1437.7,308.649L1438.24,312.724Z" style="fill:rgb(254,254,228);fill-rule:nonzero;"/>
            <path d="M385.796,319.413L381.027,330.391L375.956,329.858L373.182,316.88L373.253,309.24L375.573,302.533L379.982,298.129L389.244,298.698L397.733,302.609L391.093,316.484L385.796,319.413Z" style="fill:rgb(254,254,228);fill-rule:nonzero;"/>
            <path d="M264.622,339.244L252.924,346.098L250.578,340.08L240.316,332.631L241.809,327.933L245.302,315.618L249.156,305.427L244.809,295.547L259.831,292.973L266.178,296.4L277.529,297.298L281.849,301.987L286.618,308.649L281.031,312.556L270.133,323.169L264.622,333.329L264.622,339.244Z" style="fill:rgb(254,254,228);fill-rule:nonzero;"/>
            <path d="M1469.92,282.231L1464.78,288.964L1457.68,287.462L1449.42,280.689L1450.48,275.004L1458.76,277.671L1469.92,282.231Z" style="fill:rgb(254,254,228);fill-rule:nonzero;"/>
            <path d="M383.942,284.022L381.524,290.596L375.071,289.338L369.684,284.911L372.049,277.107L378.44,272.329L382.32,278.547L383.942,284.022Z" style="fill:rgb(254,254,228);fill-rule:nonzero;"/>
            <path d="M1444.83,273.827L1441.33,286.751L1424.95,286.276L1417.58,290.276L1408.77,279.142L1411.16,266.858L1417.03,263.391L1428.76,264.209L1444.83,273.827Z" style="fill:rgb(254,254,228);fill-rule:nonzero;"/>
            <path d="M362.222,252.347L365.618,261.156L365.76,270.6L363.733,283.68L356.404,285.44L351.627,282.698L351.72,272.436L344.436,273.809L344.151,259.653L348.933,260.258L355.631,253.778L361.88,254.871L362.222,252.347Z" style="fill:rgb(254,254,228);fill-rule:nonzero;"/>
            <path d="M319.062,262.182L320.804,268.733L324.76,265.68L329.418,266.489L330.2,275.302L327.498,283.591L312.444,286.24L301.231,293.507L294.471,293.884L293.907,288.444L303.138,280.867L283.058,282.938L276.844,279.84L282.907,262.24L287.089,256.969L299.596,263.316L307.493,274.08L315.258,275.427L308.902,257.898L312.973,250.911L317.56,253.16L319.062,262.182Z" style="fill:rgb(254,254,228);fill-rule:nonzero;"/>
            <path d="M1055.72,348.56L1053.09,349.729L1038.56,347.978L1037.39,341.92L1029.34,338.2L1028.69,330.538L1033.24,327.44L1033.08,319.369L1041.9,306.249L1037.81,304.316L1048.45,290.009L1047.25,282.284L1057.2,273.009L1071.87,261.249L1086.66,257.729L1094.27,250.6L1102.92,248.058L1106.01,255.711L1103.03,261.587L1087.28,270.689L1073.71,279.16L1059.9,295.284L1053.28,310.858L1046.31,325.364L1047.21,337.276L1055.72,348.56Z" style="fill:rgb(254,254,228);fill-rule:nonzero;"/>
            <path d="M379.182,244.929L384.116,251.262L392.867,251.204L396.702,257.52L395.689,264.56L400.791,268.698L403.613,272.991L409.609,273.773L416.093,275.267L423.156,271.391L432.209,269.858L439.427,271.124L444.187,277.827L445.182,284.996L442.409,289.502L435.782,293.089L430.093,291.062L417.347,293.622L408.222,293.92L401.044,291.862L389.236,286.444L387.698,276.947L387.156,268.062L382.693,259.996L373.502,257.693L368.351,251.747L370.022,243.671L379.182,244.929Z" style="fill:rgb(254,254,228);fill-rule:nonzero;"/>
            <path d="M283.56,233.809L282.951,249.293L279.529,256L275.378,256.933L267.116,264.947L260,267.751L253.978,263.764L261.52,249.529L270.649,236.556L277.467,236.844L283.56,233.809Z" style="fill:rgb(254,254,228);fill-rule:nonzero;"/>
            <path d="M1275.42,247.387L1276.62,256.951L1280.68,252.289L1293.68,252.542L1303.69,261.809L1307.26,268.698L1306.16,277.987L1301.24,283.129L1289.56,292.511L1286.22,297.396L1291.73,299.671L1298.31,303.711L1302.31,300.684L1304.58,310.827L1306.53,306.764L1313.64,304.267L1327.89,306.876L1328.98,314.138L1347.56,316.409L1347.81,304.556L1357.24,307.316L1364.34,307.24L1371.52,315.373L1373.56,324.951L1370.93,331.04L1376.52,342.116L1383.51,347.653L1387.79,333.102L1394.92,339.44L1402.5,335.671L1411.1,339.969L1414.37,336.049L1421.64,338.018L1418.44,324.702L1424.3,318.253L1464.44,327.862L1468.23,336.347L1479.86,346.911L1497.81,344.338L1506.66,346.573L1510.36,352.129L1509.82,361.667L1515.29,365.298L1521.24,362.693L1529.12,362.36L1537.51,364.858L1545.94,363.444L1553.68,374.542L1559.19,370.6L1555.59,362.551L1557.57,356.818L1571.75,360.436L1581,359.676L1593.78,365.769L1600,371.218L1600,416.596L1599.97,416.658L1594.25,421.231L1588.49,420.476L1592.5,425.938L1595.15,434.196L1597.2,436.836L1597.72,440.858L1596.57,443.404L1588.28,441.311L1575.86,448.476L1571.91,449.564L1565.11,456.071L1558.66,461.636L1557.03,465.684L1550.67,459.502L1539.09,466.511L1537.07,463.213L1532.79,467.013L1526.84,465.8L1525.41,471.569L1520.08,479.858L1520.24,483.253L1525.3,485.116L1524.7,496.964L1520.58,497.258L1518.67,503.853L1520.52,507.2L1512.75,511.12L1511.21,519.702L1504.58,521.507L1503.25,528.916L1496.84,535.564L1495.2,530.662L1493.3,520.027L1490.82,503.111L1492.95,492.062L1496.7,487.182L1496.93,483.311L1503.84,481.436L1511.78,470.667L1519.43,461.573L1527.42,454.316L1531,441.036L1525.59,441.853L1522.92,449.658L1511.65,459.764L1508.01,448.431L1496.54,451.596L1485.41,466.782L1489.08,472.142L1479.16,474.396L1472.29,475.28L1472.61,469.018L1465.71,467.68L1460.2,471.978L1446.61,470.484L1431.99,473.053L1417.59,489.458L1400.56,508.16L1407.56,509.129L1409.75,513.907L1414.07,515.578L1416.91,511.796L1421.78,512.289L1428.2,520.538L1428.35,526.773L1424.88,533.947L1424.5,542.32L1422.5,553.2L1415.8,562.76L1414.31,567.244L1408.28,574.662L1402.29,581.858L1399.42,585.493L1393.5,589.058L1390.69,589.138L1387.9,586.191L1381.94,590.627L1381.24,592.631L1379.56,592.271L1377.63,594.298L1376.3,596.324L1376.47,600.569L1374.17,601.867L1373.38,602.902L1371.7,604.622L1368.75,605.578L1366.82,607.133L1366.68,609.631L1366.16,610.262L1367.92,611.196L1370.44,613.698L1374.28,620.356L1375.38,623.969L1375.41,630.316L1373.74,633.307L1369.72,634.347L1366.16,636.591L1362.16,637.053L1361.66,634.111L1362.48,630.022L1360.52,624.289L1363.82,623.356L1360.78,618.573L1358.62,617.502L1358.08,618.564L1356.78,619.027L1356.62,617.973L1355.47,617.453L1354.28,616.556L1355.49,614.058L1356.54,613.391L1356.15,612.351L1357.28,609.262L1356.98,608.316L1354.39,607.693L1352.29,606.138L1346.08,607.822L1342.81,610.511L1338.02,612.071L1340.38,609.418L1339.45,607.173L1342.97,603.271L1340.63,600.2L1336.75,602.267L1331.73,606.32L1328.99,610.044L1324.64,610.32L1322.37,612.982L1324.71,616.818L1328.35,617.747L1328.5,620.267L1332.01,621.898L1336.99,617.898L1340.94,620.084L1343.81,620.227L1344.53,623.151L1338.24,624.707L1336.16,627.68L1331.84,630.436L1329.56,634.244L1334.34,637.213L1336.09,642.476L1338.8,647.333L1341.81,651.36L1341.74,655.227L1338.95,656.64L1340.01,659.387L1342.63,660.978L1341.95,665.133L1340.82,669.147L1338.34,669.6L1335.09,675.031L1331.49,681.542L1327.36,687.404L1321.25,691.893L1315.07,695.964L1310.06,696.516L1307.35,698.653L1305.81,697.093L1303.29,699.476L1297.08,701.88L1292.38,702.613L1290.86,707.636L1288.4,707.916L1287.24,704.467L1288.29,702.622L1282.32,701.093L1280.22,701.871L1274.29,705.947L1270.59,710.422L1269.61,713.693L1273.01,718.631L1277.16,724.711L1281.2,727.578L1283.9,731.284L1285.93,739.773L1285.33,747.787L1281.63,750.773L1276.54,753.68L1272.91,757.444L1267.37,761.636L1265.76,758.751L1267,755.693L1263.71,753.129L1259.99,752.467L1258.18,750.111L1255.93,745.422L1251.94,743.333L1248.14,743.422L1248.8,739.836L1244.88,739.862L1244.53,744.876L1242.13,751.507L1240.68,755.493L1240.99,758.76L1243.88,758.898L1245.69,763.004L1246.48,766.884L1248.96,769.453L1251.66,769.969L1253.96,772.293L1254.98,772.711L1257.61,775.409L1259.47,778.396L1259.73,781.396L1259.25,783.422L1259.69,784.956L1260.01,787.591L1261.58,788.813L1263.32,792.751L1263.24,794.253L1260.09,794.551L1255.88,791.258L1250.63,787.724L1250.11,785.458L1247.53,782.48L1246.92,778.787L1245.32,776.351L1245.8,773.102L1244.83,771.209L1243.07,769.493L1242.31,767.271L1239.95,764.742L1237.8,762.613L1237.07,765.253L1236.22,762.756L1236.71,759.951L1238.02,755.631L1237.59,752.28L1238.96,748.809L1237.46,746.124L1237.82,741.164L1236.02,738.791L1234.57,733.307L1233.76,727.48L1231.84,723.64L1228.92,725.969L1223.86,729.267L1221.37,728.853L1218.62,727.769L1220.15,722.022L1219.22,717.649L1215.74,712.236L1216.28,710.538L1213.68,709.933L1210.53,706.067L1209.26,703.591L1209,701.156L1208.16,698.849L1206.3,696.049L1202.2,695.858L1202.61,697.84L1201.21,700.511L1199.32,699.542L1198.68,700.413L1197.42,699.889L1195.7,699.458L1195.06,701.204L1192.04,701.151L1186.56,702.142L1186.81,705.724L1184.44,708.529L1178.04,711.711L1173.07,717.24L1169.73,720.187L1165.3,723.231L1165.29,725.369L1163.08,726.511L1159.08,728.169L1157,728.413L1155.67,731.933L1156.59,737.902L1156.83,741.693L1154.94,746.018L1154.92,753.716L1152.63,753.933L1150.6,757.378L1151.96,758.858L1147.9,760.138L1146.4,763.191L1144.62,764.48L1140.41,760.289L1138.36,753.973L1136.65,749.413L1135.09,747.267L1132.73,742.898L1131.63,737.182L1130.86,734.32L1126.82,727.987L1124.98,718.982L1123.65,712.987L1123.67,707.267L1122.8,702.809L1116.33,705.653L1113.2,705.089L1107.4,699.302L1109.53,697.56L1108.22,695.676L1103.01,691.564L1099.75,690.338L1098.43,686.831L1094.99,683.098L1086.8,684.022L1079.58,684.111L1073.32,684.804L1064.96,683.32L1060.12,682.187L1055.1,681.547L1053.2,675.467L1051.08,674.582L1047.66,675.471L1043.18,677.88L1037.75,676.227L1033.26,672.391L1028.98,670.96L1026.01,666.164L1022.73,659.36L1020.34,660.191L1017.52,658.489L1015.86,660.493L1013.22,660.244L1014.15,662.507L1013.75,663.671L1015.18,667.498L1016.92,671.844L1019.11,672.991L1019.87,674.747L1022.9,676.84L1023.17,678.889L1022.72,680.538L1023.29,682.196L1024.57,683.573L1025.16,685.187L1025.82,686.387L1025.53,682.818L1026.72,680.227L1027.94,679.693L1029.28,681.244L1029.36,684.124L1028.4,687.009L1029.24,688.876L1030.04,688.64L1030.2,689.973L1033.68,689.209L1037.35,689.333L1040.04,689.476L1043.08,686.173L1046.4,683.027L1049.2,679.991L1050.5,678.298L1051.05,678.733L1050.63,680.773L1050.05,681.671L1050.65,685.551L1052.64,688.893L1055.13,690.658L1058.39,691.293L1061.02,692.178L1063.02,694.956L1064.22,696.556L1065.81,697.164L1065.8,698.24L1064.19,701.098L1063.48,702.436L1061.6,703.96L1059.95,707.218L1057.93,706.964L1057,708.098L1056.29,710.498L1056.84,713.644L1056.42,714.222L1054.37,714.209L1051.6,715.964L1051.16,718.244L1050.15,719.231L1047.38,719.191L1045.64,720.369L1045.67,722.249L1043.52,723.538L1041.06,723.102L1038.09,724.667L1036.04,724.933L1032.82,726.173L1031.96,728.231L1031.86,729.809L1027.43,731.751L1020.33,733.898L1016.35,737.133L1014.4,737.387L1013.06,737.116L1010.46,739.018L1007.63,739.893L1003.9,740.133L1002.78,740.391L1001.8,741.596L1000.64,741.929L999.956,743.089L997.756,742.987L996.333,743.609L993.258,743.373L992.102,740.711L992.231,738.213L991.502,736.862L990.631,733.471L989.356,731.578L990.244,731.351L989.791,729.244L990.329,728.351L990.129,726.338L989.556,724.356L988.213,722.956L987.871,721.102L985.578,719.431L983.204,715.502L981.951,711.671L978.88,708.422L976.898,707.644L973.956,703.111L973.44,699.791L973.627,696.942L971.08,691.587L968.996,689.684L966.596,688.676L965.133,685.876L965.373,684.773L964.142,682.222L962.844,681.12L961.107,677.436L958.4,673.413L956.133,669.969L953.92,669.991L954.613,667.222L954.809,665.44L955.36,663.409L955.213,662.676L953.964,664.724L953.009,668.551L951.796,671.173L950.764,672.049L949.28,670.431L947.276,668.178L944.102,660.884L943.644,661.351L945.489,666.724L948.218,671.791L951.578,679.56L953.218,682.24L954.644,685.018L958.636,690.427L957.751,691.271L957.893,694.422L963.071,698.742L963.849,699.729L965.284,704.413L964.307,705.276L964.956,710.156L966.587,715.778L968.28,716.929L970.711,718.658L973.293,724.049L974.516,728.302L976.951,730.551L983.018,734.898L985.489,737.511L987.898,740.151L989.289,741.72L991.471,743.089L992.524,744.498L992.382,746.387L989.849,747.471L991.756,748.716L993.204,749.547L994.076,751.422L996.08,753.316L998.284,753.333L1002.48,752.173L1007.32,751.636L1011.23,750.231L1013.43,749.933L1015.02,749.111L1017.55,748.947L1018.97,748.858L1021.02,748.182L1023.37,747.724L1025.48,746.173L1027.16,746.16L1027.26,747.418L1026.85,750.053L1026.87,752.431L1025.93,754.062L1024.68,758.938L1022.54,763.96L1019.79,769.684L1015.97,776.236L1012.18,781.231L1006.96,787.307L1002.51,790.907L995.858,795.32L991.716,798.702L986.853,804.084L985.827,806.427L984.822,807.48L981.711,809.258L980.613,811.116L978.947,811.44L978.316,814.578L976.889,816.373L976.022,819.333L974.231,820.809L972.178,826.311L972.444,828.844L975.289,830.471L975.422,831.636L974.2,834.342L974.453,835.707L974.164,837.849L975.716,840.671L977.556,845.116L979.187,846.102L979.907,848.129L979.72,852.644L980.271,856.636L980.444,863.778L981.227,866.027L979.898,869.311L978.173,872.52L975.347,875.396L971.28,877.16L966.271,879.418L961.249,884.44L959.538,885.293L956.436,888.64L954.604,889.729L954.231,893.107L956.338,896.707L957.213,899.511L957.271,900.942L958.058,900.707L957.929,905.427L957.209,907.671L958.253,908.502L957.596,910.529L955.738,912.262L952.071,913.911L946.724,916.569L944.778,918.391L945.156,920.471L946.293,920.809L945.911,923.418L944.8,927.053L944.276,931.231L943.124,933.516L940.093,936.08L939.227,936.818L937.342,939.418L936.102,942.062L933.582,945.764L928.556,951.151L925.422,954.316L922.067,956.724L917.418,958.791L915.156,959.067L914.582,960.556L911.88,959.764L909.68,960.782L904.862,959.747L902.169,960.4L900.329,960.12L895.747,962.24L891.951,963.093L889.204,965.133L887.187,965.262L885.302,963.338L883.8,963.236L881.889,960.84L881.68,961.582L881.089,960.142L881.111,957.013L879.667,953.462L881.102,952.502L880.987,948.484L878.076,943.618L875.844,939.258L875.836,939.244L872.644,932.627L869.342,928.813L867.604,925.16L866.622,920.316L865.524,916.747L864.036,909.213L863.938,903.431L863.369,900.804L861.64,898.831L859.342,894.893L857.009,889.204L856.04,886.249L852.422,881.671L852.151,878.093L851.733,875.169L852.351,871.102L853.884,866.88L854.116,864.911L855.556,860.782L856.618,858.911L859.169,855.929L860.596,853.907L861.062,850.542L860.831,847.973L859.498,846.36L858.316,843.622L857.222,840.916L857.462,839.982L858.831,838.2L857.48,833.858L856.569,830.862L854.342,828.031L854.769,827.164L854.142,825.778L852.956,822.422L849.307,817.698L844.738,813.2L841.8,809.533L839.102,804.938L839.244,803.462L840.218,802.04L841.293,798.804L842.191,795.511L841.36,794.84L842.884,789.844L843.533,786.338L841.796,783.391L839.769,782.636L838.867,780.64L837.729,779.996L837.778,778.764L833.164,780.373L831.48,780.133L829.769,781.133L826.213,781.036L823.836,778.249L822.373,775.018L819.227,772.071L815.884,772.133L811.964,772.129L808.289,772.649L804.711,773.6L797.742,776.213L795.271,777.751L791.267,779.04L787.307,777.773L785.284,777.822L782.182,776.947L779.333,777L774.071,777.778L770.982,779.067L766.582,780.702L765.724,780.582L764.56,780.622L759.978,778.493L755.942,775.098L752.156,772.653L749.16,769.769L747.964,769.44L744.764,767.631L742.449,765.231L741.671,763.591L741.124,760.271L739.178,757.604L737.449,755.844L736.311,755.258L735.2,754.36L734.698,752.364L734.049,751.364L732.756,750.622L730.382,748.733L728.511,748.427L727.489,747.151L727.516,746.458L726.16,745.493L725.88,744.52L725.151,741.031L725.716,739.004L723.884,735.44L721.667,733.8L723.622,732.929L725.773,729.693L726.831,727.32L726.444,724.827L727.684,722.533L728.24,718.142L727.747,713.507L727.209,711.169L727.653,708.809L726.507,706.556L724.164,704.502L724.356,702.493L724.564,700.271L726.271,698.969L727.724,696.462L727.44,694.831L728.964,691.413L731.44,688.32L732.938,687.533L734.111,684.676L734.218,682.058L735.822,679L738.782,677.191L741.6,672.093L743.916,670.093L748.049,669.533L751.551,666.08L753.778,664.724L757.489,660.458L756.378,654.04L758.067,649.551L758.662,646.778L761.524,643.204L765.982,640.769L769.28,638.56L772.249,632.964L773.644,629.613L776.916,629.64L779.596,631.956L783.822,631.582L788.427,632.782L790.356,632.84L794.627,629.862L799.436,628.907L802.24,626.64L806.52,624.956L814.053,623.969L821.404,623.52L823.644,624.347L827.831,622.151L832.582,622.107L834.387,623.4L837.427,623.067L842.267,620.818L845.378,621.484L845.249,624.302L849.018,622.258L849.333,623.324L847.111,626.04L847.08,628.582L848.622,629.947L848.036,634.662L845.111,637.373L845.956,640.293L848.253,640.387L849.373,642.924L851.062,643.751L856.28,645.573L858.147,645.12L861.862,646.004L867.76,648.36L869.84,653.009L873.831,654.018L880.093,656.191L884.827,658.756L886.996,657.413L889.124,655.036L888.089,651.049L889.484,648.502L892.684,646.031L895.747,645.311L901.76,646.396L903.276,648.742L904.929,648.769L906.342,649.662L910.76,650.28L911.844,652.004L917.756,651.916L922.036,653.293L926.449,654.827L928.507,655.636L931.924,653.991L933.756,652.498L937.676,652.071L940.836,652.729L942.049,655.302L943.08,653.613L946.64,654.836L950.102,655.129L952.293,653.827L953.587,652.107L953.28,651.809L954.458,649.364L955.36,645.391L955.996,644.049L956.116,643.996L957.698,639.653L959.911,635.867L959.991,635.68L959.578,631.524L960.667,629.28L959.031,626.782L960.716,624.707L958.004,625.182L954.284,623.907L951.231,627.089L944.484,627.711L940.889,624.747L936.098,624.556L935.071,626.849L932,627.507L927.702,624.56L922.849,624.662L920.218,619.111L916.969,615.991L919.133,611.569L916.316,608.822L921.244,603.284L928.089,603.049L929.956,598.582L938.427,599.364L943.769,595.524L948.947,593.836L956.302,593.707L964.058,597.898L970.436,600.182L975.613,599.276L979.436,599.8L984.684,596.711L985.347,594.169L984.236,590.071L981.667,587.836L979.204,587.133L977.578,585.267L971.911,580.058L966.84,577.711L963,574.018L966.236,573.013L969.924,567.676L967.44,565.12L973.991,562.467L973.871,561.044L969.884,562.098L966.333,562.618L963.378,564.72L959.218,565.062L955.387,567.467L955.649,571.444L957.822,572.973L962.356,572.596L961.489,574.849L956.622,575.938L950.591,579.547L948.116,578.284L949.098,575.342L944.24,573.493L945.027,572.284L949.28,570.164L947.996,568.702L941.084,567.08L940.778,564.671L936.662,565.471L935.013,569.013L931.569,573.716L931.676,575.333L929.52,576.689L928.169,576.102L926.924,583.591L924.618,586.133L922.996,590.476L924.431,593.898L924.956,596.196L928.84,598.111L928.031,599.556L922.751,599.88L920.858,601.698L917.147,604.844L915.747,602.124L915.809,600.916L913.102,600.751L910.782,600.196L905.4,601.72L908.48,605L906.222,605.947L903.747,605.951L901.396,602.956L900.56,604.231L901.556,607.702L903.778,610.4L902.102,611.653L904.578,614.28L906.778,615.924L906.844,619.107L902.733,617.618L904.044,620.48L901.222,621.067L902.907,625.973L899.956,626.04L896.311,623.631L894.644,619.164L893.867,615.413L892.133,612.8L889.858,609.538L889.556,607.898L888.8,607.493L888.711,606.218L886.249,604.267L885.862,601.484L886.24,597.467L886.844,595.618L886.098,594.676L885.164,594.218L883.92,592.262L882,591.067L877.822,588.831L875.244,586.64L871.182,584.827L867.44,580.289L868.338,579.822L866.311,577.196L866.231,575.08L863.373,574.084L862.009,576.804L860.698,574.698L860.8,572.507L860.956,572.404L861.947,571.827L858.409,570.898L854.796,573.151L855.04,576.28L854.493,578.058L855.951,581.227L860.12,584.329L862.356,589.369L867.302,594.218L870.782,594.182L871.867,595.498L870.618,596.684L874.6,598.822L877.862,600.604L881.676,603.658L882.133,604.747L881.307,606.822L878.84,604.111L874.978,603.156L873.107,606.916L876.32,609.049L875.791,612.04L873.933,612.378L871.56,617.244L869.707,617.68L869.724,615.951L870.631,612.907L871.596,611.693L869.862,608.364L868.507,605.449L866.658,604.72L865.347,602.2L862.493,601.138L860.569,598.773L857.28,598.387L853.809,595.707L849.742,591.813L846.72,588.333L845.333,582.284L843.124,581.569L839.507,579.524L837.462,580.36L834.893,583.227L833.044,583.676L829.018,587.133L820.253,585.48L813.782,587.462L813.271,591.107L813.507,594.591L809.298,598.547L803.6,599.791L803.204,601.773L800.476,605.004L798.76,609.711L800.493,612.978L797.924,615.516L796.964,619.182L793.609,620.298L790.462,624.578L784.818,624.662L780.582,624.556L777.8,626.507L776.102,628.587L773.929,628.133L772.28,626.271L771.022,623.084L766.871,622.222L765.084,623.667L762.742,622.884L760.449,623.498L761.129,619.129L760.711,615.662L758.724,615.138L757.662,612.987L758.013,609.24L759.787,607.147L760.102,604.804L761.027,601.284L760.929,598.796L760.04,596.667L759.844,594.658L760.071,590.382L758.253,587.756L764.542,583.347L769.978,584.449L775.947,584.413L780.676,585.458L784.364,585.138L791.551,585.338L793.849,581.649L794.693,569.124L790.107,562.338L786.831,559.027L780.036,556.48L779.591,551.609L785.351,550.138L792.813,551.88L791.409,544.178L795.604,547.116L805.951,541.751L807.284,536.018L811.169,534.596L814.733,533.191L817.022,531.236L820.916,520.524L826.996,517.413L830.689,517.622L831.56,516.036L835.271,515.631L836.098,517.28L839.116,513.573L838.098,510.72L837.893,506.364L836.089,502.036L835.956,493.907L836.698,491.724L837.973,489.276L841.884,488.769L843.449,486.498L847.022,484.16L846.871,488.409L845.556,491.071L846.089,493.342L848.498,494.56L847.413,497.587L846.089,496.716L842.889,502.413L844.098,506.209L844.178,509.182L848.667,510.964L848.622,513.662L853.138,512.244L855.636,510.151L860.658,513.156L862.756,515.564L865.791,513.347L872.729,509.827L878.324,507.222L882.76,508.524L883.093,510.396L887.382,510.493L888.391,507.111L894.524,504.6L893.582,497.982L893.738,491.933L895.92,486.796L900.107,483.969L903.636,490.129L907.204,489.964L908.058,483.627L908.573,478.676L906.938,479.733L904.12,476.72L903.733,471.778L909.351,469.347L914.951,468.076L919.773,469.524L924.36,469.262L929.413,464.391L924.756,460.133L916.689,460.844L908.876,464.133L901.644,466.004L899.071,461.133L894.764,458.169L895.756,449.076L893.596,440.493L895.716,434.804L899.747,428.547L909.916,417.413L912.88,415.204L912.418,410.711L906.24,405.591L898.591,408.667L894.284,416.111L894.978,422.48L887.907,430.636L879.324,439.107L876.089,452.471L879.249,458.92L883.502,463.911L879.418,473.796L874.796,475.804L873.102,489.84L870.578,497.4L865.187,496.627L862.671,502.898L857.524,503.258L856.111,495.778L852.391,486.547L849.009,474.636L846.031,469.311L837.253,479.267L831.329,481.24L825.182,476.933L823.591,467.618L822.187,446.573L826.28,440.418L838.018,432.191L846.791,421.738L854.924,406.973L865.604,385.138L873.049,376.142L885.262,360.436L895.013,354.747L902.329,355.444L909.098,344.338L917.2,344.956L925.182,342.227L939.084,352.116L933.356,355.653L938.227,363.764L942.813,359.298L950.116,367L962.284,369.991L979.076,383.707L982.489,389.271L982.782,396.876L977.849,402.742L970.591,405.667L950.751,397.236L947.489,398.662L954.733,406.756L955.307,422.48L961.027,425.604L964.502,428.227L965.076,423.293L962.302,418.689L965.227,414.876L975.973,421.378L979.716,418.844L976.724,411.107L987.08,400.413L991.182,401.049L995.333,404.911L997.92,397.28L994.213,390.484L996.391,383.484L993.124,376.044L1005.56,379.92L1008.09,386.556L1002.47,387.991L1002.5,394.404L1006,398.271L1012.86,395.822L1013.95,388.502L1023.24,382.916L1038.75,372.542L1042.1,373.142L1037.72,380.507L1043.23,381.751L1046.41,377.644L1054.74,377.316L1061.34,372.244L1066.41,379.573L1071.46,371.502L1066.8,364.249L1069.11,360.022L1082.24,363.902L1088.39,367.844L1104.5,381.809L1107.47,375.493L1102.95,368.982L1102.82,366.311L1097.47,365.071L1098.93,359L1096.56,348.707L1096.42,344.369L1104.62,331.684L1107.54,318.329L1110.84,315.36L1122.61,319.351L1123.54,327.569L1119.32,339.12L1122.09,343.533L1123.52,352.951L1122.51,370.511L1127.41,378.018L1125.51,385.969L1116.8,402.147L1121.88,403.769L1123.65,399.778L1128.54,396.907L1129.72,391.267L1133.56,385.733L1130.97,378.969L1133.05,370.911L1128.19,369.893L1127.12,362.871L1130.67,349.742L1124.89,338.591L1132.85,329.009L1131.82,318.511L1134.04,318.164L1136.37,326.404L1134.62,340.138L1139.37,342.667L1137.35,332.56L1144.79,326.884L1154.01,326.111L1162.22,334.324L1158.27,322.236L1157.83,305.933L1165.56,302.724L1176.24,303.427L1185.88,301.329L1182.27,292.791L1187.41,281.662L1192.52,281.196L1201.16,272.453L1212.89,270.058L1214.37,265.058L1226.04,263.338L1229.68,267.458L1239.65,257.578L1247.82,257.898L1249.04,249.587L1253.29,241.142L1263.79,232.707L1271.41,239.378L1265.36,244.333L1275.42,247.387ZM1018.27,598.218L1020.53,602.387L1022.6,602.662L1023.97,604.231L1020.31,604.702L1019.53,609.2L1018.77,611.204L1017.14,612.542L1017.26,615.356L1018.67,619.511L1022.88,620.676L1025.96,623.476L1032.28,624.427L1039.23,622.964L1039.65,621.658L1038.82,617.698L1039.47,611.76L1036,609.818L1037.15,605.871L1034.2,605.529L1035.18,600.604L1039.37,602.049L1043.28,600.169L1040.04,596.622L1038.76,593.209L1035.19,594.738L1034.73,599.084L1033.35,595.244L1033.09,593.787L1034.19,591.284L1033.34,589.182L1028.19,587.111L1026.18,581.6L1023.73,580.031L1023.58,578.004L1027.91,578.596L1028.08,574.009L1031.85,572.982L1035.74,573.929L1036.54,567.711L1035.75,563.72L1031.3,564.031L1027.52,562.444L1022.37,565.302L1018.23,566.658L1016.2,570.458L1011.89,571.507L1007.48,578.009L1011.52,583.884L1011.08,588L1015.93,595.089L1018.27,598.218Z" style="fill:rgb(254,254,228);fill-rule:nonzero;"/>
            <path d="M382.933,236.391L380.907,236.987L372.578,235.671L371.396,229.831L380.342,230.147L383.462,234.036L382.933,236.391Z" style="fill:rgb(254,254,228);fill-rule:nonzero;"/>
            <path d="M310.28,232.724L301.996,238.667L295.404,231.996L299,225.236L305.493,223.036L311.76,226.413L310.28,232.724Z" style="fill:rgb(254,254,228);fill-rule:nonzero;"/>
            <path d="M909.884,229.431L899.956,237.929L892.116,233.142L895.182,227.716L892.498,220.818L901.707,216.418L903.471,224.613L909.884,229.431Z" style="fill:rgb(254,254,228);fill-rule:nonzero;"/>
            <path d="M312.609,213.129L307.196,217.48L299.813,217.458L299.884,214.276L304.444,207.493L306.827,208.547L312.609,213.129Z" style="fill:rgb(254,254,228);fill-rule:nonzero;"/>
            <path d="M374.089,225.107L367.511,229.493L363.893,224.547L361.987,216.351L361.636,206.987L367.391,207.907L369.982,209.418L375.293,217.236L374.089,225.107Z" style="fill:rgb(254,254,228);fill-rule:nonzero;"/>
            <path d="M355.289,219.289L357.018,228.289L349.76,225.92L342.444,218.889L332.551,218.076L336.844,211.44L331.467,205.924L331.147,196.889L339.871,200.151L351.889,208.64L355.289,219.289Z" style="fill:rgb(254,254,228);fill-rule:nonzero;"/>
            <path d="M1267,219.68L1241.95,228.013L1250.07,198.511L1253.72,195.836L1257.06,197.391L1268.32,210.622L1267,219.68Z" style="fill:rgb(254,254,228);fill-rule:nonzero;"/>
            <path d="M881.12,187.133L895.751,205.044L884.564,214.004L882.098,230L878.196,233.956L876.08,250.622L870.724,251.378L861.169,239.258L865.2,231.911L858.538,225.796L849.876,207.053L846.422,188.373L858.538,179.36L860.973,188.173L867.302,187.827L868.991,179.204L875.516,178.307L881.12,187.133Z" style="fill:rgb(254,254,228);fill-rule:nonzero;"/>
            <path d="M913.102,168.982L921.813,178.178L915.222,191.667L902.329,194.533L889.222,190.467L888.431,183.627L882.053,183.173L877.191,171.32L890.916,163.836L897.369,170.284L901.862,162.227L913.102,168.982Z" style="fill:rgb(254,254,228);fill-rule:nonzero;"/>
            <path d="M1027.27,165.222L1021.31,168.769L1017.31,170.764L1016.69,175.098L1011.49,179.36L1006.68,173.213L1009.21,164.898L999.32,164.053L1008,159.058L1014.75,158.729L1015.66,166.084L1018.21,159.56L1022.4,154.951L1028.99,161.049L1027.27,165.222Z" style="fill:rgb(254,254,228);fill-rule:nonzero;"/>
            <path d="M1244.18,206.778L1234.48,209.644L1222.1,202.973L1214.72,193.88L1211.31,175.902L1205.25,170.738L1216.79,151.951L1226.4,145.458L1235.04,159.751L1245.28,185.187L1244.18,206.778Z" style="fill:rgb(254,254,228);fill-rule:nonzero;"/>
            <path d="M413.244,188.173L418.604,196.049L412.498,203.111L404.289,220.12L396.427,221.693L387.213,218.889L382.44,209.76L382.507,201.351L386.022,195.018L377.893,195.209L372.996,187.058L370.178,175.538L373.262,163.729L376.342,155.289L380.898,153.316L378.956,146.742L389.289,145.253L394.964,160.413L402.444,166.249L409.733,171.293L413.244,188.173Z" style="fill:rgb(254,254,228);fill-rule:nonzero;"/>
            <path d="M495.556,84.564L507.436,87.436L516.978,92.08L525.111,101.644L524.916,110.729L514.071,124.849L503.32,131.196L499.298,138.018L508.978,137.84L498.489,155.489L491.244,163.32L483.644,184.684L474.476,188.818L471.644,193.809L458.187,196.387L464.316,199.369L461.244,203.578L464.92,214.836L460.693,222.387L453.827,228.458L451.72,236.618L445.511,242.693L446.133,247.209L453.729,246.44L453.827,251.222L441.951,262.631L430.338,257.444L417.28,260.369L410.667,258.089L402.262,257.102L401.707,247.822L409.924,243.333L407.733,228.458L410.444,226.969L422.329,236L416.267,222.453L409.058,218.253L412.658,209.573L420.538,204.093L421.8,195.858L415.524,186.284L413.636,173.111L425.787,174.236L429.293,177.044L436.231,167.458L426.222,164.329L410.671,166.058L402.813,156.72L399.111,145.169L393.92,136.453L392.947,125.92L399.556,119.831L404.747,118.764L413.467,113.458L420,100.844L425.511,102.644L430.311,112.129L433.689,93.516L439.556,87.729L447.524,83.636L461.111,82.107L463.471,86.111L476.302,79.818L485.929,82.182L495.556,84.564Z" style="fill:rgb(254,254,228);fill-rule:nonzero;"/>
            <path d="M679.556,68.756L707.356,98.227L699.147,111.4L682.142,112.862L658.222,116.089L660.462,121.853L676.191,118.307L689.582,129.271L698.209,119.573L701.902,130.916L697.022,148.28L708.338,137.298L729.92,125.356L743.244,131.378L745.738,144.231L727.622,164.329L725.111,170.498L710.907,175.044L721.2,176.293L716,194.533L712.422,209.76L712.56,233.933L717.898,247.151L710.956,247.978L703.649,254.12L711.849,264.116L712.893,279.387L708.142,280.987L713.898,295.498L704.027,296.68L709.178,303.249L707.724,308.822L701.458,311.213L695.262,311.262L700.831,321.551L700.889,328.093L692.098,322.009L689.809,325.964L695.809,329.6L701.631,338.284L703.316,349.311L695.396,351.889L691.969,346.72L686.476,338.813L687.996,348.129L682.831,355.129L694.547,355.68L700.671,356.4L688.76,367.542L676.68,377.267L663.671,381.413L658.769,381.462L654.173,386.027L647.991,398.133L638.431,405.893L635.36,406.342L629.444,409.009L623.058,411.524L619.249,418.062L619.187,425.298L616.938,431.911L609.693,439.769L611.48,447.231L609.484,454.933L607.209,463.769L600.947,464.311L594.382,456.956L585.498,456.911L581.187,451.858L578.222,442.649L570.52,430.467L568.267,423.876L567.658,414.516L561.502,404.569L563.102,396.364L560.138,392.36L564.533,378.622L571.222,374.102L572.978,368.933L573.907,359L568.827,363.547L566.409,365.44L562.418,367.227L556.964,363.102L556.667,354.298L558.404,347.196L562.529,346.991L571.6,350.569L563.96,341.951L559.982,337.191L555.556,339.147L551.844,335.684L556.809,322.187L554.107,316.591L550.578,305.898L545.227,288.613L539.569,281.973L539.622,274.649L527.693,264.04L518.258,262.684L506.382,263.431L495.538,264.796L490.378,258.844L482.653,246.698L494.324,240.413L503.271,239.338L484.253,233.996L474.236,225.387L474.849,216.902L491.676,206.018L507.951,194.68L509.671,185.738L497.676,176.604L501.551,166.058L516.938,146.511L523.404,143.378L521.551,129.8L532.08,121.471L545.747,116.387L559.404,116.089L564.253,126.111L576.04,108.142L586.649,120.476L592.889,123.004L602.12,133.164L591.551,116.089L592.16,101.68L607.084,80.12L622.676,81.809L628.347,67.613L644.053,63.787L679.556,68.756Z" style="fill:rgb(254,254,228);fill-rule:nonzero;"/>
        </g>
    </g>
</svg>
